<?xml version="1.0" standalone="no"?>
<!DOCTYPE svg PUBLIC "-//W3C//DTD SVG 1.1//EN" "http://www.w3.org/Graphics/SVG/1.1/DTD/svg11.dtd" >
<svg>
<metadata>
Created by FontForge 20090914 at Sat Dec 10 21:56:56 2022
 By www-data
Copyright 2018 The Ms Madi Project Authors (https://github.com/googlefonts/ms-madi)
</metadata>
<defs>
<font id="MsMadi-Regular" horiz-adv-x="0" >
  <font-face 
    font-family="Ms Madi"
    font-weight="400"
    font-stretch="normal"
    units-per-em="1000"
    panose-1="0 0 0 0 0 0 0 0 0 0"
    ascent="800"
    descent="-200"
    x-height="289.997"
    cap-height="672"
    bbox="-335.534 -534.993 1925 973.003"
    underline-thickness="19"
    underline-position="-118"
    unicode-range="U+000D-U+FB02"
  />
<missing-glyph horiz-adv-x="474" 
d="M50 10v702h374v-702h-374zM236 403l133 281h-267zM387 85v563l-134 -281zM85 87l133 280l-133 280v-560zM101 50h269l-134 282z" />
    <glyph glyph-name="fi" unicode="fi" horiz-adv-x="476" 
d="M54 -114c-11.333 0 -16.999 5.33203 -16.999 15.999c0 6 1 12.333 3 19s3.33301 13 4 19c6.66699 33.333 15.5 70.833 26.5 112.5s23.5 83 37.5 124s28.667 76.833 44 107.5c-6 -0.666992 -14.667 -2.16699 -26 -4.5s-21.666 -5.66602 -30.999 -9.99902
s-14 -10.166 -14 -17.499c0 -4.66699 -3.66699 -8.5 -11 -11.5s-13.666 -4.5 -18.999 -4.5c-10 0 -15 5 -15 15s4.83301 18.667 14.5 26s21.667 13.833 36 19.5s28.666 10.167 42.999 13.5s25.833 5.66602 34.5 6.99902l40.5 82.5c15.667 31 33.834 62 54.501 93
s43.5 58.667 68.5 83s52.5 41.5 82.5 51.5c11.333 4 23.333 6 36 6c25.333 0 42.833 -5.5 52.5 -16.5s14.5 -23.167 14.5 -36.5c0 -12.667 -3.33301 -24.167 -10 -34.5s-14 -15.5 -22 -15.5c-4.66699 0 -8.66699 1.83301 -12 5.5s-4 7.16699 -2 10.5
c7.33301 11.333 11 22.333 11 33c0 7.33301 -2.5 13.333 -7.5 18s-13.167 7 -24.5 7c-8.66699 0 -16.667 -1.33301 -24 -4c-26 -8.66699 -50.167 -24 -72.5 -46s-42.666 -46.833 -60.999 -74.5s-34.5 -55.334 -48.5 -83.001s-25.667 -52.167 -35 -73.5
c20.667 3.33301 43.167 6 67.5 8s50.166 3 77.499 3c10.667 0 21.334 -0.166992 32.001 -0.5s21.334 -0.833008 32.001 -1.5c3.33301 0 7.66602 -1.33301 12.999 -4s8 -6 8 -10c0 -2.66699 -1.33301 -6 -4 -10c-20.667 -25.333 -40.334 -51.833 -59.001 -79.5
s-34 -55 -46 -82s-18 -52.5 -18 -76.5c0 -30.667 14.667 -46 44 -46c14 0 28.667 5.66699 44 17s30.166 25.333 44.499 42s27.333 33.334 39 50.001l28.5 40c5.33301 9.33301 9.66602 15.166 12.999 17.499s6.33301 3.5 9 3.5c8 0 12 -4 12 -12
c0 -7.33301 -4.83301 -18.666 -14.5 -33.999s-21.5 -31.666 -35.5 -48.999s-27.5 -33 -40.5 -47s-22.833 -23.667 -29.5 -29c-10 -8 -21.5 -14 -34.5 -18s-25.833 -6 -38.5 -6c-22.667 0 -40.667 6.33301 -54 19s-20 30.334 -20 53.001c0 24 5.33301 50.167 16 78.5
s24 56.166 40 83.499s32 51 48 71c-36.667 0 -72.834 -1.33301 -108.501 -4s-62.5 -5.66699 -80.5 -9c-23.333 -58.667 -45 -117.334 -65 -176.001s-36 -118.667 -48 -180c-0.666992 -6 -1.66699 -12 -3 -18l-4 -18c-2 -8.66699 -7.33301 -13 -16 -13zM461.001 407.999
c-3.33301 0 -6.99805 0.666992 -10.998 2s-6 4.33301 -6 9c0 3.33301 1 6.33301 3 9c5.33301 10 15.166 18.667 29.499 26s25.166 11 32.499 11c3.33301 0 7 -0.833008 11 -2.5s6 -4.83398 6 -9.50098c0 -11.333 -6.83301 -21.666 -20.5 -30.999s-28.5 -14 -44.5 -14z" />
    <glyph glyph-name="fl" unicode="fl" horiz-adv-x="508" 
d="M54 -114c-11.333 0 -17.0029 5.33301 -17.0029 16c0 6 1 12.333 3 19s3.33301 13 4 19c6.66699 33.333 15.5 70.833 26.5 112.5s23.5 83 37.5 124s28.667 76.833 44 107.5c-6 -0.666992 -14.667 -2.16699 -26 -4.5s-21.666 -5.66602 -30.999 -9.99902
s-14 -10.166 -14 -17.499c0 -4.66699 -3.66699 -8.5 -11 -11.5s-13.666 -4.5 -18.999 -4.5c-10 0 -15 5 -15 15s4.83301 18.667 14.5 26s21.667 13.833 36 19.5s28.666 10.167 42.999 13.5s25.833 5.66602 34.5 6.99902l40.5 82.5c15.667 31 33.834 62 54.501 93
s43.5 58.667 68.5 83s52.5 41.5 82.5 51.5c11.333 4 23.333 6 36 6c25.333 0 42.833 -5.5 52.5 -16.5s14.5 -23.167 14.5 -36.5c0 -12.667 -3.33301 -24.167 -10 -34.5s-14 -15.5 -22 -15.5c-4.66699 0 -8.66699 1.83301 -12 5.5s-4 7.16699 -2 10.5
c7.33301 11.333 11 22.333 11 33c0 7.33301 -2.5 13.333 -7.5 18s-13.167 7 -24.5 7c-8.66699 0 -16.667 -1.33301 -24 -4c-26 -8.66699 -50.167 -24 -72.5 -46s-42.666 -46.833 -60.999 -74.5s-34.5 -55.334 -48.5 -83.001s-25.667 -52.167 -35 -73.5
c19.333 3.33301 35.333 5.5 48 6.5s25.667 2.16699 39 3.5l51 5h3c8 0 12 -4 12 -12c0 -4 -1 -7.66699 -3 -11s-5 -5.33301 -9 -6l-89.5 -9.5c-23 -2.33301 -45.167 -5.16602 -66.5 -8.49902c-23.333 -58.667 -45 -117.334 -65 -176.001s-36 -118.667 -48 -180
c-0.666992 -6 -1.66699 -12 -3 -18l-4 -18c-2 -8.66699 -7.33301 -13 -16 -13zM376.997 -1c-26.667 0 -45.0029 8.00098 -55.0029 24.001s-15 35.333 -15 58c0 25.333 4.16699 54.333 12.5 87s19.333 66.667 33 102s29.167 70 46.5 104s35 65 53 93s35 51 51 69
c14 15.333 27.5 27.166 40.5 35.499s26.833 15.166 41.5 20.499c10 4 20 6 30 6c13.333 0 24.833 -3.33301 34.5 -10s14.5 -17.667 14.5 -33c0 -14.667 -5.33301 -31.5 -16 -50.5s-24 -38.167 -40 -57.5s-32.333 -37.333 -49 -54s-31.334 -30.334 -44.001 -41.001l-81 -65.5
c-26 -20.333 -47.667 -40.833 -65 -61.5c-9.33301 -26 -16.666 -51.167 -21.999 -75.5s-8 -46.166 -8 -65.499c0 -17.333 3.16699 -31.666 9.5 -42.999s17.5 -17 33.5 -17c17.333 0 34.333 6.33301 51 19s32.334 28 47.001 46s27.667 36.167 39 54.5
s20.666 32.833 27.999 43.5c2.66699 4.66699 7.33398 7 14.001 7c8.66699 0 13 -4 13 -12c0 -4 -2 -9.66699 -6 -17c-8.66699 -14.667 -19.167 -31.5 -31.5 -50.5s-26.666 -37.333 -42.999 -55s-34.166 -32.167 -53.499 -43.5s-40.333 -17 -63 -17zM526.994 516.001
c-14.667 -16 -30.165 -36.666 -46.498 -61.999s-32.5 -53.333 -48.5 -84s-30.667 -61.667 -44 -93c21.333 19.333 40.666 35.833 57.999 49.5s34.666 28.167 51.999 43.5c15.333 13.333 31.833 29.833 49.5 49.5s34.167 40.167 49.5 61.5s26 41 32 59c2 7.33301 3 13 3 17
c0 10.667 -5.33301 16 -16 16c-2.66699 0 -5.5 -0.333008 -8.5 -1s-6.16699 -1.66699 -9.5 -3c-12 -4.66699 -23.833 -11.334 -35.5 -20.001s-23.5 -19.667 -35.5 -33z" />
    <glyph glyph-name="f_f" unicode="ff" horiz-adv-x="536" 
d="M54 -114c-11.333 0 -17.0049 5.33496 -17.0049 16.002c0 6 1 12.333 3 19s3.33301 13 4 19c6.66699 33.333 15.5 70.833 26.5 112.5s23.5 83 37.5 124s28.667 76.833 44 107.5c-6 -0.666992 -14.667 -2.16699 -26 -4.5s-21.666 -5.66602 -30.999 -9.99902
s-14 -10.166 -14 -17.499c0 -4.66699 -3.66699 -8.5 -11 -11.5s-13.666 -4.5 -18.999 -4.5c-10 0 -15 5 -15 15s4.83301 18.667 14.5 26s21.667 13.833 36 19.5s28.666 10.167 42.999 13.5s25.833 5.66602 34.5 6.99902l40.5 82.5c15.667 31 33.834 62 54.501 93
s43.5 58.667 68.5 83s52.5 41.5 82.5 51.5c11.333 4 23.333 6 36 6c25.333 0 42.833 -5.5 52.5 -16.5s14.5 -23.167 14.5 -36.5c0 -12.667 -3.33301 -24.167 -10 -34.5s-14 -15.5 -22 -15.5c-4.66699 0 -8.66699 1.83301 -12 5.5s-4 7.16699 -2 10.5
c7.33301 11.333 11 22.333 11 33c0 7.33301 -2.5 13.333 -7.5 18s-13.167 7 -24.5 7c-8.66699 0 -16.667 -1.33301 -24 -4c-26 -8.66699 -50.167 -24 -72.5 -46s-42.666 -46.833 -60.999 -74.5s-34.5 -55.334 -48.5 -83.001s-25.667 -52.167 -35 -73.5
c34 5.33301 72.167 9.5 114.5 12.5s83.833 5.16699 124.5 6.5c11.333 24.667 24.833 51.5 40.5 80.5s33.167 57.333 52.5 85s40.833 52.167 64.5 73.5s49.167 36.666 76.5 45.999c11.333 4 23.333 6 36 6c25.333 0 42.833 -5.5 52.5 -16.5s14.5 -23.167 14.5 -36.5
c0 -12.667 -3.33301 -24.167 -10 -34.5s-14 -15.5 -22 -15.5c-4.66699 0 -8.66699 1.83301 -12 5.5s-4 7.16699 -2 10.5c7.33301 11.333 11 22.333 11 33c0 7.33301 -2.5 13.333 -7.5 18s-13.167 7 -24.5 7c-8.66699 0 -16.667 -1.33301 -24 -4
c-39.333 -14 -75 -41.833 -107 -83.5s-64.667 -99.167 -98 -172.5c25.333 0 48.833 0.166992 70.5 0.5s40.5 0.5 56.5 0.5h3c8 0 12 -4 12 -12c0 -4 -1 -7.83301 -3 -11.5s-5 -5.5 -9 -5.5c-22 0 -45.167 -0.166992 -69.5 -0.5s-48.833 -0.833008 -73.5 -1.5
c-30.667 -70.667 -56.5 -136.334 -77.5 -197.001s-37.5 -121.334 -49.5 -182.001c-0.666992 -6 -1.66699 -12 -3 -18l-4 -18c-2 -8.66699 -7.33301 -13 -16 -13c-11.333 0 -17 5.33301 -17 16c0 6 1 12.333 3 19s3.33301 13 4 19c8.66699 42 19.334 85.333 32.001 130
s26.334 87.834 41.001 129.501s29.667 79.167 45 112.5c-43.333 -2 -85.833 -4.66699 -127.5 -8s-79.167 -7.66602 -112.5 -12.999c-23.333 -58.667 -45 -117.334 -65 -176.001s-36 -118.667 -48 -180c-0.666992 -6 -1.66699 -12 -3 -18l-4 -18
c-2 -8.66699 -7.33301 -13 -16 -13z" />
    <glyph glyph-name="f_f_i" unicode="ffi" horiz-adv-x="745" 
d="M54 -114c-11.333 0 -17 5.33301 -17 16c0 6 1 12.333 3 19s3.33301 13 4 19c6.66699 33.333 15.5 70.833 26.5 112.5s23.5 83 37.5 124s28.667 76.833 44 107.5c-6 -0.666992 -14.667 -2.16699 -26 -4.5s-21.666 -5.66602 -30.999 -9.99902s-14 -10.166 -14 -17.499
c0 -4.66699 -3.66699 -8.5 -11 -11.5s-13.666 -4.5 -18.999 -4.5c-10 0 -15 5 -15 15s4.83301 18.667 14.5 26s21.667 13.833 36 19.5s28.666 10.167 42.999 13.5s25.833 5.66602 34.5 6.99902l40.5 82.5c15.667 31 33.834 62 54.501 93s43.5 58.667 68.5 83
s52.5 41.5 82.5 51.5c11.333 4 23.333 6 36 6c25.333 0 42.833 -5.5 52.5 -16.5s14.5 -23.167 14.5 -36.5c0 -12.667 -3.33301 -24.167 -10 -34.5s-14 -15.5 -22 -15.5c-4.66699 0 -8.66699 1.83301 -12 5.5s-4 7.16699 -2 10.5c7.33301 11.333 11 22.333 11 33
c0 7.33301 -2.5 13.333 -7.5 18s-13.167 7 -24.5 7c-8.66699 0 -16.667 -1.33301 -24 -4c-26 -8.66699 -50.167 -24 -72.5 -46s-42.666 -46.833 -60.999 -74.5s-34.5 -55.334 -48.5 -83.001s-25.667 -52.167 -35 -73.5c7.33301 1.33301 22.333 2.33301 45 3
s48.834 1.16699 78.501 1.5s57.834 0.5 84.501 0.5h24c11.333 24.667 24.833 52 40.5 82s33.5 59.667 53.5 89s42.333 55.5 67 78.5s51.334 39.5 80.001 49.5c11.333 4 23.333 6 36 6c25.333 0 42.833 -5.5 52.5 -16.5s14.5 -23.167 14.5 -36.5
c0 -12.667 -3.33301 -24.167 -10 -34.5s-14 -15.5 -22 -15.5c-4.66699 0 -8.66699 1.83301 -12 5.5s-4 7.16699 -2 10.5c7.33301 11.333 11 22.333 11 33c0 7.33301 -2.5 13.333 -7.5 18s-13.167 7 -24.5 7c-8.66699 0 -16.667 -1.33301 -24 -4
c-40.667 -14 -77.334 -43.167 -110.001 -87.5s-66.667 -105.833 -102 -184.5c16.667 0 36.834 -0.166992 60.501 -0.5l72 -1c24.333 -0.333008 45.833 -1.16602 64.5 -2.49902c3.33301 0 7.66602 -1.33301 12.999 -4s8 -6 8 -10c0 -2.66699 -1.33301 -6 -4 -10
c-18.667 -22.667 -36.834 -47.167 -54.501 -73.5s-32.167 -53 -43.5 -80s-17 -52.5 -17 -76.5c0 -30.667 14.667 -46 44 -46c14 0 28.667 5.66699 44 17s30.166 25.333 44.499 42s27.333 33.334 39 50.001l28.5 40c5.33301 9.33301 9.66602 15.166 12.999 17.499
s6.33301 3.5 9 3.5c8 0 12 -4 12 -12c0 -7.33301 -4.83301 -18.666 -14.5 -33.999s-21.5 -31.666 -35.5 -48.999s-27.5 -33 -40.5 -47s-22.833 -23.667 -29.5 -29c-10 -8 -21.5 -14 -34.5 -18s-25.833 -6 -38.5 -6c-22.667 0 -40.667 6.33301 -54 19s-20 30.334 -20 53.001
c0 24 5 50 15 78s22.5 55.167 37.5 81.5s29.5 48.166 43.5 65.499c-26.667 0 -54.334 0.333008 -83.001 1s-59.334 1 -92.001 1c-28.667 -67.333 -53 -130 -73 -188s-35.667 -116.333 -47 -175c-0.666992 -6 -1.66699 -12 -3 -18l-4 -18c-2 -8.66699 -7.33301 -13 -16 -13
c-11.333 0 -17 5.33301 -17 16c0 6 1 12.333 3 19s3.33301 13 4 19c8 40 18 81.333 30 124s25 84 39 124s28 76.667 42 110c-28 -0.666992 -57.667 -1.33398 -89 -2.00098s-60 -1.33398 -86 -2.00098s-45.333 -1.66699 -58 -3c-23.333 -58.667 -45 -117.334 -65 -176.001
s-36 -118.667 -48 -180c-0.666992 -6 -1.66699 -12 -3 -18l-4 -18c-2 -8.66699 -7.33301 -13 -16 -13zM729 408c-3.33301 0 -6.99805 0.666992 -10.998 2s-6 4.33301 -6 9c0 3.33301 1 6.33301 3 9c5.33301 10 15.166 18.667 29.499 26s25.166 11 32.499 11
c3.33301 0 7 -0.833008 11 -2.5s6 -4.83398 6 -9.50098c0 -11.333 -6.83301 -21.666 -20.5 -30.999s-28.5 -14 -44.5 -14z" />
    <glyph glyph-name="f_f_l" unicode="ffl" horiz-adv-x="776" 
d="M54 -114c-11.333 0 -17.0049 5.33496 -17.0049 16.002c0 6 1 12.333 3 19s3.33301 13 4 19c6.66699 33.333 15.5 70.833 26.5 112.5s23.5 83 37.5 124s28.667 76.833 44 107.5c-6 -0.666992 -14.667 -2.16699 -26 -4.5s-21.666 -5.66602 -30.999 -9.99902
s-14 -10.166 -14 -17.499c0 -4.66699 -3.66699 -8.5 -11 -11.5s-13.666 -4.5 -18.999 -4.5c-10 0 -15 5 -15 15s4.83301 18.667 14.5 26s21.667 13.833 36 19.5s28.666 10.167 42.999 13.5s25.833 5.66602 34.5 6.99902l40.5 82.5c15.667 31 33.834 62 54.501 93
s43.5 58.667 68.5 83s52.5 41.5 82.5 51.5c11.333 4 23.333 6 36 6c25.333 0 42.833 -5.5 52.5 -16.5s14.5 -23.167 14.5 -36.5c0 -12.667 -3.33301 -24.167 -10 -34.5s-14 -15.5 -22 -15.5c-4.66699 0 -8.66699 1.83301 -12 5.5s-4 7.16699 -2 10.5
c7.33301 11.333 11 22.333 11 33c0 7.33301 -2.5 13.333 -7.5 18s-13.167 7 -24.5 7c-8.66699 0 -16.667 -1.33301 -24 -4c-26 -8.66699 -50.167 -24 -72.5 -46s-42.666 -46.833 -60.999 -74.5s-34.5 -55.334 -48.5 -83.001s-25.667 -52.167 -35 -73.5
c34 5.33301 72.167 9.5 114.5 12.5s83.833 5.16699 124.5 6.5c11.333 24.667 24.833 51.5 40.5 80.5s33.167 57.333 52.5 85s40.833 52.167 64.5 73.5s49.167 36.666 76.5 45.999c11.333 4 23.333 6 36 6c25.333 0 42.833 -5.5 52.5 -16.5s14.5 -23.167 14.5 -36.5
c0 -12.667 -3.33301 -24.167 -10 -34.5s-14 -15.5 -22 -15.5c-4.66699 0 -8.66699 1.83301 -12 5.5s-4 7.16699 -2 10.5c7.33301 11.333 11 22.333 11 33c0 7.33301 -2.5 13.333 -7.5 18s-13.167 7 -24.5 7c-8.66699 0 -16.667 -1.33301 -24 -4
c-39.333 -14 -75 -41.833 -107 -83.5s-64.667 -99.167 -98 -172.5c25.333 0 48.833 0.166992 70.5 0.5s40.5 0.5 56.5 0.5h3c8 0 12 -4 12 -12c0 -4 -1 -7.83301 -3 -11.5s-5 -5.5 -9 -5.5c-22 0 -45.167 -0.166992 -69.5 -0.5s-48.833 -0.833008 -73.5 -1.5
c-30.667 -70.667 -56.5 -136.334 -77.5 -197.001s-37.5 -121.334 -49.5 -182.001c-0.666992 -6 -1.66699 -12 -3 -18l-4 -18c-2 -8.66699 -7.33301 -13 -16 -13c-11.333 0 -17 5.33301 -17 16c0 6 1 12.333 3 19s3.33301 13 4 19c8.66699 42 19.334 85.333 32.001 130
s26.334 87.834 41.001 129.501s29.667 79.167 45 112.5c-43.333 -2 -85.833 -4.66699 -127.5 -8s-79.167 -7.66602 -112.5 -12.999c-23.333 -58.667 -45 -117.334 -65 -176.001s-36 -118.667 -48 -180c-0.666992 -6 -1.66699 -12 -3 -18l-4 -18
c-2 -8.66699 -7.33301 -13 -16 -13zM644.995 -0.998047c-26.667 0 -45 8.00098 -55 24.001s-15 35.333 -15 58c0 25.333 4.16699 54.333 12.5 87s19.333 66.667 33 102s29.167 70 46.5 104s35 65 53 93s35 51 51 69c14 15.333 27.5 27.166 40.5 35.499
s26.833 15.166 41.5 20.499c10 4 20 6 30 6c13.333 0 24.833 -3.33301 34.5 -10s14.5 -17.667 14.5 -33c0 -14.667 -5.33301 -31.5 -16 -50.5s-24 -38.167 -40 -57.5s-32.333 -37.333 -49 -54s-31.334 -30.334 -44.001 -41.001l-81 -65.5
c-26 -20.333 -47.667 -40.833 -65 -61.5c-9.33301 -26 -16.666 -51.167 -21.999 -75.5s-8 -46.166 -8 -65.499c0 -17.333 3.16699 -31.666 9.5 -42.999s17.5 -17 33.5 -17s31.333 5.16699 46 15.5s28.834 23.5 42.501 39.5s26.167 32 37.5 48l23.5 33.5l18.5 26.5
c2.66699 4.66699 7 7 13 7c7.33301 0 11 -3.66699 11 -11c0 -4.66699 -2 -10.667 -6 -18c-8 -13.333 -18.333 -29.333 -31 -48s-27 -37 -43 -55s-33.833 -33 -53.5 -45s-40.834 -18 -63.501 -18zM794.995 516.003c-14.667 -16 -30.165 -36.666 -46.498 -61.999
s-32.5 -53.333 -48.5 -84s-30.667 -61.667 -44 -93c21.333 19.333 40.666 35.833 57.999 49.5s34.666 28.167 51.999 43.5c15.333 13.333 31.833 29.833 49.5 49.5s34.167 40.167 49.5 61.5s26 41 32 59c2 7.33301 3 13 3 17c0 10.667 -5.33301 16 -16 16
c-2.66699 0 -5.5 -0.333008 -8.5 -1s-6.16699 -1.66699 -9.5 -3c-12 -4.66699 -23.833 -11.334 -35.5 -20.001s-23.5 -19.667 -35.5 -33z" />
    <glyph glyph-name=".notdef" horiz-adv-x="474" 
d="M50 10v702h374v-702h-374zM236 403l133 281h-267zM387 85v563l-134 -281zM85 87l133 280l-133 280v-560zM101 50h269l-134 282z" />
    <glyph glyph-name="CR" unicode="&#xd;" 
 />
    <glyph glyph-name="space" unicode=" " horiz-adv-x="215" 
 />
    <glyph glyph-name="exclam" unicode="!" horiz-adv-x="243" 
d="M300 580c4 0 7.66699 -1.16797 11 -3.50098s4.66602 -5.83301 3.99902 -10.5c0 -2 -4.5 -13.333 -13.5 -34l-33 -77l-39.5 -97l-31.5 -83l-23.5 -66.5c-6 -17.667 -10 -28.5 -12 -32.5c-3.33301 -6.66699 -9 -10 -17 -10c-2.66699 0 -5.66699 1.16699 -9 3.5
s-4.66602 5.83301 -3.99902 10.5c0.666992 2.66699 4.33398 13.834 11.001 33.501s15.667 44.667 27 75l36 94.5l35 85.5l29.5 68.5c8.33301 18.667 13.166 29.667 14.499 33c3.33301 6.66699 8.33301 10 15 10zM106 69.999c9.33301 0 17.5 -3.66699 24.5 -11
s10.167 -15.666 9.5 -24.999s-4.5 -17.333 -11.5 -24s-15.167 -10 -24.5 -10s-17.5 3.33301 -24.5 10s-10.167 14.667 -9.5 24s4.5 17.666 11.5 24.999s15.167 11 24.5 11z" />
    <glyph glyph-name="quotedbl" unicode="&#x22;" horiz-adv-x="307" 
d="M249 448c-4 0 -6 1.66797 -6 5.00098c0 4.66699 2.83301 11.167 8.5 19.5l18.5 26.5c6.66699 9.33301 11 16.666 13 21.999c5.33301 14 8.5 27.667 9.5 41s1.5 26.333 1.5 39v35c0 5.33301 1.66699 9.5 5 12.5s7.33301 4.5 12 4.5s9 -1.5 13 -4.5s6 -7.16699 6 -12.5
c0 -32 -5.5 -65 -16.5 -99s-29.167 -62 -54.5 -84c-1.33301 -0.666992 -2.83301 -1.66699 -4.5 -3s-3.5 -2 -5.5 -2zM150 448.001c-4 0 -5.99902 1.66699 -5.99902 5c0 4 2.83301 10.167 8.5 18.5l18 26.5c6.33301 9.33301 10.5 17 12.5 23c7.33301 20 11.166 39 11.499 57
s0.5 37.333 0.5 58c0 5.33301 1.66699 9.5 5 12.5s7.33301 4.5 12 4.5s9 -1.5 13 -4.5s6 -7.16699 6 -12.5c0 -31.333 -5.5 -64.333 -16.5 -99s-29.167 -62.667 -54.5 -84c-1.33301 -0.666992 -2.83301 -1.66699 -4.5 -3s-3.5 -2 -5.5 -2z" />
    <glyph glyph-name="numbersign" unicode="#" horiz-adv-x="884" 
d="M259 -46c-1.33301 0 -3.67383 0.50293 -7.00684 1.50293s-5 2.5 -5 4.5c0 3.33301 0.333008 6 1 8c2.66699 13.333 6.66699 26.666 12 39.999s9.66602 26.333 12.999 39l17.5 57c5 16.667 9.33301 33.5 13 50.5s6.83398 36.5 9.50098 58.5
c-28.667 -0.666992 -53.5 -1.66699 -74.5 -3l-62.5 -4c-20.667 -1.33301 -45.334 -2.66602 -74.001 -3.99902c-4.66699 0 -7.83398 1.83301 -9.50098 5.5s-2.5 7.5 -2.5 11.5c0 4.66699 1 9 3 13s5.33301 6.33301 10 7c9.33301 1.33301 23.333 2.33301 42 3
s38.834 1.5 60.501 2.5s42.5 1.83301 62.5 2.5s36.333 1 49 1c2 19.333 3.33301 39 4 59s1 40 1 60v46c-30.667 -0.666992 -57 -1.5 -79 -2.5s-44 -1.66699 -66 -2s-48.333 -0.5 -79 -0.5c-3.33301 0 -5.83301 1.5 -7.5 4.5s-2.5 5.83301 -2.5 8.5
c0 4.66699 1.5 9.66699 4.5 15s7.16699 8 12.5 8h76c21.333 0 42.5 0.166992 63.5 0.5s46.167 0.5 75.5 0.5c-0.666992 15.333 -2.66699 31.833 -6 49.5s-6.33301 35 -9 52s-4 31.167 -4 42.5c0 6 2.66699 10.5 8 13.5s10.333 4.5 15 4.5c8 0 12.333 -3 13 -9
c4.66699 -25.333 7.16699 -50.5 7.5 -75.5s1.5 -50.5 3.5 -76.5l179 2c0.666992 27.333 1.16699 52.833 1.5 76.5s0.5 48.834 0.5 75.501c0 4.66699 2 8 6 10s7.66699 3 11 3s6.83301 -1 10.5 -3s5.5 -5 5.5 -9c0 -26.667 -0.333008 -52 -1 -76s-1.66699 -49.667 -3 -77
c28.667 0.666992 53.167 1 73.5 1s40.666 0.166992 60.999 0.5s44.833 0.5 73.5 0.5c8 0 12 -4 12 -12c0 -8.66699 -4 -13 -12 -13c-28.667 0 -53.167 -0.166992 -73.5 -0.5s-40.666 -0.833008 -60.999 -1.5s-45.166 -1.33398 -74.499 -2.00098l-2 -83
c-0.666992 -28 -1 -55.667 -1 -83v-7c47.333 -0.666992 95.833 -2.16699 145.5 -4.5s96.834 -9.16602 141.501 -20.499c6.66699 -1.33301 10 -5.33301 10 -12c0 -8 -4.66699 -12 -14 -12c-17.333 0 -35.5 1.66699 -54.5 5s-37.167 5.66602 -54.5 6.99902l-62 5
c-16.667 1.33301 -33.167 2.16602 -49.5 2.49902s-37.166 0.5 -62.499 0.5c0.666992 -18 1.33398 -33.5 2.00098 -46.5s1.66699 -26 3 -39l5 -46.5c1.33301 -12.667 3.83301 -26.334 7.5 -41.001s5.5 -28.334 5.5 -41.001c0 -4 -0.666992 -7.5 -2 -10.5
s-4.66602 -4.5 -9.99902 -4.5c-6.66699 0 -10.667 3.33301 -12 10c-11.333 37.333 -18.166 73.5 -20.499 108.5s-4.16602 71.833 -5.49902 110.5c-30 -0.666992 -60 -1.16699 -90 -1.5s-60.333 -1.16602 -91 -2.49902c-0.666992 -8.66699 -3.16699 -23.167 -7.5 -43.5
s-9.66602 -42.833 -15.999 -67.5s-13.333 -48.334 -21 -71.001s-15.167 -41.5 -22.5 -56.5s-14 -22.5 -20 -22.5zM349.992 249.003h176v50v60.5c0 20.333 0.333008 40.5 1 60.5l-177 -6c0.666992 -16 1.16699 -32 1.5 -48s0.5 -31.667 0.5 -47v-35.5
c0 -11.667 -0.666992 -23.167 -2 -34.5z" />
    <glyph glyph-name="dollar" unicode="$" horiz-adv-x="496" 
d="M139 -126c-6 0 -9.83105 1.66699 -11.498 5s-2.16699 7.33301 -1.5 12c3.33301 15.333 8.83301 32.166 16.5 50.499l24 55c8.33301 18.333 15.5 34.833 21.5 49.5c-2.66699 0 -5 -0.166992 -7 -0.5s-4.33301 -0.5 -7 -0.5c-20.667 0 -35.5 5.5 -44.5 16.5
s-13.5 23.833 -13.5 38.5c0 3.33301 0.166992 6.5 0.5 9.5s0.833008 5.83301 1.5 8.5c1.33301 4.66699 4.16602 11.834 8.49902 21.501s9.83301 13.834 16.5 12.501c6 -2.66699 9 -6.33398 9 -11.001c0 -6.66699 -2.5 -12.667 -7.5 -18s-8.16699 -11.333 -9.5 -18v-5
c0 -5.33301 2 -9.66602 6 -12.999s8.66699 -5.66602 14 -6.99902c3.33301 -0.666992 6.66602 -1.16699 9.99902 -1.5s6.66602 -0.5 9.99902 -0.5c9.33301 0 18.333 1 27 3l35 88.5l36 88.5c-6.66699 -0.666992 -13.167 -1.16699 -19.5 -1.5s-12.833 -0.5 -19.5 -0.5
c-20 0 -39.667 2 -59 6c-20.667 5.33301 -36.667 13.5 -48 24.5s-17 25.833 -17 44.5c0 22.667 6.83301 45 20.5 67s31.834 42.667 54.501 62s47.5 36.166 74.5 50.499s54 25.5 81 33.5s51.5 12 73.5 12c4 6.66699 8.83301 17.167 14.5 31.5s12.334 27.166 20.001 38.499
s15.5 16 23.5 14c2.66699 -0.666992 6.5 -2.33398 11.5 -5.00098s7.16699 -5.66699 6.5 -9c0 -1.33301 -2.83301 -7.66602 -8.5 -18.999l-17 -34.5c-5.66699 -11.667 -9.5 -18.834 -11.5 -21.501c22 -5.33301 39.667 -15 53 -29s20 -31.667 20 -53c0 -8 -1 -16 -3 -24
c-0.666992 -3.33301 -2.83398 -10 -6.50098 -20s-8.5 -14.333 -14.5 -13c-6.66699 2 -10 5 -10 9c0 2.66699 0.666992 5.66699 2 9s2.33301 6.33301 3 9c0.666992 3.33301 1.16699 6.33301 1.5 9s0.5 5.33398 0.5 8.00098c0 17.333 -6 31.833 -18 43.5
s-26.667 19.167 -44 22.5c-40 -74.667 -78 -150.667 -114 -228c10.667 1.33301 21.667 2.83301 33 4.5s22.666 2.5 33.999 2.5c42.667 0 64 -14 64 -42c0 -2.66699 -0.166992 -5.16699 -0.5 -7.5s-0.833008 -4.83301 -1.5 -7.5c-5.33301 -22 -16.666 -43.5 -33.999 -64.5
s-37.833 -40.333 -61.5 -58s-48 -32.667 -73 -45s-48.167 -20.833 -69.5 -25.5c-10.667 -25.333 -21 -54 -31 -86s-21 -59.667 -33 -83c-4 -5.33301 -7.66699 -8 -11 -8zM235.002 287c18 0 35.333 1 52 3l53 118c18 39.333 37 78 57 116
c-22.667 -2 -46.834 -7.83301 -72.501 -17.5s-50.5 -22.5 -74.5 -38.5s-44.667 -34.333 -62 -55s-28.666 -42.667 -33.999 -66c-0.666992 -2.66699 -1.16699 -5.16699 -1.5 -7.5s-0.5 -4.5 -0.5 -6.5c0 -22 13.667 -36 41 -42c7.33301 -1.33301 14.5 -2.33301 21.5 -3
s13.833 -1 20.5 -1zM230.002 88c14.667 4.66699 31.667 12.3311 51 22.998s38.666 23.334 57.999 38.001s36 30.167 50 46.5s23 32.5 27 48.5c0 1.33301 0.166992 2.33301 0.5 3s0.5 1.33398 0.5 2.00098c0 5.33301 -1.66699 9.33301 -5 12s-7.66602 4.66699 -12.999 6
c-3.33301 1.33301 -6.83301 2 -10.5 2h-10.5c-12 0 -24.167 -1 -36.5 -3s-23.833 -3.66699 -34.5 -5l-39 -86.5z" />
    <glyph glyph-name="percent" unicode="%" horiz-adv-x="562" 
d="M89 -7c-8 0 -12.0049 4.33105 -12.0049 12.998c0 32 8.33301 66.5 25 103.5s39 74.833 67 113.5s59.167 76.834 93.5 114.501s69.333 73.667 105 108s69.834 65.5 102.501 93.5l84 71c-23.333 3.33301 -46.5 8.83301 -69.5 16.5s-45.833 14.834 -68.5 21.501
s-46.334 10 -71.001 10c-26 0 -51.667 -7.66699 -77 -23s-46.166 -35 -62.499 -59s-24.5 -49.667 -24.5 -77c0 -20.667 7.83301 -34.167 23.5 -40.5s31.834 -9.5 48.501 -9.5c20 0 38.167 5.83301 54.5 17.5s29.333 26.5 39 44.5s14.5 36.333 14.5 55
c0 12 -4.16699 21 -12.5 27s-18.166 10.333 -29.499 13l-29.5 7c-8.33301 2 -12.5 5 -12.5 9s1.5 7.66699 4.5 11s6.5 5 10.5 5c12.667 0 26.834 -2.83301 42.501 -8.5s29.5 -13.667 41.5 -24s18 -23.166 18 -38.499c0 -24 -7.16699 -46.833 -21.5 -68.5
s-32.666 -39.5 -54.999 -53.5s-45.5 -21 -69.5 -21c-27.333 0 -50 6.66699 -68 20s-27 34.333 -27 63c0 22 5.83301 44.167 17.5 66.5s27.167 42.833 46.5 61.5s40.166 33.667 62.499 45s44.5 17 66.5 17c28.667 0 55.667 -5.16699 81 -15.5l76.5 -31.5
c25.667 -10.667 52.167 -16.334 79.5 -17.001c6.66699 4.66699 13.834 9 21.501 13s15.5 6 23.5 6c4.66699 0 8.83398 -1 12.501 -3s5.5 -5.66699 5.5 -11c0 -4.66699 -9.16699 -14.834 -27.5 -30.501l-73 -60l-100.5 -83.5c-36.667 -31.333 -74 -65.166 -112 -101.499
s-73.333 -74.333 -106 -114s-60.334 -80 -83.001 -121s-37 -81.5 -43 -121.5c-1.33301 -8.66699 -5.33301 -13 -12 -13zM339.995 8.99805c-16.667 0 -32.8359 2.66699 -48.5029 8s-28.667 14 -39 26s-15.5 27.667 -15.5 47c0 14 4.33301 29 13 45s19.834 31.167 33.501 45.5
s28.167 26 43.5 35s29.666 13.5 42.999 13.5c2.66699 0 4.83398 -1.66699 6.50098 -5s2.5 -5.66602 2.5 -6.99902c0 -2.66699 -5.33301 -7.33398 -16 -14.001s-23 -15.167 -37 -25.5s-26.333 -22.833 -37 -37.5s-16 -31.667 -16 -51s6.83301 -33.333 20.5 -42
s29.167 -13 46.5 -13c18.667 0 36.667 4.33301 54 13s31.833 20.667 43.5 36s17.5 33 17.5 53c0 15.333 -3.16699 26.166 -9.5 32.499s-13.666 10.333 -21.999 12s-15.666 3.33398 -21.999 5.00098s-9.5 5.5 -9.5 11.5c0 8.66699 4.33301 13 13 13
c22.667 0 42.167 -5.66699 58.5 -17s24.5 -29.333 24.5 -54c0 -25.333 -7.5 -47.833 -22.5 -67.5s-33.833 -35 -56.5 -46s-45.667 -16.5 -69 -16.5z" />
    <glyph glyph-name="ampersand" unicode="&#x26;" horiz-adv-x="570" 
d="M194 -89c-32 0 -59.999 9.16797 -83.999 27.501s-42.667 41.666 -56 69.999s-20 57.5 -20 87.5c0 44.667 9.83301 87 29.5 127s44.667 77.5 75 112.5s60.833 66.5 91.5 94.5v11c0 18.667 2.5 41 7.5 67s12.5 53 22.5 81s22.333 54.167 37 78.5s31.667 44.166 51 59.499
s41 23 65 23c22 0 39.667 -6.83301 53 -20.5s20 -31.5 20 -53.5c0 -23.333 -8.16699 -47 -24.5 -71s-36.833 -47.667 -61.5 -71s-49.334 -45.166 -74.001 -65.499s-45 -38.5 -61 -54.5c3.33301 -18.667 6.33301 -37.5 9 -56.5s6.33398 -38.167 11.001 -57.5
c10.667 17.333 25.167 35.166 43.5 53.499s38.5 33.666 60.5 45.999s43.667 18.5 65 18.5c22.667 0 41.667 -6.16699 57 -18.5s26.833 -28 34.5 -47s11.5 -38.833 11.5 -59.5c0 -20 -3.83301 -42.167 -11.5 -66.5s-17.667 -48.666 -30 -72.999s-25.5 -47.333 -39.5 -69
s-27.333 -39.834 -40 -54.501c3.33301 -3.33301 9.16602 -8.66602 17.499 -15.999l26.5 -24c9.33301 -8.66699 17.333 -16.667 24 -24s10 -12.666 10 -15.999c0 -1.33301 -0.5 -3 -1.5 -5s-2.83301 -3 -5.5 -3c-2 0 -6.83301 3.16699 -14.5 9.5l-26.5 23l-27.5 25
c-8.33301 7.66699 -13.833 12.5 -16.5 14.5c-30.667 -32.667 -65 -58 -103 -76s-79.667 -27 -125 -27zM266.001 462.001c12.667 11.333 29.665 25.334 50.998 42.001s42.833 34.667 64.5 54s40 39 55 59s22.5 38.333 22.5 55c0 12 -4.5 22.333 -13.5 31s-19.167 13 -30.5 13
c-15.333 0 -30.166 -6.66699 -44.499 -20s-27.666 -30.5 -39.999 -51.5s-23 -43.333 -32 -67s-16.333 -45.834 -22 -66.501s-9.16699 -37 -10.5 -49zM193.999 -58.998c40 0 77.5 8.33105 112.5 24.998s66.167 39.334 93.5 68.001c-30 28 -55.833 58 -77.5 90
s-39.167 67.333 -52.5 106c-6.66699 -14.667 -11 -28.334 -13 -41.001s-3 -26.667 -3 -42c0 -3.33301 -0.5 -7.66602 -1.5 -12.999s-4.16699 -8.33301 -9.5 -9c-4 1.33301 -6.5 4.5 -7.5 9.5s-1.5 9.5 -1.5 13.5c0 19.333 2.33301 38.166 7 56.499
s11.334 35.833 20.001 52.5c-6 20.667 -11.333 41.5 -16 62.5s-8.33398 41.833 -11.001 62.5c-23.333 -24 -47.333 -52 -72 -84s-45.5 -65.667 -62.5 -101s-25.5 -70.666 -25.5 -105.999c0 -22.667 4.66699 -45.667 14 -69s23 -42.666 41 -57.999s39.667 -23 65 -23z
M414.999 51c15.333 18 31.001 40.1689 47.001 66.502s29.333 53.666 40 81.999s16 54.166 16 77.499c0 16 -2.83301 32.167 -8.5 48.5s-14.334 29.833 -26.001 40.5s-26.834 16 -45.501 16c-17.333 0 -35.5 -6.16699 -54.5 -18.5s-36.667 -27 -53 -44
s-29.166 -32.5 -38.499 -46.5c11.333 -42.667 27 -82.5 47 -119.5s45.333 -71.167 76 -102.5z" />
    <glyph glyph-name="quotesingle" unicode="'" horiz-adv-x="218" 
d="M160 448c-4 0 -5.99902 1.66699 -5.99902 5c0 4 2.83301 10.167 8.5 18.5l18 26.5c6.33301 9.33301 10.5 17 12.5 23c7.33301 20 11.166 39 11.499 57s0.5 37.333 0.5 58c0 5.33301 1.66699 9.5 5 12.5s7.33301 4.5 12 4.5s9 -1.5 13 -4.5s6 -7.16699 6 -12.5
c0 -31.333 -5.5 -64.333 -16.5 -99s-29.167 -62.667 -54.5 -84c-1.33301 -0.666992 -2.83301 -1.66699 -4.5 -3s-3.5 -2 -5.5 -2z" />
    <glyph glyph-name="parenleft" unicode="(" horiz-adv-x="290" 
d="M197 -33c-6.66699 0 -12.668 3.33691 -18.001 10.0039c-29.333 36 -50.5 76 -63.5 120s-19.5 89 -19.5 135c0 22.667 1.33301 45.334 4 68.001s7 44.667 13 66c3.33301 13.333 9.66602 31.166 18.999 53.499s20.333 46.166 33 71.499s26.167 50 40.5 74
s28.833 44.833 43.5 62.5s28.334 29.834 41.001 36.501c4 1.33301 7 2 9 2c6 0 9 -2.66699 9 -8c0 -2 -0.666992 -4.33301 -2 -7s-2.66602 -4.66699 -3.99902 -6c-22 -26 -41 -49.833 -57 -71.5s-29.833 -43.334 -41.5 -65.001s-22.167 -45.167 -31.5 -70.5
s-18.666 -54.666 -27.999 -87.999c-4.66699 -16 -7.83398 -32.333 -9.50098 -49s-2.5 -33.334 -2.5 -50.001c0 -28.667 2.33301 -57 7 -85s11.667 -55.667 21 -83c1.33301 -4.66699 5 -12.334 11 -23.001l19.5 -33.5l18 -30.5c5 -8.66699 7.5 -13.334 7.5 -14.001
c0 -4.66699 -2 -8.33398 -6 -11.001s-8.33301 -4 -13 -4z" />
    <glyph glyph-name="parenright" unicode=")" horiz-adv-x="290" 
d="M69 -30c-7.33301 0 -11 3.33105 -11 9.99805c0 4 1.66699 7.66699 5 11c22 26 41 49.833 57 71.5s29.833 43.334 41.5 65.001s22.334 45.167 32.001 70.5s19.167 54.666 28.5 87.999c4.66699 16 7.83398 32.167 9.50098 48.5s2.5 32.833 2.5 49.5
c0 58 -9.66699 114.333 -29 169c-2 5.33301 -6 13.333 -12 24l-19 33.5l-17.5 30l-7.5 12.5c0 5.33301 2.5 9.33301 7.5 12s9.5 4 13.5 4c7.33301 0 13.666 -3.33301 18.999 -10c29.333 -35.333 50 -76.5 62 -123.5s18 -93.167 18 -138.5
c0 -21.333 -1.16699 -42.666 -3.5 -63.999s-6.5 -42.333 -12.5 -63c-2.66699 -9.33301 -9 -25.5 -19 -48.5s-22 -48.833 -36 -77.5s-28.833 -56.167 -44.5 -82.5s-30.834 -48.166 -45.501 -65.499s-27.667 -26 -39 -26z" />
    <glyph glyph-name="asterisk" unicode="*" horiz-adv-x="407" 
d="M276 337c-8 0 -12 4.33008 -12 12.9971l4 111c-2.66699 -2 -9 -6.16699 -19 -12.5l-32.5 -21.5l-31 -20.5c-9 -5.66699 -14.167 -8.5 -15.5 -8.5c-2.66699 0 -5.5 0.833008 -8.5 2.5s-4.5 3.83398 -4.5 6.50098c0 3.33301 4.5 9 13.5 17s19.667 16.667 32 26l35 26.5
l21.5 16.5c-6 0.666992 -12 1 -18 1h-17c-16 0 -31.333 -1.16699 -46 -3.5s-29.667 -4.5 -45 -6.5h-4c-7.33301 0 -11 4 -11 12c0 6 5.83301 10.667 17.5 14s25.667 5.5 42 6.5s31.5 1.5 45.5 1.5h21c6 0 10.333 -0.333008 13 -1c-1.33301 2 -4.33301 7 -9 15l-15.5 27
l-14.5 26l-6 11c0 8 4.33301 12 13 12c4 0 9.83301 -5.16699 17.5 -15.5s15.334 -21.333 23.001 -33l15.5 -23.5c0.666992 7.33301 1.16699 15 1.5 23s0.5 16 0.5 24c0 10.667 -0.166992 21.167 -0.5 31.5s-0.5 20.833 -0.5 31.5c0 8.66699 4 13 12 13
c8.66699 0 13 -4.33301 13 -13c0 -11.333 0.166992 -22.666 0.5 -33.999s0.5 -22.666 0.5 -33.999v-23.5c0 -7.66699 -0.666992 -15.167 -2 -22.5c2.66699 3.33301 8 9.33301 16 18l26.5 29c9.66699 10.667 18.334 19.667 26.001 27s12.5 11 14.5 11
c3.33301 0 6.16602 -1.16699 8.49902 -3.5s3.5 -5.16602 3.5 -8.49902c0 -2 -3.33301 -7.33301 -10 -16s-14.667 -18.5 -24 -29.5l-26 -30c-8 -9 -13.333 -14.833 -16 -17.5c19.333 -2.66699 38.833 -5.66699 58.5 -9s38.834 -7.33301 57.501 -12
c7.33301 -1.33301 11 -5.33301 11 -12c0 -2.66699 -0.833008 -5.33398 -2.5 -8.00098s-4.16699 -4 -7.5 -4c-16 0 -35.5 1.83301 -58.5 5.5s-43.167 6.5 -60.5 8.5c2 -2.66699 7 -9 15 -19l26 -32l24.5 -30.5c7 -9 10.5 -14.167 10.5 -15.5c0 -8.66699 -4.33301 -13 -13 -13
c-2.66699 0 -8 4.16699 -16 12.5s-16.833 18.333 -26.5 30l-27 33c-8.33301 10.333 -13.833 17.5 -16.5 21.5c-0.666992 -5.33301 -1.83398 -10.833 -3.50098 -16.5s-2.83398 -11.167 -3.50098 -16.5c-2 -14 -2.83301 -28.167 -2.5 -42.5s-0.166992 -28.5 -1.5 -42.5
c0 -8.66699 -4.33301 -13 -13 -13z" />
    <glyph glyph-name="plus" unicode="+" horiz-adv-x="547" 
d="M268 77c-10 0 -15 8.99902 -15 26.999c0 17.333 3.83301 39.5 11.5 66.5s15.834 53.5 24.501 79.5l-54 -9c-14.667 -2.66699 -29 -6 -43 -10s-27.667 -10 -41 -18c-2 -0.666992 -4 -1.5 -6 -2.5s-4 -1.5 -6 -1.5c-5.33301 0 -10.5 1.83301 -15.5 5.5s-7.5 8.5 -7.5 14.5
c0 6.66699 5.83301 12.834 17.5 18.501s26.834 10.667 45.501 15s38.667 8 60 11s42 5.5 62 7.5l14.5 36l9.5 23c9.33301 19.333 19.833 38.5 31.5 57.5s24.5 36.833 38.5 53.5l3 3c1.33301 1.33301 2.66602 2 3.99902 2c4.66699 0 5 -4.83301 1 -14.5
s-8.83301 -19.834 -14.5 -30.501s-9.5 -17.667 -11.5 -21c-16.667 -34.667 -31.334 -70 -44.001 -106c10.667 0.666992 19.834 1.16699 27.501 1.5s13.5 0.5 17.5 0.5c21.333 0 43.333 -1 66 -3s44.334 -5.66699 65.001 -11c1.33301 0 3 -0.5 5 -1.5s3 -2.16699 3 -3.5
c0 -2.66699 -2.83301 -4.5 -8.5 -5.5s-12.5 -1.5 -20.5 -1.5s-16 0.333008 -24 1s-13.667 1 -17 1c-20.667 0 -41.334 -0.666992 -62.001 -2s-41.667 -3.33301 -63 -6l-9.5 -31.5l-9.5 -31.5c-4 -14.667 -7.33301 -29.167 -10 -43.5s-3.33398 -29.166 -2.00098 -44.499v-3
c0 -5.33301 -2.33301 -10.5 -7 -15.5s-10 -7.5 -16 -7.5z" />
    <glyph glyph-name="comma" unicode="," horiz-adv-x="203" 
d="M20 -156c-2.66699 0 -4 1 -4 3c0 3.33301 3 9.5 9 18.5l21.5 32c8.33301 12.333 15.5 25.166 21.5 38.499s9 26 9 38c0 10 -2.16699 15.833 -6.5 17.5s-8.83301 3.83398 -13.5 6.50098s-7 9.66699 -7 21c0 10.667 4.33301 19 13 25s17.334 9 26.001 9
c13.333 0 22.333 -4.5 27 -13.5s7 -19.167 7 -30.5c0 -10 -3.33301 -23 -10 -39s-14.334 -31.667 -23.001 -47s-16 -27 -22 -35c-9.33301 -12.667 -20 -24.667 -32 -36c-2 -2 -4.33301 -3.83301 -7 -5.5s-5.66699 -2.5 -9 -2.5z" />
    <glyph glyph-name="hyphen" unicode="-" horiz-adv-x="419" 
d="M130 226c-4 0 -7.33301 0.999023 -10 2.99902s-4 6.33301 -4 13c0 8.66699 5.33301 15.667 16 21s24 9.33301 40 12s31.667 4.5 47 5.5s27.333 1.5 36 1.5c20.667 0 41.667 -2 63 -6s42 -9.66699 62 -17c0.666992 0 2.33398 -0.5 5.00098 -1.5s4 -2.16699 4 -3.5
c0 -8.66699 -7 -13 -21 -13c-4 0 -9.33301 1 -16 3s-17.834 3.83301 -33.501 5.5s-39.5 2.5 -71.5 2.5c-24.667 0 -44.667 -2.16699 -60 -6.5s-27.333 -8.66602 -36 -12.999s-15.667 -6.5 -21 -6.5z" />
    <glyph glyph-name="period" unicode="." horiz-adv-x="203" 
d="M87 -11c-10 0 -18.167 3.33301 -24.5 10s-9.5 15 -9.5 25s3.16699 18.333 9.5 25s14.5 10 24.5 10s18.333 -3.33301 25 -10s10 -15 10 -25s-3.33301 -18.333 -10 -25s-15 -10 -25 -10z" />
    <glyph glyph-name="slash" unicode="/" horiz-adv-x="689" 
d="M80 -47c-4 0 -7.66797 1.66602 -11.001 4.99902s-5 7 -5 11c0 3.33301 1.33301 7 4 11c14.667 16 29.834 31.667 45.501 47l45.5 45l185 185l271 271l63 64.5l63 63.5c3.33301 3.33301 7.33301 5 12 5c4 0 7.83301 -1.5 11.5 -4.5s5.5 -6.83301 5.5 -11.5
c0 -3.33301 -1.66699 -6.66602 -5 -9.99902l-88 -90.5l-90 -89.5l-248 -248l-248 -249h1c-3.33301 -3.33301 -7.33301 -5 -12 -5z" />
    <glyph glyph-name="zero" unicode="0" horiz-adv-x="593" 
d="M209 -24c-35.333 0 -66.333 8.83398 -93 26.501s-47.5 41 -62.5 70s-22.5 60.167 -22.5 93.5c0 15.333 1.33301 28.666 4 39.999c16 68 43.333 129.667 82 185s89.334 99.333 152.001 132c18 9.33301 39 18 63 26s46.333 12 67 12c29.333 0 57.5 -6.33301 84.5 -19
s51.167 -29.834 72.5 -51.501s38.166 -46.167 50.499 -73.5s18.5 -55.666 18.5 -84.999c0 -9.33301 -0.666992 -18.5 -2 -27.5s-3.33301 -18.167 -6 -27.5c-4 -18 -10.667 -35.667 -20 -53s-19.666 -33 -30.999 -47c-25.333 -34 -56.333 -65.5 -93 -94.5
s-76.167 -53 -118.5 -72s-85.5 -30.5 -129.5 -34.5v1c-2.66699 -0.666992 -5.33398 -1 -8.00098 -1h-8zM208 8.00098c30 0 62.0039 6.16992 96.0039 18.5029s67.667 29.333 101 51s63.666 46.667 90.999 75s49.166 58.166 65.499 89.499s24.5 63 24.5 95
s-8.5 62.667 -25.5 92s-39.333 53.166 -67 71.499s-57.834 27.5 -90.501 27.5c-18.667 0 -38.834 -3.83301 -60.501 -11.5s-40.5 -15.5 -56.5 -23.5c-58.667 -30.667 -105.667 -72.167 -141 -124.5s-60.333 -110.5 -75 -174.5c-1.33301 -6 -2.33301 -12 -3 -18
s-1 -12 -1 -18c0 -42.667 12.833 -78.334 38.5 -107.001s60.167 -43 103.5 -43z" />
    <glyph glyph-name="one" unicode="1" horiz-adv-x="265" 
d="M43 -22c-3.33301 0 -8.00195 1.16699 -14.002 3.5s-9 6.16602 -9 11.499c0 2 1.66699 7 5 15l10.5 24c3.66699 8 5.83398 13.333 6.50098 16l22 47.5l21 46.5l71.5 147c24.333 48.667 49.833 96.334 76.5 143.001c-9.33301 -7.33301 -18.333 -14.833 -27 -22.5l-26 -23.5
c-2 -2 -4.33301 -3 -7 -3s-7.16699 1.33301 -13.5 4s-9.5 6.33398 -9.5 11.001c0 3.33301 3.66699 9 11 17s16.333 16.5 27 25.5l30.5 25.5c9.66699 8 16.834 13.667 21.501 17c5.33301 4.66699 10.166 8.66699 14.499 12s7.16602 5.66602 8.49902 6.99902
c4 4 7.83301 8.33301 11.5 13s7.5 9 11.5 13l27.5 31.5l26.5 31.5c2 2 4.33301 3 7 3c4.66699 0 9.83398 -2.33301 15.501 -7s8.5 -9.66699 8.5 -15c0 -0.666992 -0.166992 -1.16699 -0.5 -1.5s-0.5 -0.833008 -0.5 -1.5c-4.66699 -10 -11.5 -20.333 -20.5 -31
s-17.833 -19.667 -26.5 -27c-2.66699 -2 -5 -4.33301 -7 -7c-0.666992 -0.666992 -2.5 -3.33398 -5.5 -8.00098l-8.5 -13.5c-2.66699 -4.33301 -4.33398 -6.83301 -5.00098 -7.5c-20.667 -34 -40.667 -69 -60 -105l-75.5 -146
c-24.333 -49.333 -46.833 -99.666 -67.5 -150.999l-10 -26l-10 -27c-1.33301 -4.66699 -2.66602 -9.66699 -3.99902 -15s-3 -10 -5 -14c-3.33301 -8.66699 -10.666 -13 -21.999 -13z" />
    <glyph glyph-name="two" unicode="2" horiz-adv-x="546" 
d="M341 -23c-38.667 0 -77.0029 3.33008 -115.003 9.99707s-75.333 14.667 -112 24c-14.667 -7.33301 -29.834 -13.666 -45.501 -18.999s-31.5 -8 -47.5 -8c-8 0 -17.333 1.66699 -28 5s-20.167 8.5 -28.5 15.5s-12.5 15.833 -12.5 26.5c0 14 6.33301 24 19 30
s24.334 9 35.001 9c6.66699 0 14.5 -0.833008 23.5 -2.5s18.167 -4.16699 27.5 -7.5l27 -8l23 -7l4 2l4 3l101 65.5c36 24.333 71.667 50.5 107 78.5s68 57.167 98 87.5s54.333 61.5 73 93.5c8.66699 14.667 17.167 31.834 25.5 51.501s12.5 37.834 12.5 54.501
c0 22 -8.16699 37.5 -24.5 46.5s-34.833 13.5 -55.5 13.5c-24.667 0 -49.667 -4.5 -75 -13.5s-49.333 -20.833 -72 -35.5s-42.667 -30.667 -60 -48c-8 -8 -15.5 -16.333 -22.5 -25l-21.5 -27c-3.33301 -4.66699 -7.66602 -7 -12.999 -7c-4.66699 0 -8.66699 1.66699 -12 5
s-5 7.33301 -5 12c0 1.33301 0.333008 3 1 5s1.33398 3.33301 2.00098 4c20 28.667 45 55.334 75 80.001s62.833 44.5 98.5 59.5s71.167 22.5 106.5 22.5c28.667 0 53.834 -7.16699 75.501 -21.5s32.5 -37.5 32.5 -69.5c0 -20.667 -4.33301 -42.167 -13 -64.5
s-18.334 -42.166 -29.001 -59.499c-18 -30.667 -41.5 -61.334 -70.5 -92.001s-60.667 -60.167 -95 -88.5s-69 -54.666 -104 -78.999s-67.833 -45.833 -98.5 -64.5c30.667 -6.66699 61.5 -12.5 92.5 -17.5s61.833 -7.5 92.5 -7.5c8.66699 0 20.834 0.333008 36.501 1
s31.834 2.66699 48.501 6s30.5 8.66602 41.5 15.999s16.167 17.333 15.5 30v7c0 4.66699 1.5 8.66699 4.5 12s7.16699 5 12.5 5c7.33301 0 11.666 -2.5 12.999 -7.5s2 -10.167 2 -15.5c0 -20 -6.16699 -35.667 -18.5 -47s-27.833 -19.833 -46.5 -25.5
s-37.5 -9.33398 -56.5 -11.001s-35.167 -2.5 -48.5 -2.5zM19.9971 15.9971c7.33301 0 14.501 0.833008 21.501 2.5s13.833 3.83398 20.5 6.50098l-21 7l-15.5 4c-5 1.33301 -9.16699 2 -12.5 2c-2.66699 0 -6.83398 -0.666992 -12.501 -2s-8.5 -4 -8.5 -8
c0 -4.66699 3.83301 -7.83398 11.5 -9.50098s13.167 -2.5 16.5 -2.5z" />
    <glyph glyph-name="three" unicode="3" horiz-adv-x="525" 
d="M128 -32c-22 0 -43.668 2.00195 -65.001 6.00195c-20.667 4 -38.334 12.833 -53.001 26.5s-22 31.834 -22 54.501c0 6 1.5 13.333 4.5 22s7.33301 16.5 13 23.5s12.5 10.5 20.5 10.5c7.33301 0 11 -3.66699 11 -11c0 -6.66699 -2.66699 -13 -8 -19s-8 -15 -8 -27
c0 -16.667 5.66699 -29 17 -37s25 -13 41 -15s30.667 -3 44 -3c20 0 39.833 1.66699 59.5 5s39.167 7.66602 58.5 12.999c18 5.33301 38.833 13.333 62.5 24s46.334 23.667 68.001 39s39.667 33.333 54 54s21.5 43.667 21.5 69c0 16.667 -3.33301 30.834 -10 42.501
s-18 19.5 -34 23.5c-14.667 -7.33301 -33 -15.5 -55 -24.5s-41.333 -13.5 -58 -13.5c-4.66699 0 -12.167 1 -22.5 3s-15.5 6.33301 -15.5 13c0 1.33301 0.166992 2.33301 0.5 3s0.5 1.33398 0.5 2.00098c4 12 9.33301 20.333 16 25s16 8.66699 28 12
c14.667 4 31 7.66699 49 11s34.667 4.33301 50 3c20 13.333 40.833 28.833 62.5 46.5s40.167 37.5 55.5 59.5s23 46 23 72c0 25.333 -7.83301 41.5 -23.5 48.5s-34.5 10.5 -56.5 10.5c-30.667 0 -60.167 -6.83301 -88.5 -20.5s-53.166 -31.167 -74.499 -52.5
c-4.66699 -4.66699 -7.66699 -8.83398 -9 -12.501s-3.33301 -8.16699 -6 -13.5c-2.66699 -4.66699 -6.16699 -9.33398 -10.5 -14.001s-12.166 -9.66699 -23.499 -15c-2.66699 -2 -6.33398 -3 -11.001 -3s-9.5 1.33301 -14.5 4s-7.5 7 -7.5 13c0 2.66699 1.33301 6 4 10
c28.667 39.333 63.334 71.166 104.001 95.499s85.667 36.5 135 36.5c18.667 0 37.167 -2 55.5 -6s33.666 -12 45.999 -24s18.5 -30 18.5 -54c0 -25.333 -7.66699 -50.333 -23 -75s-33.833 -47.167 -55.5 -67.5s-42.167 -37.833 -61.5 -52.5c34 -18 51 -47 51 -87
c0 -32.667 -8.66699 -61.834 -26 -87.501s-40 -47.667 -68 -66s-58.167 -33.5 -90.5 -45.5s-63.833 -20.833 -94.5 -26.5s-57 -8.5 -79 -8.5z" />
    <glyph glyph-name="four" unicode="4" horiz-adv-x="512" 
d="M254 -22c-3.33301 0 -7.99609 1.16504 -13.9961 3.49805s-9 5.83301 -9 10.5c0 2.66699 3 11.334 9 26.001l21.5 51l24 54.5c7.66699 17 13.167 28.833 16.5 35.5c-59.333 2.66699 -118.666 11.334 -177.999 26.001c-5.33301 -2.66699 -11.333 -5.5 -18 -8.5
s-13.334 -4.5 -20.001 -4.5c-5.33301 0 -13.166 2 -23.499 6s-15.5 9.33301 -15.5 16c0 9.33301 5.33301 16.666 16 21.999s19.334 8 26.001 8h6c2 0 4 -0.333008 6 -1l181.5 140c61.667 45.333 121.834 92.333 180.501 141c12.667 10.667 24.667 22 36 34s23.333 23 36 33
c2.66699 1.33301 5 2 7 2c4.66699 0 9.83398 -2.16699 15.501 -6.5s8.5 -9.16602 8.5 -14.499c0 -6.66699 -5.16699 -15 -15.5 -25s-17.833 -18 -22.5 -24c-4.66699 -4.66699 -9.33398 -10.834 -14.001 -18.501l-15 -24.5l-14 -25l-12 -21
c-20.667 -36 -40.334 -72.5 -59.001 -109.5l-56 -113.5c15.333 0 32.666 1.33301 51.999 4s36.166 7.83398 50.499 15.501s21.5 18.5 21.5 32.5c0 1.33301 -0.166992 2.5 -0.5 3.5s-0.5 1.83301 -0.5 2.5c0 12 6 18 18 18c7.33301 0 11.666 -2.66699 12.999 -8
s2 -10.666 2 -15.999c0 -20 -6.33301 -35.667 -19 -47s-28.334 -19.833 -47.001 -25.5s-37.5 -9.33398 -56.5 -11.001s-35.167 -2.5 -48.5 -2.5l-26.5 -57.5c-9 -19.667 -17.167 -39.5 -24.5 -59.5c-2.66699 -7.33301 -5.33398 -15.833 -8.00098 -25.5
s-5.33398 -17.5 -8.00098 -23.5c-2 -4.66699 -5 -8 -9 -10s-8.33301 -3 -13 -3zM315.004 190.998c21.333 46 44 91.6689 68 137.002s50.333 89 79 131c-50.667 -42.667 -103.5 -82.834 -158.5 -120.501s-108.5 -78.834 -160.5 -123.501c28 -6.66699 56.333 -12.167 85 -16.5
s57.667 -6.83301 87 -7.5z" />
    <glyph glyph-name="five" unicode="5" horiz-adv-x="520" 
d="M462 481c-26 0 -51.1699 2.83398 -75.5029 8.50098s-48.833 11.834 -73.5 18.501c-2.66699 -1.33301 -7.66699 -4 -15 -8s-12.666 -6 -15.999 -6c-4 0 -9.83301 1.66699 -17.5 5s-11.5 8.33301 -11.5 15c0 10.667 5.83301 18.167 17.5 22.5s20.834 6.5 27.501 6.5
c5.33301 0 10.333 -0.5 15 -1.5s9.33398 -2.16699 14.001 -3.5c17.333 -5.33301 38 -10.833 62 -16.5s45 -8.5 63 -8.5c8.66699 0 20.667 0.5 36 1.5s31 3.16699 47 6.5s29.333 8.5 40 15.5s15.667 16.5 15 28.5v8c0 10.667 5.66699 16 17 16c8 0 12.667 -4.33301 14 -13
c0.666992 -2 1 -5 1 -9c0 -18.667 -5.83301 -33.834 -17.5 -45.501s-26 -20.334 -43 -26.001s-34.5 -9.5 -52.5 -11.5s-33.667 -3 -47 -3zM122.997 -31.999c-18.667 0 -38.834 1.83008 -60.501 5.49707s-40.334 11.834 -56.001 24.501s-23.5 31.667 -23.5 57
c0 6 1.5 13.333 4.5 22s7.5 16.5 13.5 23.5s12.667 10.5 20 10.5s11 -3.66699 11 -11c0 -6.66699 -2.66699 -13 -8 -19s-8 -15 -8 -27c0 -16.667 5.66699 -29 17 -37s25 -13 41 -15s30.667 -3 44 -3c20 0 39.833 1.66699 59.5 5s38.834 7.66602 57.501 12.999
s39.834 13.333 63.501 24s46.334 23.834 68.001 39.501s39.667 33.834 54 54.501s21.5 43.667 21.5 69c0 30 -8.5 54.333 -25.5 73s-40.833 28 -71.5 28c-20.667 0 -39.834 -3.66699 -57.501 -11s-33.834 -15.333 -48.501 -24l-40 -24l-16.5 -7.5
c-5 -2.33301 -9.83301 -3.5 -14.5 -3.5c-4 0 -9.5 1.33301 -16.5 4s-10.5 7.33398 -10.5 14.001c0 4 1.5 7.33301 4.5 10s5.83301 5 8.5 7c18.667 41.333 37.334 78.666 56.001 111.999s43.334 66.333 74.001 99c3.33301 3.33301 7.33301 5 12 5s8.66699 -1.66699 12 -5
s5 -7.33301 5 -12c0 -3.33301 -1.33301 -7 -4 -11c-6.66699 -8.66699 -13.667 -17 -21 -25s-14.333 -16.667 -21 -26c-14.667 -19.333 -27.5 -39.5 -38.5 -60.5s-21.5 -42.5 -31.5 -64.5l3 1c22 14.667 46.167 26.834 72.5 36.501s52.833 14.5 79.5 14.5
c39.333 0 70.666 -11.333 93.999 -34s35 -54 35 -94c0 -32 -8.16699 -60.667 -24.5 -86s-37.833 -47.5 -64.5 -66.5s-56 -34.833 -88 -47.5s-63.833 -22.167 -95.5 -28.5s-60.167 -9.5 -85.5 -9.5z" />
    <glyph glyph-name="six" unicode="6" horiz-adv-x="460" 
d="M157 -50c-40.667 0 -73.999 9.8291 -99.999 29.4961s-39 51.167 -39 94.5c0 36 8.66699 72.167 26 108.5s40.833 72 70.5 107s63 68.333 100 100s75.5 60.334 115.5 86.001s79 47.334 117 65.001s72.333 30.5 103 38.5h4c6 0 10.667 -2.5 14 -7.5s5 -9.83301 5 -14.5
c0 -7.33301 -3 -13 -9 -17c-14 -7.33301 -28.667 -11.666 -44 -12.999s-30 -4.66602 -44 -9.99902c-29.333 -12 -62.666 -29.333 -99.999 -52s-74.833 -49 -112.5 -79s-72.5 -62.167 -104.5 -96.5s-57.833 -69.5 -77.5 -105.5s-29.5 -71.333 -29.5 -106
c0 -32 9.16699 -56.667 27.5 -74s43.5 -26 75.5 -26h10c3.33301 0 6.33301 0.333008 9 1c-5.33301 8.66699 -9 18 -11 28s-3 19.667 -3 29c0 10 1.16699 20.5 3.5 31.5s6.16602 20.833 11.499 29.5c10.667 18 24.167 35.667 40.5 53s34.666 31.666 54.999 42.999
s41.833 17 64.5 17c19.333 0 36 -5.16699 50 -15.5s21 -26.166 21 -47.499c0 -20.667 -6.83301 -41 -20.5 -61s-27.167 -36.667 -40.5 -50c-24.667 -24.667 -53.167 -45.167 -85.5 -61.5s-66.5 -24.5 -102.5 -24.5zM214.001 -11.0039c20 7.33301 38.667 17.668 56 31.001
s33.333 28 48 44c9.33301 10.667 19.833 24.167 31.5 40.5s17.5 31.833 17.5 46.5c0 9.33301 -3 16.166 -9 20.499s-13.667 6.5 -23 6.5c-17.333 0 -34.5 -5.16699 -51.5 -15.5s-32.5 -23 -46.5 -38s-25.333 -29.833 -34 -44.5c-4.66699 -7.33301 -8.16699 -16 -10.5 -26
s-3.5 -19.667 -3.5 -29c0 -6 0.666992 -11.667 2 -17s5 -9.33301 11 -12l4 -2c4 -1.33301 6.66699 -3 8 -5z" />
    <glyph glyph-name="seven" unicode="7" horiz-adv-x="409" 
d="M143 -24c-4.66699 0 -9.66406 1.49902 -14.9971 4.49902s-8 7.83301 -8 14.5c0 20.667 6 44.834 18 72.501s26.833 56.167 44.5 85.5s35.5 57 53.5 83l45 65c26 38 53.5 74.333 82.5 109s59.5 68 91.5 100c-8.66699 -4 -17.667 -6.83301 -27 -8.5s-19 -2.5 -29 -2.5
c-21.333 0 -42.5 2.5 -63.5 7.5l-62.5 14.5c-20.667 4.66699 -42 7 -64 7c-20.667 0 -37 -3.16699 -49 -9.5s-22.667 -20.166 -32 -41.499c-2.66699 -4.66699 -4.83398 -9.66699 -6.50098 -15s-3.5 -10 -5.5 -14c-2 -3.33301 -4.33301 -6.5 -7 -9.5s-5.66699 -4.5 -9 -4.5
c-7.33301 0 -12.5 2.16699 -15.5 6.5s-4.5 9.16602 -4.5 14.499c0 19.333 7.16699 37.666 21.5 54.999s28.5 31.333 42.5 42c6.66699 5.33301 13.334 8.5 20.001 9.5s14 1.5 22 1.5c13.333 0 27 -1 41 -3s27.667 -4.33301 41 -7l70 -11.5
c23.333 -3.66699 46.666 -5.5 69.999 -5.5c22 0 42.333 2.33301 61 7s37 13.334 55 26.001c2.66699 1.33301 5 2 7 2c4.66699 0 9.16699 -2 13.5 -6s6.5 -8.33301 6.5 -13l-1 -5c-10.667 -12.667 -22.834 -24.5 -36.501 -35.5l-40.5 -32.5l-86.5 -95
c-29 -32 -55.5 -65.667 -79.5 -101l-40 -59.5c-15.333 -23 -30.5 -47.5 -45.5 -73.5s-27.833 -51.5 -38.5 -76.5s-17.334 -47.833 -20.001 -68.5v-6.5c0 -2.33301 -0.333008 -4.83301 -1 -7.5c-2 -10 -8.33301 -15 -19 -15z" />
    <glyph glyph-name="eight" unicode="8" horiz-adv-x="494" 
d="M200 -32c-13.333 0 -29 1.16699 -47 3.5s-35.167 6.5 -51.5 12.5s-29.5 14.333 -39.5 25c-8.66699 10 -16.834 21.167 -24.501 33.5s-11.5 25.5 -11.5 39.5c0 16 5.66699 32.833 17 50.5s26 35.334 44 53.001s37.167 34.667 57.5 51s39.833 31.166 58.5 44.499l46 32
c-16 17.333 -28.167 34.833 -36.5 52.5s-12.5 38.5 -12.5 62.5c0 5.33301 0.166992 11 0.5 17s0.833008 11.667 1.5 17c4.66699 26.667 15.834 50.167 33.501 70.5s39.167 36.333 64.5 48s50.666 17.5 75.999 17.5c20.667 0 41 -3.83301 61 -11.5s37.333 -18.5 52 -32.5
c4.66699 -4 9.66699 -9.33301 15 -16s8 -13.667 8 -21c0 -8 -3.33301 -12 -10 -12c-2.66699 0 -8 3.33301 -16 10c-2.66699 2.66699 -6 5.83398 -10 9.50098s-8.66699 7.16699 -14 10.5c-9.33301 7.33301 -20.666 14.166 -33.999 20.499s-29.666 9.5 -48.999 9.5
c-20.667 0 -41.167 -4.5 -61.5 -13.5s-37.5 -21.833 -51.5 -38.5s-22.333 -36 -25 -58c-0.666992 -6 -1.16699 -12 -1.5 -18s-0.5 -12.333 -0.5 -19c0 -18.667 3 -34.334 9 -47.001s15.667 -25.334 29 -38.001l61.5 41l61.5 40c23.333 15.333 46.833 32.5 70.5 51.5
s45 40.333 64 64s32.833 48.834 41.5 75.501c1.33301 5.33301 3.66602 10.833 6.99902 16.5s8.33301 8.5 15 8.5c6 0 10 -2.5 12 -7.5s3 -9.16699 3 -12.5c0 -4 -0.333008 -7 -1 -9c-3.33301 -19.333 -12.5 -39.333 -27.5 -60s-32.667 -40.834 -53 -60.501
s-40.833 -37.5 -61.5 -53.5s-38.667 -28.667 -54 -38l-57.5 -36.5l-57.5 -37.5l58 -46.5c20 -16.333 36.833 -34.666 50.5 -54.999s20.5 -43.833 20.5 -70.5c0 -25.333 -6.83301 -48.5 -20.5 -69.5s-30.834 -39.167 -51.501 -54.5s-42 -27.333 -64 -36
c-14.667 -5.33301 -30.167 -9.16602 -46.5 -11.499s-32.166 -3.5 -47.499 -3.5zM195 -2c14.667 0 29.502 1.33301 44.502 4s28.833 6.33398 41.5 11.001c18 7.33301 36 17.166 54 29.499s32.833 27 44.5 44s17.5 35.833 17.5 56.5c0 23.333 -7 42.833 -21 58.5
s-30.167 30 -48.5 43s-34.5 26.5 -48.5 40.5l-9 8l-55.5 -40c-23 -16.667 -45.833 -35.167 -68.5 -55.5s-41.834 -41 -57.501 -62s-23.5 -40.833 -23.5 -59.5c0 -13.333 4 -25 12 -35c13.333 -16.667 31.166 -28 53.499 -34s43.833 -9 64.5 -9z" />
    <glyph glyph-name="nine" unicode="9" horiz-adv-x="451" 
d="M26 -55c-6.66699 0 -12 3 -16 9s-6 11.333 -6 16c0 6.66699 2.33301 11.334 7 14.001c13.333 8 27.333 12.167 42 12.5s28.667 3.5 42 9.5c28 12.667 57.833 29.5 89.5 50.5s62.834 45.333 93.501 73s58.5 57.334 83.5 89.001s45 64.167 60 97.5s22.5 66.333 22.5 99
c0 38.667 -10.833 70.167 -32.5 94.5s-52.5 36.5 -92.5 36.5c-23.333 0 -46.166 -5.66699 -68.499 -17s-42.333 -26.166 -60 -44.499s-31.834 -38.833 -42.501 -61.5s-16 -45.334 -16 -68.001c0 -24.667 7.33301 -46.334 22 -65.001s34.667 -28 60 -28
c23.333 0 42.666 6.33301 57.999 19s30.333 27.334 45 44.001c2.66699 3.33301 5.83398 6.33301 9.50098 9s8.16699 4 13.5 4c3.33301 0 6.5 -1.16699 9.5 -3.5s4.5 -5.83301 4.5 -10.5c0 -2.66699 -0.833008 -5.5 -2.5 -8.5s-3.16699 -5.83301 -4.5 -8.5
c-15.333 -20.667 -35 -39.167 -59 -55.5s-49.667 -24.5 -77 -24.5c-23.333 0 -43.666 6 -60.999 18s-30.833 27.667 -40.5 47s-14.5 40 -14.5 62c0 27.333 6.33301 54.166 19 80.499s29.667 50.166 51 71.499s45.166 38.333 71.499 51s53.166 19 80.499 19
c49.333 0 88.333 -14.5 117 -43.5s43 -68.167 43 -117.5c0 -40 -9.66699 -80.5 -29 -121.5s-45 -80.333 -77 -118s-67.667 -72.167 -107 -103.5s-79.333 -58 -120 -80s-78.667 -37.667 -114 -47h-4z" />
    <glyph glyph-name="colon" unicode=":" horiz-adv-x="203" 
d="M128 188c-9.33301 0 -17.5 3.5 -24.5 10.5s-10.5 15.167 -10.5 24.5s3.5 17.5 10.5 24.5s15.167 10.5 24.5 10.5s17.5 -3.5 24.5 -10.5s10.5 -15.167 10.5 -24.5s-3.5 -17.5 -10.5 -24.5s-15.167 -10.5 -24.5 -10.5zM77 0c-9.33301 0 -17.333 3.66699 -24 11
s-10 15.666 -10 24.999s3.33301 17.333 10 24s14.667 10 24 10s17.5 -3.33301 24.5 -10s10.5 -14.667 10.5 -24s-3.5 -17.666 -10.5 -24.999s-15.167 -11 -24.5 -11z" />
    <glyph glyph-name="semicolon" unicode=";" horiz-adv-x="203" 
d="M128 188c-9.33301 0 -17.5 3.5 -24.5 10.5s-10.5 15.167 -10.5 24.5s3.5 17.5 10.5 24.5s15.167 10.5 24.5 10.5s17.5 -3.5 24.5 -10.5s10.5 -15.167 10.5 -24.5s-3.5 -17.5 -10.5 -24.5s-15.167 -10.5 -24.5 -10.5zM-10 -98c-6 0 -9 1.33496 -9 4.00195c0 4 5 10 15 18
c22.667 18 38.667 32.833 48 44.5s14 22.834 14 33.501c0 5.33301 -1 10.666 -3 15.999s-4.66699 11.333 -8 18c-2.66699 5.33301 -1.16699 11.166 4.5 17.499s12.5 9.5 20.5 9.5c9.33301 0 17 -3.83301 23 -11.5s9 -15.834 9 -24.501c0 -10 -3.66699 -21 -11 -33
s-16.333 -24 -27 -36s-21.5 -22.667 -32.5 -32s-20.167 -16.333 -27.5 -21c-4 -2 -9.33301 -3 -16 -3z" />
    <glyph glyph-name="less" unicode="&#x3c;" horiz-adv-x="310" 
d="M310 444c4 4 8.33398 6.00098 13.001 6.00098c10.667 0 16 -5 16 -15c0 -6 -2.66699 -11.667 -8 -17c-31.333 -32.667 -63.333 -64.334 -96 -95.001l-103 -93l56.5 -93.5c19 -32.333 35.833 -63.5 50.5 -93.5c1.33301 -2.66699 2 -6.33398 2 -11.001
c0 -5.33301 -1.5 -10 -4.5 -14s-6.5 -6 -10.5 -6c-6.66699 0 -12.334 5 -17.001 15c-14.667 31.333 -30.5 62.333 -47.5 93l-53.5 92c-2 4 -3.66699 7.83301 -5 11.5s-2 7.16699 -2 10.5c0 6 3 12 9 18c36.667 32 71.5 63.833 104.5 95.5s64.833 63.834 95.5 96.501z" />
    <glyph glyph-name="equal" unicode="=" horiz-adv-x="384" 
d="M125 226c-6.66699 0 -14.667 2.33301 -24 7s-14 12 -14 22c0 4 1.5 7.83301 4.5 11.5s6.83301 5.5 11.5 5.5c5.33301 0 9.33301 -2 12 -6s6.66699 -6 12 -6c25.333 0 50.666 2 75.999 6s50.666 6 75.999 6c14 0 27.333 -1 40 -3c9.33301 -2 14 -8 14 -18
c0 -3.33301 -1.16699 -6.83301 -3.5 -10.5s-6.16602 -5.5 -11.499 -5.5c-6.66699 0 -13.667 0.666992 -21 2s-14.666 2 -21.999 2c-24.667 0 -49.5 -2.16699 -74.5 -6.5s-50.167 -6.5 -75.5 -6.5zM125 119c-6.66699 0 -14.666 2.33301 -23.999 7s-14 12 -14 22
c0 4 1.5 7.83301 4.5 11.5s6.83301 5.5 11.5 5.5c5.33301 0 9.33301 -2 12 -6s6.66699 -6 12 -6c25.333 0 50.666 2.16699 75.999 6.5s50.666 6.5 75.999 6.5c15.333 0 28.666 -1.33301 39.999 -4c9.33301 -2 14 -8 14 -18c0 -3.33301 -1.16699 -6.83301 -3.5 -10.5
s-6.16602 -5.5 -11.499 -5.5c-6.66699 0 -13.667 0.666992 -21 2s-14.666 2 -21.999 2c-24.667 0 -49.5 -2.16699 -74.5 -6.5s-50.167 -6.5 -75.5 -6.5z" />
    <glyph glyph-name="greater" unicode="&#x3e;" horiz-adv-x="310" 
d="M67 18c-4 -4 -8.33398 -6 -13.001 -6c-10.667 0 -16 5 -16 15c0 6 2.66699 11.667 8 17c31.333 33.333 63.333 65.333 96 96s67 61.334 103 92.001l-56.5 93.5c-19 32.333 -35.833 63.5 -50.5 93.5c-1.33301 2.66699 -2 6.33398 -2 11.001c0 5.33301 1.5 10 4.5 14
s6.5 6 10.5 6c6.66699 0 12.334 -5 17.001 -15c14.667 -30.667 30.5 -61.334 47.5 -92.001l53.5 -93c2 -4 3.66699 -7.83301 5 -11.5s2 -7.16699 2 -10.5c0 -6 -3 -12 -9 -18c-36.667 -32 -71.5 -63.833 -104.5 -95.5s-64.833 -63.834 -95.5 -96.501z" />
    <glyph glyph-name="question" unicode="?" horiz-adv-x="486" 
d="M224 189c-8.66699 0 -15.667 4.16602 -21 12.499s-8 16.166 -8 23.499c0 14.667 5.66699 28.5 17 41.5s24.833 24.5 40.5 34.5s29.167 17.667 40.5 23c15.333 6.66699 33.333 15.167 54 25.5s40.667 22.5 60 36.5s35.5 29.5 48.5 46.5s19.5 35.5 19.5 55.5
c0 26 -6.83301 47.667 -20.5 65s-31.167 30.333 -52.5 39s-43.666 13 -66.999 13c-10.667 0 -23.834 -1.66699 -39.501 -5s-30.834 -8.16602 -45.501 -14.499s-27 -14.5 -37 -24.5s-15 -21.667 -15 -35c0 -11.333 2.5 -19.5 7.5 -24.5s10 -9.16699 15 -12.5
s7.5 -7.66602 7.5 -12.999c0 -3.33301 -1.33301 -6.66602 -4 -9.99902s-6 -5 -10 -5c-7.33301 0 -14.833 4.16699 -22.5 12.5s-13.167 15.833 -16.5 22.5c-2 4 -3.33301 8.5 -4 13.5s-1 9.83301 -1 14.5c0 19.333 5.5 36 16.5 50s25 25.333 42 34s35 15.167 54 19.5
s36.5 6.5 52.5 6.5c28.667 0 55.834 -5.66699 81.501 -17s46.667 -27.833 63 -49.5s24.5 -48.167 24.5 -79.5c0 -22.667 -6.83301 -43.834 -20.5 -63.501s-31 -37.667 -52 -54s-42.833 -30.5 -65.5 -42.5s-43 -22 -61 -30c-6.66699 -3.33301 -16.5 -8.83301 -29.5 -16.5
s-24.833 -16.5 -35.5 -26.5s-16 -19.667 -16 -29c0 -5.33301 2.33301 -9 7 -11s7 -6 7 -12c0 -4 -1.5 -7.33301 -4.5 -10s-6.16699 -4 -9.5 -4zM186 -11.001c-9.33301 0 -17.5 3.5 -24.5 10.5s-10.5 15.167 -10.5 24.5s3.5 17.5 10.5 24.5s15.167 10.5 24.5 10.5
s17.5 -3.5 24.5 -10.5s10.5 -15.167 10.5 -24.5s-3.5 -17.5 -10.5 -24.5s-15.167 -10.5 -24.5 -10.5z" />
    <glyph glyph-name="at" unicode="@" horiz-adv-x="849" 
d="M434 -132c-56 0 -105.334 8.83594 -148.001 26.5029s-78.667 41.667 -108 72s-51.333 64.833 -66 103.5s-22 79 -22 121c0 58 14.333 115.667 43 173s72.334 106.666 131.001 147.999c33.333 24 65.333 43.167 96 57.5s62.5 24.666 95.5 30.999s70.167 9.5 111.5 9.5
c63.333 0 114 -9.16699 152 -27.5s65.5 -42.5 82.5 -72.5s25.5 -62.667 25.5 -98c0 -37.333 -8.33301 -76.333 -25 -117c4 -14.667 6.83301 -28.834 8.5 -42.501s2.5 -27.167 2.5 -40.5c0 -41.333 -7.83301 -79.833 -23.5 -115.5s-36.667 -67.5 -63 -95.5s-56 -52 -89 -72
s-67 -35.167 -102 -45.5s-68.833 -15.5 -101.5 -15.5zM433.999 -105.997c37.333 0 76.333 7.83008 117 23.4971s78.834 37.834 114.501 66.501s64.667 62.834 87 102.501s33.5 83.5 33.5 131.5c0 12.667 -1 25.334 -3 38.001c-46.667 -68 -92 -118 -136 -150
s-79.667 -48 -107 -48c-16 0 -28.667 5.16699 -38 15.5s-14 25.5 -14 45.5c0 9.33301 1.16699 19.166 3.5 29.499s4.5 19.166 6.5 26.499l-4 3c-6 -6.66699 -15 -15.834 -27 -27.501s-25.333 -23.167 -40 -34.5s-29.167 -21 -43.5 -29s-27.166 -12 -38.499 -12
c-22 0 -37.333 5.83301 -46 17.5s-13 25.834 -13 42.501c0 16 2.66699 32.667 8 50s11.333 33.333 18 48s12 25.667 16 33c11.333 20.667 24.666 40.834 39.999 60.501s31.666 36.834 48.999 51.501s35.166 26.334 53.499 35.001s36.833 13 55.5 13
c32 0 54.667 -8.66699 68 -26s20 -35.666 20 -54.999c0 -6.66699 -1 -13.667 -3 -21c-2.66699 -9.33301 -6 -17.833 -10 -25.5s-8.66699 -11.5 -14 -11.5c-4 0 -8 2.33301 -12 7s-5.33301 9.33398 -4 14.001s3.16602 9.5 5.49902 14.5s3.83301 9.83301 4.5 14.5
c0.666992 3.33301 1.16699 6.16602 1.5 8.49902s0.5 4.83301 0.5 7.5c0 18 -6 30.5 -18 37.5s-24.333 10.5 -37 10.5c-16 0 -32 -4.33301 -48 -13s-30 -18.667 -42 -30c-14.667 -14.667 -29.334 -31.667 -44.001 -51s-27.334 -38.666 -38.001 -57.999
c-2 -3.33301 -5.66699 -11.333 -11 -24s-10.5 -26.834 -15.5 -42.501s-7.5 -30.167 -7.5 -43.5c0 -10 2.16699 -18.333 6.5 -25s11.833 -10 22.5 -10c11.333 0 24.5 5.5 39.5 16.5s30.333 24.167 46 39.5s29.834 30.333 42.501 45s21.667 26 27 34
c4.66699 5.33301 8.83398 11.166 12.501 17.499s7.5 12.166 11.5 17.499c2 2.66699 6 4 12 4c5.33301 0 10.333 -1.33301 15 -4s7 -6 7 -10c0 -1.33301 -2.16699 -6.83301 -6.5 -16.5s-9.16602 -21.5 -14.499 -35.5s-10.166 -28.167 -14.499 -42.5
s-6.5 -27.166 -6.5 -38.499c0 -33.333 10.333 -50 31 -50c15.333 0 33.833 7.66699 55.5 23s43.667 34.833 66 58.5s42.5 48 60.5 73s31 46.833 39 65.5c-2.66699 10 -6.16699 20.167 -10.5 30.5s-9.16602 20.833 -14.499 31.5c-1.33301 2.66699 -2 4.66699 -2 6
c0 3.33301 1.5 6.16602 4.5 8.49902s5.83301 3.5 8.5 3.5c5.33301 0 9 -2.33301 11 -7c3.33301 -6 6.16602 -11.833 8.49902 -17.5s4.83301 -11.167 7.5 -16.5c6 22 9 43.667 9 65c0 32.667 -7.5 62.5 -22.5 89.5s-39.333 48.833 -73 65.5s-78.167 25 -133.5 25
c-62 0 -118 -9.33301 -168 -28s-93.667 -44 -131 -76s-67.666 -68 -90.999 -108s-39 -81.333 -47 -124c-2.66699 -11.333 -4.5 -22.666 -5.5 -33.999s-1.5 -22.666 -1.5 -33.999c0 -50.667 11.333 -97.834 34 -141.501s57.167 -78.834 103.5 -105.501
s104.166 -40 173.499 -40z" />
    <glyph glyph-name="A" unicode="A" horiz-adv-x="936" 
d="M196 -103c-40.667 0 -73.8359 8.33301 -99.5029 25s-44.5 39.167 -56.5 67.5s-18 59.833 -18 94.5c0 53.333 13 108.666 39 165.999c19.333 41.333 45 79.5 77 114.5s68 63 108 84s82 31.5 126 31.5c34 0 61 -4.5 81 -13.5s34.5 -20.667 43.5 -35s13.5 -29.5 13.5 -45.5
c0 -22 -6.66699 -42.667 -20 -62s-29.666 -31.666 -48.999 -36.999c-0.666992 -0.666992 -1.66699 -1 -3 -1c-0.666992 -0.666992 -2 -1 -4 -1c1.33301 0 2.66602 0.333008 3.99902 1h1l2 1c9.33301 4 18.5 14.333 27.5 31s13.5 34.667 13.5 54
c0 21.333 -8 40.666 -24 57.999s-45.667 26 -89 26c-38.667 0 -76.167 -10.333 -112.5 -31s-69 -48 -98 -82s-52.5 -70.667 -70.5 -110c-22.667 -51.333 -34 -101.333 -34 -150c0 -44 11.333 -81.333 34 -112s58.667 -46 108 -46c28.667 0 58.5 8 89.5 24
s62.333 36.833 94 62.5s62.667 53.834 93 84.501l85.5 89c-25.333 -2.66699 -49.5 -5.83398 -72.5 -9.50098s-45.167 -8.16699 -66.5 -13.5h-4c-8 0 -12 4 -12 12c0 3.33301 1.33301 6.83301 4 10.5s6.33398 5.83398 11.001 6.50098c48.667 8 101.667 14.667 159 20l262 304
c65.333 73.333 117.333 118.333 156 135c15.333 6.66699 30 10 44 10c14.667 0 22 -4.66699 22 -14s-9 -23 -27 -41c-24 -24.667 -48.5 -57.667 -73.5 -99s-48.333 -86.5 -70 -135.5s-39.5 -98.5 -53.5 -148.5c9.33301 0 17 0.166992 23 0.5s11.333 0.166016 16 -0.500977
c6.66699 -0.666992 11.667 -2.66699 15 -6s5 -6.66602 5 -9.99902c0 -8 -5 -12 -15 -12c-6.66699 0 -14.167 0.166992 -22.5 0.5s-17.166 0.5 -26.499 0.5c-11.333 -45.333 -17 -87 -17 -125c0 -9.33301 0.333008 -18.333 1 -27s1.66699 -17 3 -25
c3.33301 -16 7.5 -30 12.5 -42s11.833 -18 20.5 -18c10 0 22.667 9.66699 38 29c5.33301 6 10.333 9 15 9c3.33301 0 6 -1.5 8 -4.5s1.66699 -7.16699 -1 -12.5c-14.667 -30 -34.334 -45 -59.001 -45c-13.333 0 -26.166 6 -38.499 18s-21.166 31.333 -26.499 58
c-4 19.333 -6 40.333 -6 63c0 18.667 1.16699 38.167 3.5 58.5s5.83301 41.5 10.5 63.5c-27.333 0 -58.166 -0.166992 -92.499 -0.5s-68.833 -2.16602 -103.5 -5.49902c-0.666992 -1.33301 -2 -2.83301 -4 -4.5s-3.66699 -3.16699 -5 -4.5
c-26.667 -30 -56.334 -61.5 -89.001 -94.5s-66.5 -63.833 -101.5 -92.5s-70 -51.834 -105 -69.501s-68.167 -26.5 -99.5 -26.5zM622.998 216c32.667 2 64.666 3.49707 95.999 4.49707s59.333 1.83301 84 2.5c12 48.667 28.333 96.834 49 144.501s43 91.834 67 132.501
s46.667 74 68 100l9 12.5l11.5 16c3.66699 5 4.83398 7.16699 3.50098 6.5c-36 -15.333 -84.833 -59.166 -146.5 -131.499z" />
    <glyph glyph-name="B" unicode="B" horiz-adv-x="674" 
d="M148 -110c-15.333 0 -32.835 1.5 -52.502 4.5s-36.667 9 -51 18s-21.5 22.167 -21.5 39.5c0 15.333 5.16699 30.833 15.5 46.5s23.333 30.5 39 44.5s32.334 26.5 50.001 37.5s33.5 19.833 47.5 26.5c12.667 30 29.167 62.833 49.5 98.5s43.333 71.334 69 107.001
s52.667 69 81 100s56.5 57.5 84.5 79.5c6 4.66699 15.667 11.334 29 20.001s24.333 13 33 13c10.667 0 16 -4.66699 16 -14c0 -3.33301 -1 -6 -3 -8s-4.66699 -3.66699 -8 -5c-8.66699 -4 -16.667 -8.16699 -24 -12.5s-14.666 -9.16602 -21.999 -14.499
c-26 -18.667 -51.667 -42.167 -77 -70.5s-49.5 -58.5 -72.5 -90.5s-44 -64 -63 -96s-34.833 -61.333 -47.5 -88c27.333 9.33301 57.333 16.333 90 21s63.667 7 93 7c8 0 18.667 -0.5 32 -1.5s26.833 -2.83301 40.5 -5.5s25.167 -7 34.5 -13s14 -14 14 -24
s-5.33301 -15 -16 -15c-4.66699 0 -8 1 -10 3s-4 4.33301 -6 7c-6.66699 9.33301 -18.5 15 -35.5 17s-32.167 3 -45.5 3c-36 0 -71.5 -2.66699 -106.5 -8s-68.5 -15 -100.5 -29c-4.66699 -12 -8.66699 -24.667 -12 -38s-5 -26.333 -5 -39c0 -17.333 2.5 -28.333 7.5 -33
s9.83301 -7.5 14.5 -8.5s7 -5.16699 7 -12.5c0 -4 -1.33301 -7.66699 -4 -11s-6.66699 -5 -12 -5c-10.667 0 -19.5 3.66699 -26.5 11s-12 16.166 -15 26.499s-4.5 19.166 -4.5 26.499c0 10.667 1 21.167 3 31.5s4.33301 20.5 7 30.5c-11.333 -6 -25.5 -15 -42.5 -27
s-31.833 -25.167 -44.5 -39.5s-19 -28.5 -19 -42.5c0 -11.333 5.5 -19.833 16.5 -25.5s23.5 -9.33398 37.5 -11.001s25.667 -2.5 35 -2.5c27.333 0 58.166 3.16699 92.499 9.5s70 15.333 107 27s73 25.834 108 42.501s66.5 35.5 94.5 56.5s50.333 43.833 67 68.5
s25 50.667 25 78c0 32.667 -12.5 60.5 -37.5 83.5s-54.5 39.5 -88.5 49.5c-7.33301 2 -14.833 3.5 -22.5 4.5s-15.167 2.16699 -22.5 3.5c-4.66699 1.33301 -8.5 3 -11.5 5s-4.5 5.33301 -4.5 10c0 7.33301 5 12 15 14c9.33301 2 18.5 3.33301 27.5 4s17.833 2 26.5 4
c22.667 4.66699 46.334 11.167 71.001 19.5s48 18.666 70 30.999s40 26.833 54 43.5c7.33301 9.33301 13.166 19 17.499 29s6.5 20.333 6.5 31c0 20 -6.33301 37.333 -19 52s-28.834 26.834 -48.501 36.501s-40.5 17.334 -62.5 23.001s-42.333 9.5 -61 11.5
c-22.667 2 -46 3 -70 3c-52 0 -103.167 -6.5 -153.5 -19.5s-96.166 -33.5 -137.499 -61.5c-21.333 -14 -42.5 -31.333 -63.5 -52s-38.333 -42.834 -52 -66.501s-20.5 -48.167 -20.5 -73.5c0 -12 2.33301 -20.833 7 -26.5s9.16699 -10 13.5 -13s6.5 -6.83301 6.5 -11.5
c0 -4 -1.66699 -7.66699 -5 -11s-7.33301 -5 -12 -5c-9.33301 0 -17.166 4.16699 -23.499 12.5s-11.166 17.833 -14.499 28.5s-5 19 -5 25c0 28 7.5 55.333 22.5 82s33.833 51.5 56.5 74.5s46 42.5 70 58.5c45.333 30 95 52 149 66s109.333 21 166 21c24 0 47.333 -1 70 -3
c23.333 -2 47.833 -6.5 73.5 -13.5s49.5 -16.667 71.5 -29s40 -27.333 54 -45s21 -38.5 21 -62.5c0 -25.333 -7.33301 -47.833 -22 -67.5s-33.5 -36.667 -56.5 -51s-47.667 -26.5 -74 -36.5s-51.5 -18 -75.5 -24c35.333 -14.667 65.333 -35 90 -61s37 -56.667 37 -92
c0 -30.667 -8.66699 -59.667 -26 -87s-40.5 -52.5 -69.5 -75.5s-61.833 -43.833 -98.5 -62.5s-74.834 -34.334 -114.501 -47.001s-78.167 -22.5 -115.5 -29.5s-71.333 -10.5 -102 -10.5z" />
    <glyph glyph-name="C" unicode="C" horiz-adv-x="650" 
d="M322 -93c-54.667 0 -102.832 11.3369 -144.499 34.0039s-74.334 53.167 -98.001 91.5s-35.5 80.5 -35.5 126.5c0 34 5.66699 68.167 17 102.5s26.666 67.5 45.999 99.5s41 60.667 65 86c-2.66699 6 -4.66699 12.167 -6 18.5s-2 12.5 -2 18.5v4
c0 5.33301 0.833008 10.166 2.5 14.499s5.83398 6.5 12.501 6.5c5.33301 0 9.83301 -1.33301 13.5 -4s5.5 -6.33398 5.5 -11.001c0 -4 -0.166992 -7.83301 -0.5 -11.5s-0.5 -7.5 -0.5 -11.5c52 50 113.167 91.833 183.5 125.5s143.833 55.834 220.5 66.501
c10 1.33301 20 2.33301 30 3s20 1 30 1c26.667 0 53.5 -3.66699 80.5 -11s49.667 -19 68 -35s27.5 -37.667 27.5 -65c0 -15.333 -3.33301 -30.333 -10 -45s-15.334 -28 -26.001 -40c-26.667 -31.333 -60.667 -56.333 -102 -75s-85.5 -31.834 -132.5 -39.501
s-91.833 -11.5 -134.5 -11.5c-26 0 -54.167 2.83301 -84.5 8.5s-59.333 14.334 -87 26.001s-50.5 26.167 -68.5 43.5c-32 -37.333 -59 -78.333 -81 -123s-33 -90.667 -33 -138c0 -41.333 10.333 -79 31 -113s49.5 -60.833 86.5 -80.5s79.833 -29.5 128.5 -29.5
c36.667 0 75 6.83301 115 20.5s81.167 38.5 123.5 74.5s84.833 86.667 127.5 152c2 3.33301 5.66699 5.66602 11 6.99902c10.667 0 16 -4.66699 16 -14c0 -2.66699 -1 -5.66699 -3 -9c-27.333 -48.667 -60.166 -92.834 -98.499 -132.501s-82 -71.334 -131 -95.001
s-103.167 -35.5 -162.5 -35.5zM432.002 374.004c38 0 78.332 3.16699 120.999 9.5s83.334 17.166 122.001 32.499s70.334 36.333 95.001 63c9.33301 10.667 17.166 22.334 23.499 35.001s9.5 25.667 9.5 39c0 22 -7.33301 39.167 -22 51.5s-32.667 21.166 -54 26.499
s-42.666 8 -63.999 8c-8.66699 0 -17.667 -0.333008 -27 -1s-18.666 -1.66699 -27.999 -3c-74.667 -10.667 -147 -33.167 -217 -67.5s-129.667 -76.166 -179 -125.499c13.333 -16 33.166 -29 59.499 -39s54.166 -17.333 83.499 -22s55 -7 77 -7z" />
    <glyph glyph-name="D" unicode="D" horiz-adv-x="910" 
d="M242 -72c-15.333 0 -33.1631 1.3291 -53.4961 3.99609s-37.833 8.33398 -52.5 17.001s-22 22 -22 40c0 20 6 37.833 18 53.5s27.667 29.334 47 41.001s39.5 21.667 60.5 30s40.5 15.166 58.5 20.499c1.33301 2 2.33301 3.83301 3 5.5s1.33398 3.5 2.00098 5.5
c19.333 48 44.833 95.833 76.5 143.5l93.5 135.5l41 55c14 18.667 28.333 36.334 43 53.001c4.66699 5.33301 9.5 10.166 14.5 14.499l15.5 13.5c-22 2 -44.667 3 -68 3s-46.666 -1 -69.999 -3c-29.333 -2.66699 -58.333 -6.16699 -87 -10.5s-57.334 -10.5 -86.001 -18.5
c-36.667 -10.667 -71.834 -25.834 -105.501 -45.501s-61.167 -43.667 -82.5 -72s-32 -61.166 -32 -98.499c0 -10.667 1.16699 -21.5 3.5 -32.5s6.16602 -21.5 11.499 -31.5c5.33301 -10.667 11.5 -19.167 18.5 -25.5s16.833 -12.166 29.5 -17.499
c3.33301 -1.33301 6.16602 -2.83301 8.49902 -4.5s3.5 -4.5 3.5 -8.5s-1.5 -7.66699 -4.5 -11s-6.83301 -5 -11.5 -5c-0.666992 0 -1.5 0.166992 -2.5 0.5s-1.83301 0.5 -2.5 0.5c-20.667 5.33301 -37.5 15.5 -50.5 30.5s-22.5 32 -28.5 51s-9 36.833 -9 53.5
c0 41.333 11 77.833 33 109.5s51.167 58.667 87.5 81s75.166 39.5 116.499 51.5c30.667 9.33301 61.667 16.166 93 20.499s63 7.83301 95 10.5c11.333 1.33301 22.833 2 34.5 2h34.5c16.667 0 33.167 -0.333008 49.5 -1s32.833 -1.66699 49.5 -3l9 7.5
c2.66699 2.33301 5.33398 4.83301 8.00098 7.5c2 3.33301 4 5.83301 6 7.5s5.33301 2.5 10 2.5c10 0 15 -4.33301 15 -13c0 -5.33301 -2 -10.666 -6 -15.999c33.333 -4.66699 65.666 -12 96.999 -22s59.833 -23.167 85.5 -39.5s46 -36.666 61 -60.999
s22.5 -53.166 22.5 -86.499c0 -40 -9.66699 -78.5 -29 -115.5s-45.333 -71.5 -78 -103.5s-69.334 -61 -110.001 -87s-82.667 -48.333 -126 -67s-85.333 -33 -126 -43c-34 -8.66699 -69 -15.667 -105 -21s-71.667 -8 -107 -8zM232.003 -45.0039
c35.333 0 71.3311 2.83398 107.998 8.50098s72 12.834 106 21.501c37.333 9.33301 76.333 22.666 117 39.999s80.5 38.166 119.5 62.499s74 51.5 105 81.5s55.833 62.167 74.5 96.5s28 70.166 28 107.499c0 32 -7.83301 59 -23.5 81s-36.5 40 -62.5 54
s-54.5 24.833 -85.5 32.5s-61.833 13.167 -92.5 16.5c-7.33301 -6.66699 -14.5 -13.667 -21.5 -21l-20.5 -22c-18.667 -22 -40 -48.833 -64 -80.5s-48 -65.167 -72 -100.5s-45.833 -69.666 -65.5 -102.999s-34.5 -62.333 -44.5 -87c26 4.66699 52.333 8.5 79 11.5
s53.334 4.5 80.001 4.5c17.333 0 36 -1.83301 56 -5.5s35.667 -11.834 47 -24.501c1.33301 -1.33301 2.33301 -2.66602 3 -3.99902s1 -3 1 -5c0 -4 -1.83301 -7.33301 -5.5 -10s-7.5 -4 -11.5 -4c-5.33301 0 -10 2 -14 6c-9.33301 8.66699 -20.833 13.834 -34.5 15.501
s-27.167 2.5 -40.5 2.5c-28.667 0 -57.5 -1.83301 -86.5 -5.5s-57.5 -8.5 -85.5 -14.5c-2 -7.33301 -3.83301 -14.833 -5.5 -22.5s-2.5 -15.167 -2.5 -22.5c0 -15.333 2.66699 -25.5 8 -30.5s10.666 -8.16699 15.999 -9.5s8 -5.33301 8 -12c0 -3.33301 -1.5 -6.5 -4.5 -9.5
s-6.5 -4.5 -10.5 -4.5c-3.33301 0 -5.66602 0.333008 -6.99902 1c-12.667 5.33301 -21.834 13.666 -27.501 24.999s-9 23.833 -10 37.5s-1.16699 25.5 -0.5 35.5c-17.333 -5.33301 -37.166 -12.833 -59.499 -22.5s-41.666 -21.667 -57.999 -36s-24.5 -31.5 -24.5 -51.5
c0 -10 5.33301 -17.333 16 -22s22.667 -7.66699 36 -9s24 -2 32 -2z" />
    <glyph glyph-name="E" unicode="E" horiz-adv-x="724" 
d="M257 -74c-27.333 0 -55.498 2.82715 -84.498 8.49414s-56 14.667 -81 27s-45.167 28.333 -60.5 48s-23 43.834 -23 72.501c0 20.667 4.66699 41 14 61c25.333 56.667 62.833 102.334 112.5 137.001s106.834 60.667 171.501 78c-24 18 -36 39.333 -36 64
c0 12.667 2.5 25 7.5 37s10.833 23.333 17.5 34c16 24 37.333 45.333 64 64s56.334 34.334 89.001 47.001s66.167 22.334 100.5 29.001s66.833 10 97.5 10c18 0 36.5 -1.83301 55.5 -5.5s34.833 -10.5 47.5 -20.5s19 -25 19 -45c0 -18 -7.5 -35.5 -22.5 -52.5
s-33.833 -25.5 -56.5 -25.5c-5.33301 0 -11.166 1.16699 -17.499 3.5s-9.5 6.5 -9.5 12.5c0 3.33301 1.5 6.66602 4.5 9.99902s6.83301 5 11.5 5c3.33301 0 6.16602 -0.666992 8.49902 -2s4.83301 -2 7.5 -2c13.333 0 23.666 6.16699 30.999 18.5s11 22.833 11 31.5
c0 13.333 -4.33301 23.166 -13 29.499s-19.167 10.5 -31.5 12.5s-24.5 3 -36.5 3c-28.667 0 -59 -3 -91 -9s-63.5 -14.667 -94.5 -26s-59.167 -25.666 -84.5 -42.999s-45.666 -37.333 -60.999 -60c-5.33301 -8.66699 -10 -17.667 -14 -27s-6 -19 -6 -29
c0 -12.667 3.83301 -23.667 11.5 -33s17.834 -17 30.501 -23c25.333 4.66699 50.5 8 75.5 10s50.167 3 75.5 3c5.33301 0 13.666 -0.833008 24.999 -2.5s17 -6.5 17 -14.5c0 -6.66699 -4 -12.667 -12 -18s-17 -9.66602 -27 -12.999s-18.333 -5.33301 -25 -6
c-16.667 -2 -33.334 -3 -50.001 -3c-13.333 0 -26.833 1 -40.5 3s-26.834 5.33301 -39.501 10l-11.5 -2c-3.66699 -0.666992 -7.5 -1.66699 -11.5 -3c-60.667 -14.667 -115 -37.667 -163 -69s-83.667 -73.666 -107 -126.999c-7.33301 -16.667 -11 -33.334 -11 -50.001
c0 -24 6.83301 -44.333 20.5 -61s31.167 -30 52.5 -40s44.666 -17.167 69.999 -21.5s49.333 -6.5 72 -6.5h12c64 0 126.167 10.667 186.5 32s114.5 50.666 162.5 87.999c10.667 8.66699 21.5 18.334 32.5 29.001s19.833 21.334 26.5 32.001c5.33301 8 9.5 16.5 12.5 25.5
s4.5 17.833 4.5 26.5c0 14 -3.16699 23.833 -9.5 29.5s-13.5 9.16699 -21.5 10.5s-15.167 2.66602 -21.5 3.99902s-9.5 5.33301 -9.5 12c0 4.66699 1.66699 8.33398 5 11.001s7.33301 4 12 4c24 0 43.167 -6.83301 57.5 -20.5s21.5 -30.5 21.5 -50.5
c0 -11.333 -2 -22.666 -6 -33.999s-9 -22 -15 -32c-8.66699 -13.333 -20 -26.5 -34 -39.5s-27.667 -24.5 -41 -34.5c-50.667 -38 -106.834 -67.833 -168.501 -89.5s-126.167 -32.5 -193.5 -32.5h-12z" />
    <glyph glyph-name="F" unicode="F" horiz-adv-x="647" 
d="M188 -37c-54 0 -95.333 14.502 -124 43.502s-43 65.833 -43 110.5c0 23.333 6.66699 46.666 20 69.999s31 44.166 53 62.499s45.667 30.833 71 37.5c1.33301 0 2.33301 0.166992 3 0.5s1.33398 0.5 2.00098 0.5c10.667 0 16 -5 16 -15c0 -6 -4 -10.667 -12 -14
c-4.66699 -2 -9.33398 -3.66699 -14.001 -5s-9.33398 -3.33301 -14.001 -6c-21.333 -11.333 -41 -27.833 -59 -49.5s-29 -43.5 -33 -65.5c-0.666992 -2.66699 -1 -5.5 -1 -8.5v-9.5c0 -36 11.833 -65.5 35.5 -88.5s56.834 -34.5 99.501 -34.5
c39.333 0 76.166 7.5 110.499 22.5s65.833 34.667 94.5 59s54.5 50.833 77.5 79.5s42.833 56.334 59.5 83.001c3.33301 5.33301 6.5 10.666 9.5 15.999s5.83301 10.666 8.5 15.999c-20.667 -1.33301 -41.5 -2.5 -62.5 -3.5s-41.833 -1.5 -62.5 -1.5
c-8.66699 0 -18.667 0.833008 -30 2.5s-21.166 5.16699 -29.499 10.5s-12.5 13 -12.5 23c0 8 5 17.5 15 28.5s20 16.5 30 16.5c10.667 0 16 -5 16 -15c0 -6.66699 -4 -11.167 -12 -13.5s-12 -6.5 -12 -12.5c0 -5.33301 5 -8.5 15 -9.5s17.333 -1.5 22 -1.5
c23.333 0 46.5 0.833008 69.5 2.5s45.833 3.5 68.5 5.5c21.333 48.667 40.166 98.334 56.499 149.001s30.833 101.334 43.5 152.001c-52.667 15.333 -109.167 30 -169.5 44s-118.166 21 -173.499 21c-19.333 0 -39 -1 -59 -3c-14.667 -2 -31 -6 -49 -12
s-35 -13.833 -51 -23.5s-29.167 -20.834 -39.5 -33.501s-15.5 -26.667 -15.5 -42c0 -18.667 8 -34.834 24 -48.501s34.333 -20.5 55 -20.5c11.333 0 17 -4.66699 17 -14s-5.66699 -14 -17 -14c-19.333 0 -37.666 4.16699 -54.999 12.5s-31.166 19.833 -41.499 34.5
s-15.5 30.667 -15.5 48c0 19.333 5.83301 37 17.5 53s26.834 30.333 45.501 43s38.667 23 60 31s41.666 13 60.999 15c18 2 36.667 3 56 3c57.333 0 117.333 -7 180 -21s121 -29.333 175 -46c1.33301 5.33301 2.83301 11 4.5 17s3.5 11.333 5.5 16
c3.33301 7.33301 8.66602 11 15.999 11c4.66699 0 8.66699 -1.16699 12 -3.5s5 -5.5 5 -9.5c0 -6.66699 -1.16699 -13.667 -3.5 -21s-4.16602 -14.333 -5.49902 -21l75 -25l94.5 -30c33 -10 64.5 -18.5 94.5 -25.5s55.333 -10.5 76 -10.5
c15.333 0 29.166 2.16699 41.499 6.5s21.833 12.833 28.5 25.5c2 3.33301 4 6 6 8s5.33301 3 10 3s9 -1.33301 13 -4s6 -6 6 -10c0 -0.666992 -0.166992 -1.5 -0.5 -2.5s-0.5 -1.83301 -0.5 -2.5c-6.66699 -16.667 -18.834 -29.667 -36.501 -39s-36.5 -14 -56.5 -14
c-20.667 0 -46.667 3.66699 -78 11s-64.5 16.333 -99.5 27s-68.333 21.334 -100 32.001s-58.167 19 -79.5 25c-12.667 -48.667 -26.167 -97.167 -40.5 -145.5s-32.166 -95.833 -53.499 -142.5c21.333 1.33301 42.666 3 63.999 5s42.333 3 63 3c11.333 0 17 -4.66699 17 -14
c0 -10 -5.66699 -15 -17 -15c-20.667 0 -44.167 -1.33301 -70.5 -4s-50.166 -4.66699 -71.499 -6c-17.333 -34 -38.833 -69 -64.5 -105s-55.334 -69.5 -89.001 -100.5s-71 -56.167 -112 -75.5s-85.5 -29 -133.5 -29z" />
    <glyph glyph-name="G" unicode="G" horiz-adv-x="707" 
d="M60 -341c-18.667 0 -39.168 2.5 -61.501 7.5s-41.5 13.5 -57.5 25.5s-24 28.333 -24 49v7c2 12 6.66699 23.667 14 35s15.333 21.666 24 30.999c28.667 30.667 63.5 55.5 104.5 74.5s84.333 33.833 130 44.5s89.834 18.334 132.501 23.001
c27.333 3.33301 54.666 5.5 81.999 6.5s54.666 1.5 81.999 1.5h31c48 65.333 88.667 135.833 122 211.5s61 150.834 83 225.501l-12 -3c-8.66699 -18.667 -21.167 -39 -37.5 -61s-34.333 -44.167 -54 -66.5s-39.5 -43.333 -59.5 -63l-54 -51.5
c-17.333 -15.333 -38 -32 -62 -50s-49.5 -34.833 -76.5 -50.5s-54.667 -28.5 -83 -38.5s-55.5 -15 -81.5 -15c-34 0 -57.5 10 -70.5 30s-19.5 43 -19.5 69c0 25.333 4.5 52.333 13.5 81s20.5 56.667 34.5 84s29 51.333 45 72l33 40l34 39
c-16.667 11.333 -30.834 25 -42.501 41s-17.5 33.333 -17.5 52c0 4.66699 0.833008 11.167 2.5 19.5s4.33398 16 8.00098 23s8.5 10.5 14.5 10.5c4.66699 0 8.83398 -1.5 12.501 -4.5s5.5 -6.5 5.5 -10.5c0 -4.66699 -1.66699 -9.83398 -5 -15.501s-5 -12.834 -5 -21.501
c0 -15.333 4.5 -29.166 13.5 -41.499s20.167 -23.166 33.5 -32.499c52 52.667 109.833 98.167 173.5 136.5s134.834 64.833 213.501 79.5c21.333 4 43 6 65 6c22.667 0 44.5 -3.16699 65.5 -9.5s38.333 -16.166 52 -29.499s20.5 -31.333 20.5 -54
c0 -21.333 -6 -41.333 -18 -60s-27.5 -35.5 -46.5 -50.5s-38.5 -27.5 -58.5 -37.5c-18.667 -77.333 -45 -155.833 -79 -235.5s-74.667 -153.167 -122 -220.5c17.333 -1.33301 38 -4.5 62 -9.5s47.167 -11.5 69.5 -19.5s39.833 -17.333 52.5 -28
c4 -2.66699 6 -6.33398 6 -11.001c0 -3.33301 -1.33301 -6.5 -4 -9.5s-6.33398 -4.5 -11.001 -4.5c-2 0 -3.83301 0.5 -5.5 1.5s-3.5 1.83301 -5.5 2.5c-8.66699 6 -18 11.167 -28 15.5s-20.333 8.16602 -31 11.499c-20 6.66699 -41 11.667 -63 15
s-43.667 5.66602 -65 6.99902l-20 -25l-21 -24c-40.667 -44 -87.167 -83.333 -139.5 -118s-109.166 -62.334 -170.499 -83.001c-16.667 -5.33301 -34 -10.166 -52 -14.499s-36 -7.16602 -54 -8.49902c-2.66699 0 -5.5 -0.166992 -8.5 -0.5s-6.16699 -0.5 -9.5 -0.5z
M470.999 391c34 0 70.001 2.33789 108.001 7.00488s73 12 105 22c3.33301 5.33301 8 12.166 14 20.499s12.833 15.666 20.5 21.999s15.5 9.5 23.5 9.5c5.33301 0 9.83301 -1.66699 13.5 -5s6.16699 -7 7.5 -11c20.667 11.333 40 26.666 58 45.999s27 40.333 27 63
c0 16.667 -5.33301 29.667 -16 39s-23.834 16 -39.501 20s-31.5 6 -47.5 6c-20.667 0 -41 -2 -61 -6c-74 -14.667 -141 -39.834 -201 -75.501s-114.667 -78.167 -164 -127.5c23.333 -10.667 48 -18.334 74 -23.001s52 -7 78 -7zM726 436.005l4.00195 1
c1.33301 2.66699 2 4.66699 2 6s-0.166992 3.5 -0.5 6.5s-0.833008 4.5 -1.5 4.5c-0.666992 -2.66699 -1.33398 -5.5 -2.00098 -8.5s-1.33398 -6.16699 -2.00098 -9.5zM206.002 32.0049c6 0 11.834 0.498047 17.501 1.49805s11.5 2.16699 17.5 3.5
c42 9.33301 83.833 26.5 125.5 51.5s81.334 54.5 119.001 88.5s72 69 103 105s56.833 70 77.5 102c-30.667 -6.66699 -62 -12 -94 -16s-64 -6 -96 -6c-30 0 -60.333 2.83301 -91 8.5s-59.334 15.167 -86.001 28.5c-24 -25.333 -47.833 -54.666 -71.5 -87.999
s-43.334 -68 -59.001 -104s-23.5 -71.333 -23.5 -106c0 -17.333 4.16699 -33.166 12.5 -47.499s24.5 -21.5 48.5 -21.5zM54.0029 -311.997l10.999 0.00390625c4 0 7.66699 0.333008 11 1c17.333 1.33301 34.5 4.16602 51.5 8.49902s33.167 9.16602 48.5 14.499
c57.333 19.333 110.666 45.5 159.999 78.5s93 69.833 131 110.5c5.33301 5.33301 10.333 11 15 17s9.66699 11.333 15 16c-6.66699 0.666992 -13.334 1 -20.001 1h-20c-22 0 -43.833 -0.666992 -65.5 -2s-43.167 -3.33301 -64.5 -6c-38.667 -4 -79.167 -10.833 -121.5 -20.5
s-82.666 -22.834 -120.999 -39.501s-71.166 -38.334 -98.499 -65.001c-8 -8 -15.667 -16.833 -23 -26.5s-11.666 -20.167 -12.999 -31.5c-0.666992 -1.33301 -1 -3.33301 -1 -6c0 -14 6.33301 -24.5 19 -31.5s27.167 -11.833 43.5 -14.5s30.5 -4 42.5 -4z" />
    <glyph glyph-name="H" unicode="H" horiz-adv-x="803" 
d="M116 -91c-10 0 -17.3271 5.00098 -21.9941 15.001s-7.66699 21 -9 33s-2 21 -2 27c0 19.333 3.66699 41.666 11 66.999s16.833 51.333 28.5 78s23.667 52.167 36 76.5s23.5 45.5 33.5 63.5l-38.5 16c-13 5.33301 -26.167 10.333 -39.5 15c-8 3.33301 -15.5 8 -22.5 14
s-10.5 13.333 -10.5 22s3.66699 15.167 11 19.5s16.166 7.33301 26.499 9s19.166 2.5 26.499 2.5c16.667 0 33.167 -1.5 49.5 -4.5s32.5 -6.5 48.5 -10.5c31.333 49.333 67.333 99 108 149s84.334 94.333 131.001 133c3.33301 3.33301 7.33301 5 12 5
c4 0 7.83301 -1.5 11.5 -4.5s5.5 -6.5 5.5 -10.5c0 -2.66699 -1.66699 -5.66699 -5 -9c-5.33301 -5.33301 -11 -10.333 -17 -15s-11.667 -9.66699 -17 -15l-25 -24l-24 -24c-28 -29.333 -53.833 -60.5 -77.5 -93.5s-46.167 -66.167 -67.5 -99.5
c63.333 -14.667 126.166 -30.5 188.499 -47.5s125.166 -31.833 188.499 -44.5c29.333 52 62.166 104.667 98.499 158s75.833 102.333 118.5 147l40 42.5c13.333 14.333 27.333 27.833 42 40.5l6 4c2 1.33301 4.33301 2 7 2c4.66699 0 8.5 -1.5 11.5 -4.5
s4.5 -6.16699 4.5 -9.5c0 -2 -1.33301 -5 -4 -9c-12.667 -14 -26 -27.833 -40 -41.5l-41 -41.5c-40.667 -44.667 -78 -92.167 -112 -142.5s-65.333 -101.166 -94 -152.499c13.333 -2 27.166 -4.5 41.499 -7.5s28.166 -4.5 41.499 -4.5c7.33301 0 16.666 1.66699 27.999 5
s17 9.33301 17 18c0 6 -2.16699 10.667 -6.5 14s-8.83301 6.5 -13.5 9.5s-7 6.5 -7 10.5s1.66699 7.5 5 10.5s7 4.5 11 4.5c10.667 0 20.167 -6 28.5 -18s12.5 -22 12.5 -30c0 -18 -8.5 -31.333 -25.5 -40s-34.167 -13 -51.5 -13c-16 0 -32.167 1.5 -48.5 4.5
s-32.166 6.16699 -47.499 9.5c-16.667 -32 -32.167 -64.5 -46.5 -97.5s-26.166 -66.5 -35.499 -100.5c6.66699 -8 12.834 -16.5 18.501 -25.5s8.5 -18.5 8.5 -28.5c0 -9.33301 -3.33301 -17.833 -10 -25.5s-15.667 -11.5 -27 -11.5c-8.66699 0 -15.334 2.16699 -20.001 6.5
s-8 9.83301 -10 16.5c-1.33301 5.33301 -2.66602 11.166 -3.99902 17.499s-2 12.5 -2 18.5c0 4.66699 0.5 9.16699 1.5 13.5s1.83301 8.83301 2.5 13.5c-21.333 36 -50.166 68.833 -86.499 98.5s-75.833 56.334 -118.5 80.001s-84.334 44.5 -125.001 62.5l-31.5 -60
c-12.333 -24 -24.333 -49.5 -36 -76.5s-21.334 -53 -29.001 -78s-11.5 -46.167 -11.5 -63.5c0 -12 1.66699 -20.833 5 -26.5s6.66602 -10 9.99902 -13s5 -6.83301 5 -11.5s-1.83301 -8.83398 -5.5 -12.501s-8.16699 -5.5 -13.5 -5.5zM207.006 294.001l10 16.4971
c3.33301 5.66699 7 11.167 11 16.5c-13.333 3.33301 -27.333 6.5 -42 9.5s-29 4.5 -43 4.5c-2.66699 0 -7.66699 -0.5 -15 -1.5s-11 -3.16699 -11 -6.5c0 -2.66699 1.66699 -4.66699 5 -6s6 -2.66602 8 -3.99902c12.667 -5.33301 25.5 -10.166 38.5 -14.499
s25.833 -9.16602 38.5 -14.499zM566.006 55.998c10.667 28.667 22.167 57.168 34.5 85.501s25.833 55.833 40.5 82.5c-64 14 -127.333 29.667 -190 47s-125.667 33.666 -189 48.999c-9.33301 -14 -17.333 -27.333 -24 -40c61.333 -26.667 120.833 -58.667 178.5 -96
s107.5 -80 149.5 -128z" />
    <glyph glyph-name="I" unicode="I" horiz-adv-x="624" 
d="M209 -41c-42.667 0 -73.999 12.8271 -93.999 38.4941s-30 55.167 -30 88.5c0 22 2.66699 44.167 8 66.5s11 44.166 17 65.499c2 6 4.66699 13.167 8 21.5s5 15.166 5 20.499c0 4.66699 -1.33301 8 -4 10s-4 5.33301 -4 10c0 7.33301 4.66699 11 14 11h6
c10 -1.33301 20.167 -2.33301 30.5 -3s20.833 -1 31.5 -1c11.333 0 22.833 0.166992 34.5 0.5s23.167 0.5 34.5 0.5c9.33301 0 23 -0.333008 41 -1s36.5 -2.5 55.5 -5.5s35 -7.83301 48 -14.5s19.5 -16 19.5 -28c0 -4.66699 -1.33301 -9.66699 -4 -15s-7.66699 -8 -15 -8
c-5.33301 0 -9.16602 1.66699 -11.499 5s-3.5 7.33301 -3.5 12c0 6.66699 -7 11.667 -21 15s-30.5 5.83301 -49.5 7.5s-36.667 2.66699 -53 3s-27.166 0.5 -32.499 0.5c-14.667 0 -29.334 -0.166992 -44.001 -0.5s-29 -0.166016 -43 0.500977
c-1.33301 -20 -5.16602 -39.667 -11.499 -59s-12.333 -38.666 -18 -57.999s-8.5 -39.333 -8.5 -60c0 -24.667 7.66699 -46.5 23 -65.5s39 -28.5 71 -28.5c37.333 0 73.166 8.16699 107.499 24.5s66.333 37.333 96 63s56.5 52.834 80.5 81.501s44.333 55.334 61 80.001
c23.333 34 44.833 72.5 64.5 115.5s37.5 86.833 53.5 131.5s29.667 86 41 124c3.33301 12 10 24 20 36c-24 -4.66699 -48.167 -14.167 -72.5 -28.5s-45.166 -28.833 -62.499 -43.5c-20.667 -17.333 -38.167 -36.666 -52.5 -57.999s-21.5 -39.333 -21.5 -54
c0 -10 2.83301 -17.5 8.5 -22.5s12.834 -7.5 21.501 -7.5c10.667 0 19 2.33301 25 7s12 7 18 7c4 0 7.66699 -1.5 11 -4.5s5 -6.16699 5 -9.5c0 -5.33301 -4 -10.166 -12 -14.499s-16.833 -7.66602 -26.5 -9.99902s-17.167 -3.5 -22.5 -3.5c-17.333 0 -31.833 6 -43.5 18
s-17.5 25.333 -17.5 40c0 16 5.16699 32.5 15.5 49.5s22.666 33.167 36.999 48.5s27.5 28.333 39.5 39c22 18.667 48.333 35.834 79 51.501s62 23.5 94 23.5h4c4.66699 0 7 -1.66699 7 -5c0 -6.66699 -2.83301 -17.167 -8.5 -31.5s-9.83398 -25.5 -12.501 -33.5
c-10.667 -38.667 -24.334 -81 -41.001 -127s-35.5 -91.333 -56.5 -136s-42.833 -84 -65.5 -118c-18.667 -27.333 -40.834 -56.166 -66.501 -86.499s-54.5 -58.833 -86.5 -85.5s-66.5 -48.334 -103.5 -65.001s-76.167 -25 -117.5 -25z" />
    <glyph glyph-name="J" unicode="J" horiz-adv-x="687" 
d="M9 -281c-18.667 0 -39.165 2.5 -61.498 7.5s-41.5 13.5 -57.5 25.5s-24 28.333 -24 49v7c2 12 6.66699 23.667 14 35s15.333 21.666 24 30.999c28.667 30.667 63.5 55.5 104.5 74.5s84.333 33.833 130 44.5s89.834 18.334 132.501 23.001
c27.333 3.33301 54.666 5.5 81.999 6.5s54.333 1.5 81 1.5h31c48.667 65.333 89.834 135.833 123.501 211.5s61.167 150.834 82.5 225.501c7.33301 25.333 13.166 50.333 17.499 75s6.5 47 6.5 67v8c0 4 -0.833008 7.16699 -2.5 9.5s-6.16699 3.5 -13.5 3.5
c-14.667 0 -31.5 -3.5 -50.5 -10.5s-37.5 -15.333 -55.5 -25s-32.667 -18.167 -44 -25.5c-20 -12.667 -40.667 -29.5 -62 -50.5s-39.333 -43.5 -54 -67.5s-22 -47.333 -22 -70c0 -10.667 2.66699 -22 8 -34s15.666 -18 30.999 -18c10 0 19.833 1.83301 29.5 5.5
s17.834 5.5 24.501 5.5c5.33301 0 9.33301 -1.66699 12 -5s4 -7 4 -11c0 -6 -4.66699 -10.667 -14 -14s-19.5 -5.66602 -30.5 -6.99902s-19.167 -2 -24.5 -2c-26.667 0 -45.334 7.5 -56.001 22.5s-16 32.833 -16 53.5c0 26.667 7.33301 54.167 22 82.5
s33.834 54.5 57.501 78.5s48.167 42.667 73.5 56c13.333 7.33301 30.666 16.166 51.999 26.499s43.166 19.333 65.499 27s41.5 11.5 57.5 11.5c17.333 0 28.5 -4.33301 33.5 -13s7.5 -19.334 7.5 -32.001c0 -18.667 -1.83301 -39.167 -5.5 -61.5s-8.5 -45.166 -14.5 -68.499
c-19.333 -77.333 -45.833 -155.833 -79.5 -235.5s-74.167 -153.167 -121.5 -220.5c17.333 -1.33301 38 -4.5 62 -9.5s47.167 -11.5 69.5 -19.5s39.833 -17.333 52.5 -28c4 -4 6 -7.66699 6 -11s-1.5 -6.5 -4.5 -9.5s-6.5 -4.5 -10.5 -4.5c-2 0 -3.83301 0.5 -5.5 1.5
s-3.5 1.83301 -5.5 2.5c-9.33301 6 -18.833 11.167 -28.5 15.5s-20.167 8.16602 -31.5 11.499c-19.333 6.66699 -40 11.667 -62 15s-43.667 5.66602 -65 6.99902c-6.66699 -8.66699 -13.5 -17 -20.5 -25l-21.5 -24c-40.667 -44 -87 -83.333 -139 -118
s-108.667 -62.334 -170 -83.001c-16.667 -5.33301 -34 -10.166 -52 -14.499s-36 -7.16602 -54 -8.49902c-2.66699 0 -5.5 -0.166992 -8.5 -0.5s-6.16699 -0.5 -9.5 -0.5zM3.00195 -252l10.998 0.00390625c4 0 7.66699 0.333008 11 1
c17.333 1.33301 34.333 4.16602 51 8.49902s33 9.16602 49 14.499c56.667 19.333 109.834 45.5 159.501 78.5s93.5 69.833 131.5 110.5c5.33301 5.33301 10.333 11 15 17s9.66699 11.333 15 16c-6.66699 0.666992 -13.334 1 -20.001 1h-21
c-21.333 0 -42.833 -0.666992 -64.5 -2s-43.167 -3.33301 -64.5 -6c-38.667 -4 -79.167 -10.833 -121.5 -20.5s-82.666 -22.834 -120.999 -39.501s-71.166 -38.334 -98.499 -65.001c-8 -8 -15.667 -16.833 -23 -26.5s-12 -20.167 -14 -31.5v-6c0 -14 6.33301 -24.5 19 -31.5
s27.167 -11.833 43.5 -14.5s30.5 -4 42.5 -4z" />
    <glyph glyph-name="K" unicode="K" horiz-adv-x="783" 
d="M293 -61c-10 0 -18 3.67188 -24 11.0049s-10.5 15.666 -13.5 24.999s-4.5 17.333 -4.5 24c0 18 5.5 40.167 16.5 66.5s24.667 54 41 83s32.5 56.333 48.5 82l40 62.5c-2 5.33301 -4 11.166 -6 17.499s-3 12.166 -3 17.499c0 6.66699 2 12 6 16
c10.667 9.33301 22.834 18.833 36.501 28.5l38.5 26.5l29 40.5l30 39.5c8.66699 11.333 18.5 25.833 29.5 43.5s20.667 35.834 29 54.501s12.5 34.667 12.5 48c0 19.333 -9 33.666 -27 42.999s-38.333 14 -61 14c-34 0 -71.667 -6.83301 -113 -20.5
s-82.5 -31.667 -123.5 -54s-78.5 -46.833 -112.5 -73.5s-60.333 -53 -79 -79c-11.333 -16 -23.333 -35.333 -36 -58s-19 -43.667 -19 -63s8.16699 -33 24.5 -41s34.166 -12 53.499 -12c17.333 0 32.666 2.5 45.999 7.5s24.5 10 33.5 15s14.833 7.5 17.5 7.5
c4 0 7.5 -1.5 10.5 -4.5s4.5 -6.16699 4.5 -9.5s-2 -7 -6 -11c-12.667 -10.667 -29.667 -18.834 -51 -24.501s-40.666 -8.5 -57.999 -8.5c-28 0 -53.333 6.5 -76 19.5s-34 32.833 -34 59.5c0 22.667 7 46.667 21 72s27.667 47.333 41 66c21.333 29.333 50 58.166 86 86.499
s75.667 53.833 119 76.5s86.833 40.834 130.5 54.501s83.834 20.5 120.501 20.5c21.333 0 41.666 -3 60.999 -9s35.166 -14.667 47.499 -26s18.5 -25.333 18.5 -42c0 -26 -9.66699 -55.5 -29 -88.5s-42.333 -66.833 -69 -101.5l92 50.5
c34.667 18.333 71.167 36.666 109.5 54.999s76.166 35.333 113.499 51s72.166 28.167 104.499 37.5s59.5 14 81.5 14c21.333 0 38 -7 50 -21s18 -29.667 18 -47c0 -5.33301 -1.16699 -11.666 -3.5 -18.999s-7.83301 -11 -16.5 -11c-4 0 -8 1.33301 -12 4s-6 6 -6 10
c0 3.33301 1 6.5 3 9.5s3 6.5 3 10.5c0 9.33301 -3.16699 17.5 -9.5 24.5s-15.166 10.5 -26.499 10.5c-25.333 0 -56.833 -6 -94.5 -18s-78.167 -27.5 -121.5 -46.5s-86.166 -39.5 -128.499 -61.5s-81 -43.167 -116 -63.5l-84.5 -50.5c-10 -12.667 -19.333 -26 -28 -40
s-17.667 -27.667 -27 -41c0 -14.667 4.5 -33.667 13.5 -57s20.833 -48 35.5 -74s31 -50.5 49 -73.5s36 -41.833 54 -56.5s34.333 -22 49 -22c31.333 0 60.833 15.5 88.5 46.5s59.167 72.833 94.5 125.5c4 4.66699 8 7 12 7c4.66699 0 8.33398 -2 11.001 -6s2.66699 -9 0 -15
c-6 -12 -16 -28.667 -30 -50s-30.833 -43 -50.5 -65s-40.667 -40.667 -63 -56s-44.5 -23 -66.5 -23c-21.333 0 -43.333 9.33301 -66 28s-44.167 42.5 -64.5 71.5s-38.333 59.5 -54 91.5s-27.5 61.667 -35.5 89l-2 1l-36 -55.5c-14.667 -23 -29.5 -47.667 -44.5 -74
s-27.5 -51.5 -37.5 -75.5s-15 -43.667 -15 -59c0 -12 2.16699 -19.833 6.5 -23.5s8.5 -6.33398 12.5 -8.00098s6 -5.5 6 -11.5c0 -10 -5 -15 -15 -15z" />
    <glyph glyph-name="L" unicode="L" horiz-adv-x="699" 
d="M817 -92c-42 0 -84.1631 5.33496 -126.496 16.002s-84.333 24.334 -126 41.001s-82.334 34.334 -122.001 53.001s-78.167 35.667 -115.5 51c-18.667 -19.333 -40 -38.333 -64 -57s-50 -34 -78 -46s-57.667 -18 -89 -18c-23.333 0 -45.333 3.83301 -66 11.5
s-37.334 19.167 -50.001 34.5s-19 33.666 -19 54.999c0 24.667 7.5 44.834 22.5 60.501s34 27.334 57 35.001s46.833 11.5 71.5 11.5c33.333 0 68.666 -5.33301 105.999 -16s71.333 -21.667 102 -33c19.333 23.333 37.5 47.333 54.5 72s32.833 49.667 47.5 75
c-49.333 5.33301 -90.5 20 -123.5 44s-49.5 59 -49.5 105c0 33.333 9.83301 65.166 29.5 95.499s46.5 53.833 80.5 70.5c9.33301 4.66699 20.666 9.16699 33.999 13.5s25 6.5 35 6.5c10.667 0 16 -4.66699 16 -14c0 -8 -4.66699 -13 -14 -15
c-9.33301 -2.66699 -18.5 -4.83398 -27.5 -6.50098s-18.167 -4.83398 -27.5 -9.50098c-28.667 -13.333 -51.834 -33.166 -69.501 -59.499s-26.5 -53.833 -26.5 -82.5c0 -28 7.66699 -50.333 23 -67s35.166 -28.834 59.499 -36.501s50.5 -12.834 78.5 -15.501l80.5 146
c27.667 48.667 57.834 95.667 90.501 141c9.33301 13.333 21 28.166 35 44.499s29.833 32.166 47.5 47.499s36.167 27.833 55.5 37.5s39 14.5 59 14.5c31.333 0 54.666 -8.5 69.999 -25.5s23 -38.167 23 -63.5c0 -28 -6.66699 -57 -20 -87s-30.166 -58.5 -50.499 -85.5
s-41.166 -50.5 -62.499 -70.5c-38.667 -36.667 -84.667 -67.334 -138 -92.001s-109.333 -37 -168 -37c-16.667 -27.333 -34 -54.333 -52 -81s-37.667 -52.334 -59 -77.001l109 -51c37.333 -18 75.666 -35.167 114.999 -51.5s79.333 -29.666 120 -39.999
s81.334 -15.5 122.001 -15.5c18.667 0 37.834 2.5 57.501 7.5s36.5 12.833 50.5 23.5c3.33301 3.33301 7.33301 5 12 5s8.66699 -1.5 12 -4.5s5 -6.16699 5 -9.5s-1.66699 -6.66602 -5 -9.99902c-8 -7.33301 -18.833 -14.166 -32.5 -20.499s-27.834 -11.333 -42.501 -15
s-27.667 -5.5 -39 -5.5h-18zM481.004 284.002c50.667 3.33301 98.502 15.668 143.502 37.001s84.833 48 119.5 80c12.667 12 26 27.5 40 46.5s27.167 39.5 39.5 61.5s22.333 43.5 30 64.5s11.5 39.5 11.5 55.5c0 16.667 -4.83301 30.167 -14.5 40.5s-24.5 15.5 -44.5 15.5
c-16.667 0 -33.334 -4.66699 -50.001 -14s-32.334 -21 -47.001 -35s-28 -28.333 -40 -43s-22 -27.334 -30 -38.001c-28.667 -40.667 -56.167 -85.167 -82.5 -133.5zM99.0059 -22.9961c27.333 0 52.999 5.16602 76.999 15.499s46.5 23.5 67.5 39.5s39.833 32.333 56.5 49
c-28 11.333 -58.667 22 -92 32s-65.666 15 -96.999 15c-18 0 -36 -2.83301 -54 -8.5s-32.833 -14.167 -44.5 -25.5s-17.5 -26.333 -17.5 -45c0 -16.667 5.16699 -30.167 15.5 -40.5s23.5 -18.166 39.5 -23.499s32.333 -8 49 -8z" />
    <glyph glyph-name="M" unicode="M" horiz-adv-x="966" 
d="M893 -100c-3.33301 0 -5.99609 0.332031 -7.99609 0.999023c-20 8 -33.167 18.333 -39.5 31s-9.5 28.334 -9.5 47.001c0 11.333 0.666992 22.666 2 33.999s3 22.666 5 33.999c14.667 87.333 40.667 172.666 78 255.999s82 162.333 134 237
c3.33301 4.66699 5 9.66699 5 15c0 4.66699 -1.83301 8 -5.5 10s-8.16699 3 -13.5 3c-11.333 0 -22.5 -3.33301 -33.5 -10s-20.167 -13.334 -27.5 -20.001c-33.333 -28.667 -66.166 -62.167 -98.499 -100.5l-88.5 -107.5l-67 -91l-64 -93l-26.5 -44.5
c-9 -15.667 -18.167 -30.167 -27.5 -43.5c-3.33301 -6.66699 -8.66602 -10 -15.999 -10c-4.66699 0 -8.66699 1.5 -12 4.5s-5 6.5 -5 10.5c0 1.33301 0.166992 2.33301 0.5 3s0.5 1.33398 0.5 2.00098l66.5 196l63.5 196c2 6 3.66699 12 5 18s2 12 2 18
c0 7.33301 -1.5 14 -4.5 20s-9.16699 9 -18.5 9c-8 0 -15.833 -2 -23.5 -6s-14.5 -8 -20.5 -12c-10.667 -7.33301 -21 -15.5 -31 -24.5l-29 -26.5c-36.667 -35.333 -71.5 -72.5 -104.5 -111.5s-62.167 -79.833 -87.5 -122.5l-72.5 -126
c-24.333 -42 -47.5 -84.667 -69.5 -128c-4.66699 -2 -9.66699 -3 -15 -3c-3.33301 0 -7.33301 0.666992 -12 2s-7 4.33301 -7 9v4c16 41.333 34.833 82.166 56.5 122.499l63.5 119.5l34.5 63.5l46 84.5c16.333 30.667 31.666 61.334 45.999 92.001s26 59.167 35 85.5
s13.5 48.166 13.5 65.499c0 20 -6.33301 34.333 -19 43s-30 13 -52 13c-20.667 0 -43.5 -3 -68.5 -9s-49.333 -13.5 -73 -22.5s-44.5 -18.167 -62.5 -27.5c-24.667 -12 -50.667 -28.167 -78 -48.5s-53 -43 -77 -68s-43.5 -51.167 -58.5 -78.5s-22.5 -54.333 -22.5 -81
c0 -20 6 -36.333 18 -49s30.333 -19 55 -19c16 0 29.167 2.66699 39.5 8s17.833 8 22.5 8s8.66699 -1.66699 12 -5s5 -7 5 -11c0 -6 -5.33301 -11.167 -16 -15.5s-22.334 -7.5 -35.001 -9.5s-21.667 -3 -27 -3c-34.667 0 -60.667 9.16699 -78 27.5s-26 41.833 -26 70.5
c0 19.333 3.33301 39 10 59s15.667 38.333 27 55c16 23.333 36.167 46.666 60.5 69.999s50.666 45 78.999 65s55.5 36.667 81.5 50c29.333 15.333 63.833 28.666 103.5 39.999s76.834 17 111.501 17c28 0 51.833 -5.5 71.5 -16.5s29.5 -30.167 29.5 -57.5
c0 -17.333 -3.83301 -38.166 -11.5 -62.499s-17.334 -49.666 -29.001 -75.999s-23.334 -51.333 -35.001 -75s-21.834 -43.5 -30.501 -59.5l5 -2l33.5 41c14.333 17.333 30.666 36 48.999 56s37.5 38.833 57.5 56.5s39.5 32.167 58.5 43.5s36.167 17 51.5 17
c19.333 0 32.5 -7 39.5 -21s10.5 -28 10.5 -42c0 -6.66699 -0.666992 -13.334 -2 -20.001l-4 -21c-2.66699 -13.333 -6.5 -26.666 -11.5 -39.999s-9.5 -26.666 -13.5 -39.999l-54 -163l5 -2c24.667 36.667 53.167 76.334 85.5 119.001s66.5 84.334 102.5 125.001
s70.667 75.667 104 105c12 11.333 26.167 21.5 42.5 30.5s33.833 13.5 52.5 13.5c13.333 0 24.333 -3.16699 33 -9.5s13 -15.5 13 -27.5c0 -6.66699 -1.5 -13.334 -4.5 -20.001s-6.5 -13 -10.5 -19c-31.333 -46 -60.833 -96.167 -88.5 -150.5s-51.667 -109.833 -72 -166.5
s-35.833 -112 -46.5 -166c-2 -9.33301 -3.66699 -19 -5 -29s-2 -19.667 -2 -29c0 -15.333 1.83301 -26.666 5.5 -33.999s8 -12.666 13 -15.999l13 -8.5c3.66699 -2.33301 5.5 -6.5 5.5 -12.5c0 -8.66699 -4.33301 -13 -13 -13z" />
    <glyph glyph-name="N" unicode="N" horiz-adv-x="881" 
d="M758 -89c-10 0 -17.8359 3.98926 -23.5029 11.9893s-9.5 17.167 -11.5 27.5s-3 18.5 -3 24.5c0 11.333 1.16699 22.333 3.5 33s4.83301 21.334 7.5 32.001c15.333 49.333 34.833 96.833 58.5 142.5s48.5 90.834 74.5 135.501c12.667 22 26.5 48.167 41.5 78.5
s28.167 61.166 39.5 92.499s17 59.333 17 84c0 16 -3.83301 30.5 -11.5 43.5s-22.5 19.5 -44.5 19.5h-2c-30.667 0 -62.667 -9 -96 -27s-66.5 -41.5 -99.5 -70.5s-64.5 -60 -94.5 -93s-57.167 -65 -81.5 -96s-44.166 -57.167 -59.499 -78.5
c-10.667 -14.667 -20.334 -29.5 -29.001 -44.5l-27 -45.5l-39 -69l-40 -69c-5.33301 -10.667 -11 -21 -17 -31s-12.333 -20 -19 -30c-0.666992 -1.33301 -3 -3.16602 -7 -5.49902s-7 -3.5 -9 -3.5c-4 0 -7.66699 1.5 -11 4.5s-5 6.5 -5 10.5
c0 1.33301 0.166992 2.33301 0.5 3s0.5 1.33398 0.5 2.00098c17.333 37.333 36.333 74.5 57 111.5l59 110.5c34.667 67.333 66.167 135.5 94.5 204.5s49.5 139.833 63.5 212.5c0.666992 3.33301 1.16699 6.83301 1.5 10.5s0.5 7.5 0.5 11.5c0 22 -7.33301 37.667 -22 47
s-33.667 14 -57 14c-19.333 0 -41.166 -2.66699 -65.499 -8s-48.166 -12.166 -71.499 -20.499s-43.666 -17.166 -60.999 -26.499c-24.667 -12.667 -50.334 -28.667 -77.001 -48s-51.5 -40 -74.5 -62s-41.833 -44 -56.5 -66c-9.33301 -14.667 -17 -31 -23 -49
s-9 -35.667 -9 -53c0 -20.667 5.5 -37 16.5 -49s29.167 -18 54.5 -18c18 0 32.167 3.33301 42.5 10s19.833 10 28.5 10s13 -3.66699 13 -11c0 -8 -5.33301 -14.833 -16 -20.5s-22.667 -10 -36 -13s-23.666 -4.5 -30.999 -4.5c-34 0 -60.333 8.83301 -79 26.5
s-28 40.834 -28 69.501c0 20 3.66699 40.333 11 61s16.666 39.667 27.999 57c15.333 22.667 35.5 45.5 60.5 68.5s51.833 44.667 80.5 65s55.334 37.166 80.001 50.499c19.333 10.667 42 20.834 68 30.501s52.5 17.5 79.5 23.5s51.5 9 73.5 9
c33.333 0 59.333 -7.33301 78 -22s28 -36.667 28 -66c0 -19.333 -3.16699 -42.666 -9.5 -69.999s-14.5 -55.666 -24.5 -84.999s-20.167 -57.333 -30.5 -84l-27.5 -69l4 -2l58.5 68c23.667 26.667 50 54.334 79 83.001s59.5 55.334 91.5 80.001s63.667 44.834 95 60.501
s61.333 23.5 90 23.5c32 0 55.5 -7.33301 70.5 -22s22.5 -35.667 22.5 -63s-6 -57.833 -18 -91.5s-26.167 -66.667 -42.5 -99s-31.5 -60.5 -45.5 -84.5c-25.333 -44 -49.5 -88.333 -72.5 -133s-42.167 -91 -57.5 -139c-3.33301 -10.667 -6.5 -21.334 -9.5 -32.001
s-4.5 -21.667 -4.5 -33c0 -12 2 -19.667 6 -23s8 -5.66602 12 -6.99902s6 -5 6 -11c0 -4 -1.66699 -7.5 -5 -10.5s-7.33301 -4.5 -12 -4.5z" />
    <glyph glyph-name="O" unicode="O" horiz-adv-x="816" 
d="M325 -70c-10.667 0 -21.168 0.501953 -31.501 1.50195s-20.833 1.83301 -31.5 2.5c-41.333 5.33301 -75.166 19.833 -101.499 43.5s-45.666 52 -57.999 85s-18.5 65.5 -18.5 97.5c0 29.333 3.83301 58.166 11.5 86.499s17.834 55.833 30.501 82.5
c34 69.333 80.167 131 138.5 185s127.166 96.333 206.499 127l-1 4c-34.667 -1.33301 -71.667 -5.33301 -111 -12s-77.833 -16 -115.5 -28s-70.834 -27 -99.501 -45c-49.333 -29.333 -74 -69.666 -74 -120.999c0 -9.33301 -5.66699 -14 -17 -14
c-10.667 0 -16 4.66699 -16 14c0 60.667 29 108.334 87 143.001c34.667 20.667 74 37.667 118 51s89.333 23.333 136 30s90.334 10 131.001 10h30c10 0 20 -0.666992 30 -2c19.333 4.66699 39 8.33398 59 11.001s40 4 60 4c7.33301 0 17.166 -0.833008 29.499 -2.5
s24.666 -4.33398 36.999 -8.00098s22.833 -8.5 31.5 -14.5s13 -13.667 13 -23c0 -4 -1.66699 -7.16699 -5 -9.5s-7.33301 -3.5 -12 -3.5s-8 1 -10 3s-4 4.66699 -6 8c-6.66699 11.333 -18.667 17.833 -36 19.5s-32.666 2.5 -45.999 2.5c-2 0 -4.16699 -0.166992 -6.5 -0.5
s-4.83301 -0.5 -7.5 -0.5l-1 -4c65.333 -18.667 115.333 -50.834 150 -96.501s52 -98.167 52 -157.5c0 -48.667 -10 -95.834 -30 -141.501s-47.5 -88.334 -82.5 -128.001s-75.667 -74.5 -122 -104.5s-96 -53.333 -149 -70s-107.167 -25 -162.5 -25zM323.999 -40.998
c51.333 0 102.002 7.99902 152.002 23.999s97 38 141 66s82.667 60.5 116 97.5s59.5 77 78.5 120s28.5 87.167 28.5 132.5c0 47.333 -11.333 88.333 -34 123s-53.834 62.167 -93.501 82.5s-85.834 32.833 -138.501 37.5c-96.667 -21.333 -180.667 -60.833 -252 -118.5
s-126 -126.167 -164 -205.5c-12.667 -25.333 -22.667 -51.5 -30 -78.5s-11 -54.5 -11 -82.5c0 -27.333 5 -55.166 15 -83.499s25.833 -52.833 47.5 -73.5s50.5 -33.334 86.5 -38.001c9.33301 -1.33301 19 -2.16602 29 -2.49902s19.667 -0.5 29 -0.5z" />
    <glyph glyph-name="P" unicode="P" horiz-adv-x="766" 
d="M353 201l-48.502 -0.00488281c-17.667 0 -34.167 1.33301 -49.5 4c-9.33301 1.33301 -14 6 -14 14c0 10 6.33301 15 19 15c4.66699 0 9.33398 -0.333008 14.001 -1s9.33398 -1 14.001 -1c12 -0.666992 24 -1.16699 36 -1.5s23.667 -0.5 35 -0.5c41.333 0 85.333 3 132 9
s92 16 136 30s83 33.5 117 58.5s59 56.5 75 94.5c4 10 7.16699 20.333 9.5 31s3.5 21.334 3.5 32.001c0 32.667 -9.33301 60 -28 82s-43 39.5 -73 52.5s-62 22.333 -96 28s-66.333 8.5 -97 8.5h-18c-36.667 -1.33301 -76.167 -4.16602 -118.5 -8.49902
s-84.5 -11.5 -126.5 -21.5s-81 -24 -117 -42s-65.667 -41 -89 -69c-10.667 -12 -19.334 -25.333 -26.001 -40s-10 -29.667 -10 -45c0 -4.66699 0.833008 -9.33398 2.5 -14.001s2.5 -9.33398 2.5 -14.001c0 -4 -1.66699 -7.33301 -5 -10s-7.33301 -4 -12 -4
c-10 0 -16 4.83301 -18 14.5s-3 17.167 -3 22.5c0 17.333 3.5 34.333 10.5 51s15.833 32 26.5 46c24.667 32.667 55.834 59.334 93.501 80.001s78.834 36.667 123.501 48s90 19.5 136 24.5s89.333 8.16699 130 9.5h17c35.333 0 72 -3.33301 110 -10s73.5 -17.667 106.5 -33
s59.833 -35.666 80.5 -60.999s31 -56.666 31 -93.999c0 -25.333 -5 -49.666 -15 -72.999c-17.333 -41.333 -44.333 -75.666 -81 -102.999s-78.667 -49 -126 -65s-96.333 -27.333 -147 -34s-98.334 -10 -143.001 -10zM144.998 -52.0049
c-12.667 0 -22.668 5.6748 -30.001 17.0078s-12.833 24.166 -16.5 38.499s-5.5 25.166 -5.5 32.499c0 5.33301 0.5 10.666 1.5 15.999s2.16699 10.666 3.5 15.999c16.667 55.333 39.334 110.666 68.001 165.999s61.334 109.166 98.001 161.499s74.667 100.833 114 145.5
l22.5 24c7.66699 8 15.5 15.667 23.5 23c6 5.33301 12.5 10.666 19.5 15.999s12.5 11 16.5 17c2 3.33301 4 5.83301 6 7.5s5.33301 2.5 10 2.5c4 0 7.66699 -1.33301 11 -4s5 -6 5 -10c0 -2 -0.333008 -3.66699 -1 -5c-0.666992 -2.66699 -4.66699 -7.33398 -12 -14.001
l-22.5 -20c-7.66699 -6.66699 -12.834 -11.667 -15.501 -15c-6.66699 -6 -13.167 -12.333 -19.5 -19s-12.166 -13.334 -17.499 -20.001c-38.667 -44 -75.834 -91.5 -111.501 -142.5s-67.5 -103.667 -95.5 -158s-50.333 -108.833 -67 -163.5
c-3.33301 -11.333 -5 -21.666 -5 -30.999c0 -18.667 3.16699 -31.5 9.5 -38.5s12.5 -11.667 18.5 -14s9 -6.5 9 -12.5c0 -4 -1.5 -7.66699 -4.5 -11s-7.16699 -5 -12.5 -5z" />
    <glyph glyph-name="Q" unicode="Q" horiz-adv-x="816" 
d="M325 -70c-10.667 0 -21.168 0.501953 -31.501 1.50195s-20.833 1.83301 -31.5 2.5c-41.333 5.33301 -75.166 19.833 -101.499 43.5s-45.666 52 -57.999 85s-18.5 65.5 -18.5 97.5c0 29.333 3.83301 58.166 11.5 86.499s17.834 55.833 30.501 82.5
c34 69.333 80.167 131 138.5 185s127.166 96.333 206.499 127l-1 4c-34.667 -1.33301 -71.667 -5.33301 -111 -12s-77.833 -16 -115.5 -28s-70.834 -27 -99.501 -45c-49.333 -29.333 -74 -69.666 -74 -120.999c0 -9.33301 -5.66699 -14 -17 -14
c-10.667 0 -16 4.66699 -16 14c0 60.667 29 108.334 87 143.001c34.667 20.667 74 37.667 118 51s89.333 23.333 136 30s90.334 10 131.001 10h30c10 0 20 -0.666992 30 -2c19.333 4.66699 39 8.33398 59 11.001s40 4 60 4c7.33301 0 17.166 -0.833008 29.499 -2.5
s24.666 -4.33398 36.999 -8.00098s22.833 -8.5 31.5 -14.5s13 -13.667 13 -23c0 -4 -1.66699 -7.16699 -5 -9.5s-7.33301 -3.5 -12 -3.5s-8 1 -10 3s-4 4.66699 -6 8c-6.66699 11.333 -18.667 17.833 -36 19.5s-32.666 2.5 -45.999 2.5c-2 0 -4.16699 -0.166992 -6.5 -0.5
s-4.83301 -0.5 -7.5 -0.5l-1 -4c65.333 -18.667 115.333 -50.834 150 -96.501s52 -98.167 52 -157.5c0 -48.667 -10 -95.834 -30 -141.501s-47.5 -88.334 -82.5 -128.001s-75.667 -74.5 -122 -104.5s-96 -53.333 -149 -70s-107.167 -25 -162.5 -25zM323.999 -40.998
c51.333 0 102.002 7.99902 152.002 23.999s97 38 141 66s82.667 60.5 116 97.5s59.5 77 78.5 120s28.5 87.167 28.5 132.5c0 47.333 -11.333 88.333 -34 123s-53.834 62.167 -93.501 82.5s-85.834 32.833 -138.501 37.5c-96.667 -21.333 -180.667 -60.833 -252 -118.5
s-126 -126.167 -164 -205.5c-12.667 -25.333 -22.667 -51.5 -30 -78.5s-11 -54.5 -11 -82.5c0 -27.333 5 -55.166 15 -83.499s25.833 -52.833 47.5 -73.5s50.5 -33.334 86.5 -38.001c9.33301 -1.33301 19 -2.16602 29 -2.49902s19.667 -0.5 29 -0.5zM625.001 -261.999
c-35.333 0 -70.998 5.33301 -106.998 16s-71.833 23.834 -107.5 39.501l-106 47c-35 15.667 -69.333 28.834 -103 39.501s-66.5 16 -98.5 16c-14.667 0 -28.667 -3.5 -42 -10.5s-20 -18.167 -20 -33.5c0 -12.667 5 -22.834 15 -30.501s19.833 -14 29.5 -19
s14.5 -10.167 14.5 -15.5c0 -10 -5.33301 -15 -16 -15c-2.66699 0 -5.33398 0.666992 -8.00098 2c-16.667 7.33301 -33 17.5 -49 30.5s-24 28.5 -24 46.5c0 17.333 8.5 33.166 25.5 47.499s34.833 22.5 53.5 24.5c3.33301 0.666992 6.5 1 9.5 1h8.5
c32.667 0 66.5 -5.33301 101.5 -16s70.167 -23.667 105.5 -39l107 -46c36 -15.333 71.5 -28.333 106.5 -39s69.5 -16 103.5 -16c18.667 0 37.167 2.83301 55.5 8.5s32.833 15.5 43.5 29.5c1.33301 2 3 4.83301 5 8.5s3 6.83398 3 9.50098c0 4 1.66699 7.33301 5 10
s7.33301 4 12 4c11.333 0 17 -4.66699 17 -14c0 -4 -1.33301 -9 -4 -15s-5.33398 -10.667 -8.00098 -14c-12.667 -20.667 -30.667 -35.334 -54 -44.001s-48 -13 -74 -13z" />
    <glyph glyph-name="R" unicode="R" horiz-adv-x="766" 
d="M145 -52c-12 0 -21.835 5.66406 -29.502 16.9971s-13.334 24 -17.001 38s-5.5 24.667 -5.5 32c0 11.333 2.83301 26.333 8.5 45s12.5 38.167 20.5 58.5s16.167 39.666 24.5 57.999s15.5 32.833 21.5 43.5c-14 10 -25.333 20.5 -34 31.5s-13 24.833 -13 41.5
c0 12.667 3.66699 22.667 11 30s18.333 11 33 11c10 0 20 -1.5 30 -4.5s19.333 -6.83301 28 -11.5c21.333 32.667 45.833 67.5 73.5 104.5s54.834 69.833 81.501 98.5c3.33301 3.33301 7.5 7 12.5 11s10.5 6 16.5 6s9 -3.33301 9 -10c0 -4.66699 -1.33301 -9 -4 -13
s-5.33398 -7.66699 -8.00098 -11l-26 -31l-26 -31c-18.667 -23.333 -36.5 -47.333 -53.5 -72s-33.167 -49.667 -48.5 -75c14.667 -13.333 28.834 -27.166 42.501 -41.499l40.5 -43.5h30c41.333 0 85 3 131 9s90.833 16.167 134.5 30.5s82.334 33.833 116.001 58.5
s58.5 56 74.5 94c8.66699 22 13 43 13 63c0 32.667 -9.33301 60 -28 82s-43 39.5 -73 52.5s-62 22.333 -96 28s-66.333 8.5 -97 8.5h-18c-36.667 0 -76.167 -2.16699 -118.5 -6.5s-84.5 -11.666 -126.5 -21.999s-81 -24.666 -117 -42.999s-65.667 -41.5 -89 -69.5
c-10.667 -12 -19.334 -25.333 -26.001 -40s-10 -29.667 -10 -45c0 -4.66699 0.833008 -9.33398 2.5 -14.001s2.5 -9.33398 2.5 -14.001c0 -4 -1.66699 -7.33301 -5 -10s-7.33301 -4 -12 -4c-10 0 -16 4.83301 -18 14.5s-3 17.167 -3 22.5c0 17.333 3.5 34.333 10.5 51
s15.833 32 26.5 46c24.667 32.667 55.834 59.5 93.501 80.5s78.834 37.5 123.501 49.5s90 20.333 136 25s89.333 7 130 7h17c35.333 0 72.166 -3.33301 110.499 -10s74 -17.667 107 -33s59.667 -35.833 80 -61.5s30.5 -57.167 30.5 -94.5c0 -24.667 -5 -48.667 -15 -72
c-18 -40.667 -45 -74.667 -81 -102s-77.167 -49 -123.5 -65s-94.333 -27.5 -144 -34.5s-97.167 -10.833 -142.5 -11.5l21.5 -22.5l20.5 -23.5l35.5 -40c15.667 -17.333 33 -34.833 52 -52.5s38 -32.667 57 -45s36.167 -18.5 51.5 -18.5s27.5 3.33301 36.5 10
s16.833 10 23.5 10c10.667 0 16 -5 16 -15c0 -6 -5.16699 -11.667 -15.5 -17s-21.666 -9.5 -33.999 -12.5s-21.5 -4.5 -27.5 -4.5c-16 0 -32.333 3.66699 -49 11c-12.667 5.33301 -27 14.666 -43 27.999s-32.167 28.333 -48.5 45l-46 48l-34.5 37l-58 63
c-17.333 1.33301 -31.833 2.33301 -43.5 3s-23 2.33398 -34 5.00098s-24.833 7.33398 -41.5 14.001l-20.5 -42c-8.33301 -17.333 -16.5 -35.666 -24.5 -54.999s-14.667 -37.666 -20 -54.999s-8 -31.333 -8 -42c0 -18.667 3.16699 -31.5 9.5 -38.5s12.5 -11.667 18.5 -14
s9 -6.5 9 -12.5c0 -4 -1.5 -7.66699 -4.5 -11s-7.16699 -5 -12.5 -5zM183.998 265.997c5.33301 9.33301 10.166 18.3311 14.499 26.998s9.16602 17.334 14.499 26.001c-11.333 9.33301 -23.666 14 -36.999 14c-14.667 0 -22 -6 -22 -18
c0 -9.33301 3.33301 -18.166 10 -26.499s13.334 -15.833 20.001 -22.5zM291.998 231.995l-27.5 30.499l-27.5 31.5c-4.66699 -7.33301 -9 -15 -13 -23l-12 -23c14 -6.66699 27 -10.667 39 -12s25.667 -2.66602 41 -3.99902z" />
    <glyph glyph-name="S" unicode="S" horiz-adv-x="702" 
d="M161 -55c-31.333 0 -59.9951 3.83301 -85.9951 11.5s-46.667 20.334 -62 38.001s-23 41.834 -23 72.501c0 26 6.66699 50.667 20 74s31.333 44 54 62s47.667 31.333 75 40c10.667 3.33301 22.834 6.5 36.501 9.5s25.834 4.5 36.501 4.5s16 -5 16 -15
c0 -7.33301 -4.33301 -12 -13 -14c-10.667 -2.66699 -21.5 -4.5 -32.5 -5.5s-22.167 -3.16699 -33.5 -6.5c-22.667 -7.33301 -43.834 -18.5 -63.501 -33.5s-35.334 -32.333 -47.001 -52s-17.5 -40.5 -17.5 -62.5c0 -24.667 6.66699 -44 20 -58s30.666 -24 51.999 -30
s44.333 -9 69 -9c34.667 0 73.167 4.5 115.5 13.5s85.166 21.833 128.499 38.5s84.333 36.334 123 59.001s72 47.667 100 75s47.333 56.333 58 87c2 5.33301 3.66699 11 5 17s2 12 2 18c0 18.667 -4.83301 33.167 -14.5 43.5s-22.334 18 -38.001 23
s-32.334 8.16699 -50.001 9.5s-34.5 2 -50.5 2c-34.667 0 -69.5 -1.5 -104.5 -4.5s-70.167 -4.5 -105.5 -4.5c-20 0 -41 1.66699 -63 5s-40.5 10.333 -55.5 21s-22.5 27 -22.5 49c0 28.667 9 54 27 76s41.833 41 71.5 57s62 29.167 97 39.5s69.5 17.833 103.5 22.5
s64.333 7 91 7c15.333 0 33 -0.833008 53 -2.5s39.5 -5.16699 58.5 -10.5s34.667 -13.5 47 -24.5s18.5 -25.5 18.5 -43.5c0 -14.667 -3.66699 -25.334 -11 -32.001s-17 -14.334 -29 -23.001c-1.33301 -0.666992 -2.83301 -1.5 -4.5 -2.5s-3.83398 -1.5 -6.50098 -1.5
c-4 0 -7.83301 1.5 -11.5 4.5s-5.5 6.5 -5.5 10.5c0 6 3 10.333 9 13s11.833 6 17.5 10s8.5 11 8.5 21c0 12 -5.5 21.5 -16.5 28.5s-24.667 12.167 -41 15.5s-32.333 5.5 -48 6.5s-28.5 1.5 -38.5 1.5c-22 0 -47.333 -1.83301 -76 -5.5s-58.167 -9.33398 -88.5 -17.001
s-59 -17.5 -86 -29.5s-49.667 -26.5 -68 -43.5s-30.166 -36.833 -35.499 -59.5c-0.666992 -2.66699 -1.16699 -5.16699 -1.5 -7.5s-0.5 -4.83301 -0.5 -7.5c0 -16 6.33301 -27.5 19 -34.5s27.667 -11.167 45 -12.5s32.666 -2 45.999 -2c35.333 0 70.333 1.33301 105 4
s69.334 4 104.001 4c20.667 0 41.834 -1.16699 63.501 -3.5s41.667 -7 60 -14s33.166 -17.333 44.499 -31s17 -31.834 17 -54.501c0 -14.667 -3 -29.667 -9 -45c-12 -34 -32.667 -65.833 -62 -95.5s-64.333 -56.5 -105 -80.5s-83.834 -44.667 -129.501 -62
s-91 -30.666 -136 -39.999s-86.833 -14 -125.5 -14z" />
    <glyph glyph-name="T" unicode="T" horiz-adv-x="575" 
d="M189 459c-12 0 -28.5029 0.833008 -49.5029 2.5s-41.5 4.16699 -61.5 7.5s-35.333 8 -46 14c-14 8.66699 -26.833 19 -38.5 31s-17.5 26 -17.5 42c0 19.333 8 36.5 24 51.5s35.833 27.5 59.5 37.5s47.834 17.833 72.501 23.5s45.667 8.83398 63 9.50098
c8 0.666992 15.833 1 23.5 1h23.5c73.333 0 146.333 -7.66699 219 -23s144.334 -31.333 215.001 -48c44 -10.667 89.333 -20.667 136 -30s93 -14 139 -14c7.33301 0 16.666 0.5 27.999 1.5s21.5 3.5 30.5 7.5s13.5 10.333 13.5 19c0 6.66699 -2.16699 11.5 -6.5 14.5
s-8.83301 5.66699 -13.5 8s-7 5.83301 -7 10.5c0 4 1.83301 7.66699 5.5 11s7.83398 5 12.501 5c6.66699 0 13.834 -3 21.501 -9s14.334 -13 20.001 -21s8.5 -15.333 8.5 -22c0 -15.333 -6.66699 -26.833 -20 -34.5s-28.833 -12.667 -46.5 -15s-32.834 -3.5 -45.501 -3.5
c-46 0 -92.167 4.66699 -138.5 14s-91.833 19.333 -136.5 30c-70 16.667 -141.167 32.5 -213.5 47.5s-145.166 22.5 -218.499 22.5h-23.5c-7.66699 0 -15.5 -0.333008 -23.5 -1c-18.667 -1.33301 -40.334 -4.83301 -65.001 -10.5s-47.834 -13.5 -69.501 -23.5
s-37.5 -22.667 -47.5 -38c-4.66699 -6.66699 -7 -13 -7 -19c0 -10.667 4.83301 -20.334 14.5 -29.001s19.167 -15.667 28.5 -21c8.66699 -5.33301 21.834 -9.5 39.501 -12.5s35.667 -5 54 -6s32.5 -1.5 42.5 -1.5c27.333 0 54.333 1.66699 81 5s52.667 8.33301 78 15l20 7
l30.5 10.5c11 3.66699 20.333 7 28 10s11.834 4.5 12.501 4.5c5.33301 0 9.66602 -1.83301 12.999 -5.5s5 -7.5 5 -11.5c0 -4.66699 -3.33301 -8.66699 -10 -12c-12.667 -6.66699 -27 -12.5 -43 -17.5s-31.667 -9.5 -47 -13.5c-54 -14 -109.667 -21 -167 -21zM330.997 -40
c-10.667 0 -16.001 4.99805 -16.001 14.998c0 7.33301 1.83301 16 5.5 26l9.50098 25c16 39.333 34.833 78.333 56.5 117l63.5 115c6 11.333 15 27.5 27 48.5s24.167 43.667 36.5 68s23 46.833 32 67.5s13.5 36.334 13.5 47.001c0 3.33301 -0.666992 6.16602 -2 8.49902
s-2 4.83301 -2 7.5c0 3.33301 1.66699 6.33301 5 9s7.33301 4 12 4c8.66699 0 14 -3.33301 16 -10s3 -13 3 -19c0 -13.333 -4.33301 -30.833 -13 -52.5s-19.167 -44.667 -31.5 -69l-36.5 -69l-29 -52.5l-63 -113c-21.333 -38 -40 -76.667 -56 -116
c-2.66699 -7.33301 -5.16699 -14.666 -7.5 -21.999s-4.5 -14.666 -6.5 -21.999c-2 -8.66699 -7.66699 -13 -17 -13z" />
    <glyph glyph-name="U" unicode="U" horiz-adv-x="769" 
d="M684 -31c-18.667 0 -30.8262 5.6709 -36.4932 17.0039s-8.5 23.666 -8.5 36.999c0 18.667 3 40.5 9 65.5s13.167 49.833 21.5 74.5s16.166 45.667 23.499 63l-4 2l-54.5 -66.5c-21.667 -25.667 -45.667 -50.667 -72 -75s-54 -44.5 -83 -60.5s-58.167 -24 -87.5 -24
c-24.667 0 -41.334 6.83301 -50.001 20.5s-13 29.834 -13 48.501c0 19.333 3.16699 40.5 9.5 63.5s14.166 45.833 23.499 68.5s18.333 43 27 61c6 12.667 15.5 30.834 28.5 54.501l43 78.5l45.5 85c14.667 28 26.667 53.167 36 75.5s14 38.5 14 48.5
c0 14.667 -4.5 26 -13.5 34s-20.333 13.833 -34 17.5s-27.5 5.5 -41.5 5.5c-23.333 0 -48.333 -3 -75 -9s-52.667 -13.833 -78 -23.5s-48 -19.834 -68 -30.501c-22.667 -12.667 -46.834 -28.167 -72.501 -46.5s-49.834 -39 -72.501 -62s-41.167 -47 -55.5 -72
s-21.5 -50.167 -21.5 -75.5c0 -24.667 9 -40.834 27 -48.501s39.333 -11.5 64 -11.5c30 0 58.333 5.66699 85 17c4 1.33301 7 2 9 2c5.33301 0 9.66602 -1.5 12.999 -4.5s5 -6.5 5 -10.5c0 -6 -5 -11 -15 -15s-22 -7.33301 -36 -10s-27.167 -4.66699 -39.5 -6
s-20.833 -2 -25.5 -2c-36.667 0 -65.334 7 -86.001 21s-31 38 -31 72c0 18 3 36.167 9 54.5s14.333 35.166 25 50.499c14 21.333 32.833 42.666 56.5 63.999s49 41.5 76 60.5s52.167 34.833 75.5 47.5c21.333 12 45.5 22.667 72.5 32s54.5 16.833 82.5 22.5
s54.667 8.5 80 8.5c18.667 0 37.167 -2.33301 55.5 -7s33.666 -12.667 45.999 -24s18.5 -27 18.5 -47c0 -10.667 -4.83301 -27.5 -14.5 -50.5s-21.834 -49.333 -36.501 -79l-46 -89.5l-44 -82l-30 -56c-8 -15.333 -16.667 -33.5 -26 -54.5s-17.333 -42 -24 -63
s-10 -40.167 -10 -57.5c0 -12 2.66699 -22.5 8 -31.5s16 -13.5 32 -13.5c24.667 0 50.5 8 77.5 24s53.833 37.333 80.5 64s52.667 56.167 78 88.5s49 64.833 71 97.5l59 91l41 68c2.66699 4.66699 8 13.167 16 25.5s16.833 24 26.5 35s17.834 16.5 24.501 16.5
c3.33301 0 5.33301 -1.33301 6 -4s1 -5 1 -7c0 -8.66699 -2.66699 -19.334 -8 -32.001s-11.5 -25.167 -18.5 -37.5s-12.833 -22.166 -17.5 -29.499c-36.667 -60 -70 -122.333 -100 -187s-50.667 -130.667 -62 -198l-2 -12c-0.666992 -4 -1 -8.33301 -1 -13
c0 -7.33301 1.66699 -13.833 5 -19.5s10 -8.5 20 -8.5c7.33301 0 13.833 1.16699 19.5 3.5s11.5 3.5 17.5 3.5s9 -2.66699 9 -8c0 -6 -3.83301 -10.833 -11.5 -14.5s-16.167 -6.33398 -25.5 -8.00098s-16.666 -2.5 -21.999 -2.5z" />
    <glyph glyph-name="V" unicode="V" horiz-adv-x="692" 
d="M435 -28c-3.33301 0 -7.33594 0.670898 -12.0029 2.00391s-7 4.33301 -7 9v3c22.667 69.333 42.834 138.833 60.501 208.5s33.834 139.834 48.501 210.501c5.33301 22 10.166 44.167 14.499 66.5s8.16602 44.833 11.499 67.5c2 10.667 3.83301 21.5 5.5 32.5
s2.5 21.833 2.5 32.5c0 22.667 -8.33301 39 -25 49s-36.667 15 -60 15c-34.667 0 -72.5 -7 -113.5 -21s-81.667 -32.5 -122 -55.5s-76.666 -47.833 -108.999 -74.5s-56.833 -53 -73.5 -79c-8.66699 -13.333 -15.667 -28.333 -21 -45s-8 -32.667 -8 -48
c0 -26 8.66699 -42.667 26 -50s39 -11 65 -11c14.667 0 28.834 1.16699 42.501 3.5s26.834 6.16602 39.501 11.499c4 1.33301 7 2 9 2c4.66699 0 8.83398 -1.5 12.501 -4.5s5.5 -6.5 5.5 -10.5c0 -6 -4.66699 -11 -14 -15s-20.666 -7.33301 -33.999 -10
s-25.833 -4.5 -37.5 -5.5s-19.834 -1.5 -24.501 -1.5c-34.667 0 -64.667 6.83301 -90 20.5s-38 37.5 -38 71.5c0 28.667 8 56.667 24 84s36.5 53.166 61.5 77.499s51.833 46.5 80.5 66.5s55.667 37 81 51c21.333 12 45.666 23.167 72.999 33.5s55.333 18.666 84 24.999
s55.667 9.5 81 9.5c30.667 0 57.834 -6.66699 81.501 -20s35.5 -35 35.5 -65c0 -15.333 -1.5 -32.833 -4.5 -52.5s-6.5 -39.5 -10.5 -59.5l-11 -53c-10.667 -55.333 -22.5 -110.5 -35.5 -165.5l-40.5 -164.5l4 -2c36.667 51.333 75 102 115 152s81.333 98.667 124 146
l105.5 111c36.333 36.667 74.833 71 115.5 103c19.333 15.333 42.333 30.166 69 44.499s53.334 21.5 80.001 21.5c13.333 0 26 -3 38 -9s18 -15.667 18 -29c0 -4.66699 -1.16699 -9.33398 -3.5 -14.001s-6.83301 -7 -13.5 -7s-11.334 2.33301 -14.001 7
s-4 9.33398 -4 14.001c0 5.33301 -2.33301 9 -7 11s-9.66699 3 -15 3c-13.333 0 -28 -3.66699 -44 -11s-31.333 -16 -46 -26s-26.667 -18.667 -36 -26c-40 -31.333 -80.167 -67.333 -120.5 -108s-79.833 -83.5 -118.5 -128.5s-75 -90.167 -109 -135.5
s-64.667 -88.333 -92 -129c-16.667 -24 -32 -48 -46 -72c-4 -6.66699 -7.83301 -13.834 -11.5 -21.501s-7.83398 -15.167 -12.501 -22.5c-6 -8.66699 -16 -13 -30 -13z" />
    <glyph glyph-name="W" unicode="W" horiz-adv-x="1053" 
d="M291 -56c-20 0 -33.1621 6.1709 -39.4951 18.5039s-9.5 25.833 -9.5 40.5c0 17.333 3.5 37.833 10.5 61.5s16 48 27 73s22.333 48.833 34 71.5s21.834 41.667 30.501 57l29.5 50.5l46 80.5l49.5 89.5c16 29.667 29.167 55.834 39.5 78.501s15.5 38 15.5 46
c0 19.333 -6.83301 32.666 -20.5 39.999s-30.167 11 -49.5 11c-30.667 0 -66 -6.5 -106 -19.5s-80.5 -30.5 -121.5 -52.5s-79 -47.167 -114 -75.5s-63.167 -57.833 -84.5 -88.5s-32 -60.667 -32 -90c0 -14.667 4.33301 -25.834 13 -33.501s19.667 -12.667 33 -15
s27 -3.5 41 -3.5c15.333 0 30.166 1.66699 44.499 5s28.166 7.33301 41.499 12c1.33301 0.666992 2.66602 1.16699 3.99902 1.5s2.66602 0.5 3.99902 0.5c10.667 0 16 -4.66699 16 -14c0 -6 -5 -11.167 -15 -15.5s-21.833 -7.83301 -35.5 -10.5s-26.834 -4.66699 -39.501 -6
s-21.667 -2 -27 -2c-19.333 0 -38.166 2.5 -56.499 7.5s-33.166 13.333 -44.499 25s-17 27.5 -17 47.5s5.16699 40.667 15.5 62s21.833 40.333 34.5 57c16 21.333 36.5 42.666 61.5 63.999s51.5 41.333 79.5 60s54.333 34.334 79 47.001c20.667 11.333 44.167 22 70.5 32
s53.166 18.167 80.499 24.5s53.333 9.5 78 9.5c29.333 0 53.333 -6 72 -18s28 -32 28 -60v-2c0 -10.667 -5.16699 -27.834 -15.5 -51.501s-23.333 -50.5 -39 -80.5l-49.5 -90.5l-47.5 -82l-31.5 -53.5c-8 -12.667 -17.5 -29.834 -28.5 -51.501
s-21.833 -44.834 -32.5 -69.501s-19.5 -48.167 -26.5 -70.5s-10.5 -40.5 -10.5 -54.5c0 -7.33301 1.66699 -14.5 5 -21.5s10.333 -10.5 21 -10.5c17.333 0 38.666 8.16699 63.999 24.5s52.166 37 80.499 62s55.833 51.333 82.5 79l71.5 76.5c21 23.333 36.167 41 45.5 53
c2.66699 11.333 7.16699 26.166 13.5 44.499s14.333 37.833 24 58.5s20.667 40.167 33 58.5s25.5 33.333 39.5 45s28.667 17.5 44 17.5c5.33301 0 11 -1.16699 17 -3.5s9 -6.5 9 -12.5c0 -2.66699 -0.333008 -4.66699 -1 -6c-18.667 -37.333 -41 -74 -67 -110
s-52.667 -70.667 -80 -104c-2.66699 -14.667 -4.83398 -29.334 -6.50098 -44.001s-2.5 -29.667 -2.5 -45c0 -21.333 2.66699 -42.166 8 -62.499s15.666 -37.166 30.999 -50.499s38 -20 68 -20c34.667 0 67.667 8.83301 99 26.5s57.666 37.834 78.999 60.501
c27.333 28 51.833 60.667 73.5 98s39 76.166 52 116.499s19.5 78.833 19.5 115.5c0 20.667 -2.66699 39.334 -8 56.001s-18.333 31.334 -39 44.001c-5.33301 3.33301 -8 7.33301 -8 12c0 3.33301 1.5 6.66602 4.5 9.99902s6.83301 5 11.5 5
c2.66699 0 5.33398 -0.666992 8.00098 -2c25.333 -12 42.333 -29.333 51 -52s13 -45.667 13 -69c0 -30.667 -5.5 -65.834 -16.5 -105.501s-27 -79.667 -48 -120s-46.167 -77.5 -75.5 -111.5s-62.5 -61.5 -99.5 -82.5s-76.833 -31.5 -119.5 -31.5
c-31.333 0 -56.333 6.66699 -75 20s-32.5 30.666 -41.5 51.999s-14.667 43.833 -17 67.5s-3.16602 45.834 -2.49902 66.501c-11.333 -13.333 -27.166 -31 -47.499 -53s-43.333 -45.333 -69 -70s-52.167 -48 -79.5 -70s-53.833 -40 -79.5 -54s-49.167 -21 -70.5 -21z" />
    <glyph glyph-name="X" unicode="X" horiz-adv-x="693" 
d="M-78 -141c-4.66699 0 -8.82812 1.33691 -12.4951 4.00391s-5.5 6.33398 -5.5 11.001c0 2.66699 1 5 3 7c55.333 81.333 121 157.5 197 228.5s154.333 137.833 235 200.5l-11.5 56c-5 24 -11 49.5 -18 76.5s-15.333 51.5 -25 73.5s-20.167 37.333 -31.5 46
c-7.33301 5.33301 -15 10 -23 14s-17 6 -27 6c-14.667 0 -27.834 -4 -39.501 -12s-21.334 -17.833 -29.001 -29.5s-13.5 -22.834 -17.5 -33.501c-2.66699 -6.66699 -4.66699 -13 -6 -19s-3 -12.333 -5 -19s-7 -10 -15 -10c-4.66699 0 -8.83398 1.16699 -12.501 3.5
s-5.5 5.83301 -5.5 10.5l1 2c2 19.333 7.66699 39.333 17 60s22.833 38.334 40.5 53.001s39.834 22 66.501 22c13.333 0 26.5 -2.33301 39.5 -7s24.833 -10.667 35.5 -18c12 -8 23.333 -22.833 34 -44.5s20.167 -46.167 28.5 -73.5s15.666 -53.166 21.999 -77.499
s10.833 -42.833 13.5 -55.5l201 146l80 59.5c26.667 20.333 52.334 41.166 77.001 62.499l22 20l22 20c4 4 8.33301 6 13 6c4 0 7.5 -1.5 10.5 -4.5s4.5 -6.16699 4.5 -9.5c0 -2 -1.33301 -5 -4 -9c-24.667 -25.333 -51.667 -49.333 -81 -72l-88 -66l-125 -92.5l-125 -93.5
c6 -26.667 11.667 -53.167 17 -79.5l16 -79.5l8 -43c2.66699 -14.667 6.33398 -29 11.001 -43c5.33301 -14.667 13.166 -29 23.499 -43s25.833 -21 46.5 -21c17.333 0 33.666 5.16699 48.999 15.5s29 22.666 41 36.999s21.333 27.5 28 39.5c3.33301 6 6.33301 12 9 18l8 18
c3.33301 7.33301 8.66602 11 15.999 11c4.66699 0 8.83398 -1.33301 12.501 -4s5.5 -6.33398 5.5 -11.001c0 -2 -0.333008 -3.66699 -1 -5c-8 -20.667 -20.5 -42.834 -37.5 -66.501s-37.167 -43.834 -60.5 -60.501s-49.333 -25 -78 -25c-29.333 0 -51.333 9.5 -66 28.5
s-25.334 39.167 -32.001 60.5c-10.667 37.333 -19.334 75.5 -26.001 114.5s-13.667 77.5 -21 115.5c-58 -44.667 -114.167 -91.5 -168.5 -140.5s-105.166 -100.5 -152.499 -154.5c-16.667 -18.667 -32.167 -37.834 -46.5 -57.501l-43.5 -59.5
c-4.66699 -4.66699 -9.33398 -7 -14.001 -7z" />
    <glyph glyph-name="Y" unicode="Y" horiz-adv-x="827" 
d="M203 -338c-14.667 0 -30.5039 1.83301 -47.5039 5.5s-31.5 9.83398 -43.5 18.501s-18 21 -18 37c0 14 6.66699 27.833 20 41.5s28.833 26 46.5 37s32.5 19.5 44.5 25.5c34 17.333 71.833 32 113.5 44s84.167 21.833 127.5 29.5s84.333 13.167 123 16.5
c12.667 15.333 24.334 31 35.001 47s20.667 32.333 30 49c26.667 49.333 51.334 99.833 74.001 151.5l65 154.5l-4 1l-51.5 -69c-20.333 -26.667 -43 -54 -68 -82s-51.667 -54 -80 -78s-57.166 -43.333 -86.499 -58s-58.666 -22 -87.999 -22
c-33.333 0 -56.833 8.33301 -70.5 25s-20.5 38.334 -20.5 65.001c0 29.333 5.83301 59.5 17.5 90.5s25.167 58.833 40.5 83.5l71 112.5c24 37.667 45.667 76.167 65 115.5c4.66699 8.66699 9.83398 19.334 15.501 32.001s10.834 25.5 15.501 38.5s7 24.167 7 33.5
c0 10 -3.83301 18 -11.5 24s-16.834 10.167 -27.501 12.5s-20.667 3.5 -30 3.5c-20.667 0 -43.334 -3.16699 -68.001 -9.5s-48.667 -14.166 -72 -23.499s-44.333 -18.333 -63 -27s-39.5 -21.667 -62.5 -39s-44.833 -36.833 -65.5 -58.5s-37.667 -43.834 -51 -66.501
s-20 -44 -20 -64c0 -22.667 9.5 -38.667 28.5 -48s39.833 -14 62.5 -14c16 0 32 1.83301 48 5.5s30.667 8.83398 44 15.501c4 2 7.66699 3 11 3c4.66699 0 8.66699 -1.5 12 -4.5s5 -6.5 5 -10.5c0 -6.66699 -5 -12.334 -15 -17.001s-22 -8.5 -36 -11.5
s-27.167 -5.16699 -39.5 -6.5s-21.166 -2 -26.499 -2c-20.667 0 -40.667 3.16699 -60 9.5s-35 16 -47 29s-18 29.5 -18 49.5c0 23.333 6.83301 47.666 20.5 72.999s31.334 49.833 53.001 73.5s45 45 70 64s48.5 33.833 70.5 44.5c31.333 15.333 67 29.166 107 41.499
s78 18.5 114 18.5c14.667 0 29.5 -1.66699 44.5 -5s27.667 -9.16602 38 -17.499s15.5 -20.166 15.5 -35.499c0 -18.667 -4.16699 -39.334 -12.5 -62.001s-16.833 -42.667 -25.5 -60c-19.333 -40 -41.333 -79 -66 -117l-72 -114
c-8.66699 -14.667 -17.834 -31.334 -27.501 -50.001s-17.834 -37.667 -24.501 -57s-10 -37.333 -10 -54c0 -40 23.333 -60 70 -60c25.333 0 50 6.33301 74 19s46.667 27.834 68 45.501s39.333 34.167 54 49.5c33.333 33.333 64 68.666 92 105.999s54.667 75 80 113
l22.5 34.5c7.66699 11.667 14.834 23.167 21.501 34.5c4 6 7.83301 12.333 11.5 19s7.83398 12.667 12.501 18c2.66699 3.33301 5.66699 6.66602 9 9.99902s7.66602 5 12.999 5s9.16602 -1.83301 11.499 -5.5s3.5 -7.5 3.5 -11.5s-1 -8 -3 -12
c-13.333 -36 -27.5 -72 -42.5 -108l-45.5 -107l-55 -126c-18.667 -42 -39 -83.333 -61 -124c-14.667 -26 -31.334 -52.667 -50.001 -80c8 0.666992 16 1 24 1h23c12 0 27.833 -0.5 47.5 -1.5s40.167 -2.33301 61.5 -4s41.333 -3.83398 60 -6.50098s33.334 -6 44.001 -10
c8.66699 -3.33301 13 -8.33301 13 -15c0 -3.33301 -1.33301 -6.66602 -4 -9.99902s-6.66699 -5 -12 -5c-2.66699 0 -4.66699 0.333008 -6 1c-10 3.33301 -20.167 5.83301 -30.5 7.5s-20.833 3.16699 -31.5 4.5c-42.667 6 -85.667 9 -129 9
c-14.667 0 -29.167 -0.333008 -43.5 -1s-28.833 -1.66699 -43.5 -3c-22 -26 -47 -52.333 -75 -79s-58.167 -51 -90.5 -73s-67 -39.667 -104 -53s-75.5 -20 -115.5 -20zM188.996 -313c18.667 0 37.999 2.16895 57.999 6.50195s38.333 9.16602 55 14.499
c30.667 10 60.667 24.5 90 43.5s57 40.167 83 63.5s48.667 45.666 68 66.999c-54 -4 -109.167 -12.5 -165.5 -25.5s-108.166 -31.167 -155.499 -54.5c-9.33301 -4.66699 -21.333 -11.334 -36 -20.001s-27.667 -18.167 -39 -28.5s-17 -21.166 -17 -32.499
c0 -14 6.66699 -23.167 20 -27.5s26.333 -6.5 39 -6.5z" />
    <glyph glyph-name="Z" unicode="Z" horiz-adv-x="701" 
d="M718 -116c-46 0 -89.3252 4.50488 -129.992 13.5049s-79.834 20.667 -117.501 35s-75.5 29.5 -113.5 45.5s-77.667 31 -119 45c-28.667 -16.667 -59.167 -31.667 -91.5 -45s-66.166 -20 -101.499 -20c-14.667 0 -29.334 2 -44.001 6s-26.667 10.667 -36 20
s-14 21.333 -14 36c0 15.333 5.16699 28.666 15.5 39.999s23.333 20 39 26s31.5 9 47.5 9c13.333 0 31.666 -2.5 54.999 -7.5s46.666 -10.667 69.999 -17s41.666 -11.5 54.999 -15.5c66.667 40.667 129.334 86.167 188.001 136.5l172 151.5l120.5 104.5
c41 34.333 83.833 66.166 128.5 95.499l-153 39c-51.333 12.667 -103.666 19 -156.999 19c-16 0 -31.833 -0.833008 -47.5 -2.5s-31.167 -4.16699 -46.5 -7.5c-24.667 -6 -47.667 -17.667 -69 -35s-36.333 -36.666 -45 -57.999c-3.33301 -10 -5 -19 -5 -27
c0 -4.66699 0.833008 -9.5 2.5 -14.5s2.5 -9.83301 2.5 -14.5c0 -9.33301 -5.33301 -14 -16 -14c-9.33301 0 -15.333 5 -18 15s-4 18 -4 24c0 14 2 27 6 39c5.33301 16.667 15.166 32.834 29.499 48.501s31.166 29.334 50.499 41.001s38.333 19.834 57 24.501
c13.333 3.33301 27.166 5.66602 41.499 6.99902s28.5 2 42.5 2c42 0 82.5 -4.16699 121.5 -12.5s77.667 -18 116 -29s77.166 -20.5 116.499 -28.5c13.333 7.33301 28 14.666 44 21.999s32 11 48 11c6 0 13.5 -0.833008 22.5 -2.5s16.833 -4.33398 23.5 -8.00098
s10 -9.16699 10 -16.5c0 -8.66699 -4.33301 -15.834 -13 -21.501s-18.5 -9.83398 -29.5 -12.501s-20.5 -4 -28.5 -4c-10.667 0 -21.334 0.833008 -32.001 2.5s-21.334 3.5 -32.001 5.5c-30.667 -17.333 -61.167 -38.166 -91.5 -62.499s-59.833 -49.333 -88.5 -75l-82 -73.5
l-167.5 -146c-57 -48.667 -116.833 -93.667 -179.5 -135c50 -18 98.833 -37 146.5 -57s96.5 -37.167 146.5 -51.5s103 -21.5 159 -21.5c24 0 49.167 2 75.5 6s48.833 11.333 67.5 22c8 5.33301 13.833 9.66602 17.5 12.999s7.16699 8.33301 10.5 15
c2 3.33301 4 6.16602 6 8.49902s5.33301 3.5 10 3.5c4.66699 -0.666992 8.66699 -2.33398 12 -5.00098s5 -6 5 -10c0 -9.33301 -5 -18.5 -15 -27.5s-19 -15.833 -27 -20.5c-22 -12.667 -48.5 -21.5 -79.5 -26.5s-60.167 -7.5 -87.5 -7.5zM44.0078 -12.9951
c28.667 0 55.833 4.83203 81.5 14.499s50.167 20.834 73.5 33.501c-7.33301 2 -17.833 4.5 -31.5 7.5l-43.5 10c-15.333 3.66699 -29.666 6.66699 -42.999 9s-23 3.5 -29 3.5c-14.667 0 -29.667 -4 -45 -12s-23 -19.667 -23 -35c0 -12.667 7.16699 -21 21.5 -25
s27.166 -6 38.499 -6z" />
    <glyph glyph-name="bracketleft" unicode="[" horiz-adv-x="290" 
d="M66 -85l159 724h85l-7 -34h-50l-145 -657h49l-5 -33h-86z" />
    <glyph glyph-name="backslash" unicode="\" horiz-adv-x="230" 
d="M144 -65l-29 701l36 6l27 -700z" />
    <glyph glyph-name="bracketright" unicode="]" horiz-adv-x="290" 
d="M58 -85l9 33h49l145 657h-49l6 34h85l-159 -724h-86z" />
    <glyph glyph-name="asciicircum" unicode="^" horiz-adv-x="330" 
d="M319 389l-76 67l-110 -66l-20 21l136 82l97 -86z" />
    <glyph glyph-name="underscore" unicode="_" horiz-adv-x="340" 
d="M-2 -27l8 19h293l-7 -19h-294z" />
    <glyph glyph-name="grave" unicode="`" horiz-adv-x="500" 
d="M282 419c0 -3.33301 -1.99902 -5.83203 -5.99902 -7.49902s-7.33301 -0.833984 -10 2.49902l-27 33l-32 39c-2 3.33301 -3 6 -3 8c0 4 1.66699 7.66699 5 11s7 5 11 5c3.33301 0 6 -1.66699 8 -5c9.33301 -13.333 18.666 -27.5 27.999 -42.5l25 -39.5
c0.666992 -0.666992 1 -2 1 -4z" />
    <glyph glyph-name="a" unicode="a" horiz-adv-x="349" 
d="M56 -4c-22 0 -37.1641 5.82812 -45.4971 17.4951s-12.5 25.834 -12.5 42.501c0 16 2.66699 32.667 8 50s11.166 33.5 17.499 48.5s11.5 26.167 15.5 33.5c12 20.667 25.5 40.667 40.5 60s31.167 36.333 48.5 51c17.333 15.333 35.166 27.166 53.499 35.499
s36.833 12.5 55.5 12.5c32 0 54.667 -8.5 68 -25.5s20 -35.167 20 -54.5c0 -6.66699 -1 -13.667 -3 -21c-2.66699 -10 -5.83398 -18.667 -9.50098 -26s-8.16699 -11 -13.5 -11c-4.66699 0 -9 2.33301 -13 7s-5.33301 9.33398 -4 14.001s3.16602 9.33398 5.49902 14.001
s3.83301 9.33398 4.5 14.001c0.666992 3.33301 1.16699 6.33301 1.5 9s0.5 5.33398 0.5 8.00098c0 18 -5.83301 30.5 -17.5 37.5s-24.167 10.5 -37.5 10.5c-15.333 0 -31.166 -4.33301 -47.499 -13s-30.5 -18.667 -42.5 -30c-14.667 -14.667 -29.334 -31.667 -44.001 -51
s-27.334 -39 -38.001 -59c-1.33301 -3.33301 -4.83301 -11.333 -10.5 -24s-11 -26.834 -16 -42.501s-7.5 -30.167 -7.5 -43.5c0 -9.33301 2.16699 -17.333 6.5 -24s11.833 -10 22.5 -10c11.333 0 24.5 5.33301 39.5 16s30.333 23.834 46 39.501s29.834 30.834 42.501 45.501
s22 26 28 34c4 5.33301 7.83301 11.166 11.5 17.499s7.5 12.166 11.5 17.499c2 2.66699 6 4 12 4c5.33301 0 10.833 -1.5 16.5 -4.5s7.83398 -7.16699 6.50098 -12.5c-2.66699 -4.66699 -7.5 -14.834 -14.5 -30.501s-13.5 -32.667 -19.5 -51s-9 -34.5 -9 -48.5
c0 -17.333 5.33301 -27.333 16 -30c7.33301 -1.33301 15.166 1.33398 23.499 8.00098s16 14.334 23 23.001l15.5 19c14 18.667 27.167 37.834 39.5 57.501s24.833 38.167 37.5 55.5c4 5.33301 8.66699 8 14 8c9.33301 0 14 -5 14 -15c0 -3.33301 -4.33301 -11.833 -13 -25.5
s-19.167 -29.167 -31.5 -46.5l-34.5 -47c-10.667 -14 -22.667 -27.667 -36 -41s-30.333 -20 -51 -20c-19.333 0 -32.5 4.33301 -39.5 13s-10.5 18.334 -10.5 29.001c0 9.33301 1 19.166 3 29.499s4 19.166 6 26.499l-4 3c-6 -7.33301 -15 -16.666 -27 -27.999
s-25.333 -22.833 -40 -34.5s-29.167 -21.5 -43.5 -29.5s-27.166 -12 -38.499 -12z" />
    <glyph glyph-name="b" unicode="b" horiz-adv-x="369" 
d="M72 -30c-22.667 0 -41.665 4.33301 -56.998 13s-23 20.667 -23 36c0 18.667 12.667 40.667 38 66c7.33301 26.667 17.5 58.167 30.5 94.5s28.333 74.833 46 115.5s36.5 80.834 56.5 120.501s40.667 76 62 109s42 59.833 62 80.5c2 1.33301 4.16699 2.66602 6.5 3.99902
s4.83301 2 7.5 2c4 0 8.66699 -1.5 14 -4.5s8 -6.16699 8 -9.5c0 -2.66699 -1 -5.66699 -3 -9c-30.667 -35.333 -61.334 -78.166 -92.001 -128.499s-59 -103.5 -85 -159.5s-48 -110.667 -66 -164c15.333 22.667 34 47.667 56 75s44.333 52.333 67 75
c35.333 34.667 65.666 52 90.999 52c16.667 0 29.667 -7.66699 39 -23s14 -38.333 14 -69c0 -6 -0.166992 -11.833 -0.5 -17.5s-0.833008 -11.5 -1.5 -17.5c3.33301 0.666992 9.66602 1 18.999 1h20c4.66699 0 8.66699 -1.5 12 -4.5s5 -6.5 5 -10.5
c0 -7.33301 -6 -12 -18 -14c-6 -0.666992 -14.333 -1.16699 -25 -1.5s-18 -0.833008 -22 -1.5c-8.66699 -32.667 -27.167 -66.167 -55.5 -100.5s-62.166 -61.833 -101.499 -82.5c-17.333 -8.66699 -35 -15.334 -53 -20.001s-35 -7 -51 -7zM115.002 140
c36.667 16.667 70.1699 30.667 100.503 42s60.166 19.333 89.499 24c2.66699 9.33301 4.66699 18.5 6 27.5s2 18.167 2 27.5c0 18 -2.16699 30.667 -6.5 38s-9.83301 11 -16.5 11c-9.33301 0 -20.333 -5 -33 -15s-24.334 -20 -35.001 -30
c-18.667 -17.333 -36.834 -37 -54.501 -59zM80.0049 -2c10.667 0 22.002 1.33301 34.002 4s24.333 7 37 13c35.333 17.333 65.666 41.333 90.999 72s44 60 56 88c-37.333 -8.66699 -73.833 -19.5 -109.5 -32.5s-68.834 -30.167 -99.501 -51.5
c-19.333 -13.333 -33.333 -25.666 -42 -36.999s-13 -21 -13 -29c0 -8.66699 4.33301 -15.334 13 -20.001s19.667 -7 33 -7z" />
    <glyph glyph-name="c" unicode="c" horiz-adv-x="279" 
d="M120 -10c-34.667 0 -60.6641 11.334 -77.9971 34.001s-26 47.667 -26 75c0 17.333 2.66699 34.166 8 50.499s12.333 31.833 21 46.5c8 14.667 18.667 31 32 49s28.666 35.333 45.999 52s36 30.334 56 41.001s41 16 63 16c18.667 0 32.5 -5.66699 41.5 -17
s13.5 -24.333 13.5 -39c0 -4.66699 -1.33301 -12 -4 -22s-6.16699 -20.333 -10.5 -31s-9.5 -19.834 -15.5 -27.501s-12.667 -11.5 -20 -11.5c-4 0 -7.66699 1.5 -11 4.5s-5 6.16699 -5 9.5c0 2 2.66699 6.66699 8 14s10.666 16.333 15.999 27s8 22 8 34
c0 7.33301 -1.83301 14 -5.5 20s-10.5 9 -20.5 9c-16.667 0 -33.5 -5.16699 -50.5 -15.5s-32.833 -23.333 -47.5 -39s-27.667 -31.334 -39 -47.001s-20 -29.167 -26 -40.5c-6.66699 -12 -11.834 -24.5 -15.501 -37.5s-5.5 -26.167 -5.5 -39.5s2 -26.666 6 -39.999
s11 -24.333 21 -33s24 -13 42 -13c20 0 39.333 5 58 15s34.334 21.333 47.001 34c13.333 12.667 24.166 24 32.499 34s17 21.5 26 34.5l34.5 51.5c2.66699 4.66699 6.66699 7 12 7c9.33301 0 14 -5 14 -15c0 -3.33301 -0.666992 -6 -2 -8c-18 -28.667 -37.833 -57 -59.5 -85
s-46 -51.167 -73 -69.5s-57.5 -27.5 -91.5 -27.5z" />
    <glyph glyph-name="d" unicode="d" horiz-adv-x="349" 
d="M57 -15c-22 0 -37.334 7.33496 -46.001 22.002s-13 30.334 -13 47.001c0 19.333 4.16699 41.333 12.5 66s19.833 49.667 34.5 75s31.667 48.666 51 69.999s40.5 38.666 63.5 51.999s46.5 20 70.5 20c14.667 0 26.5 -2.66699 35.5 -8s17.5 -12.666 25.5 -21.999
c14 22.667 29.667 50.167 47 82.5l53 98c18 33 34.333 61.5 49 85.5c6.66699 11.333 13.667 19 21 23s14.333 6 21 6c5.33301 0 9.66602 -1.33301 12.999 -4s5 -8.33398 5 -17.001c0 -4.66699 -4.16699 -14.5 -12.5 -29.5s-19.166 -32.833 -32.499 -53.5l-43 -65l-43.5 -65
l-33.5 -52c-6.66699 -10.667 -15.667 -26.834 -27 -48.501s-23 -45.5 -35 -71.5s-22 -51.333 -30 -76s-12 -45 -12 -61c0 -8.66699 1.66699 -16 5 -22s8.33301 -9 15 -9c7.33301 0 15 3 23 9s15.333 12.667 22 20s11.334 13 14.001 17c2.66699 3.33301 9 12 19 26l32.5 45.5
c11.667 16.333 20.5 29.166 26.5 38.499c3.33301 5.33301 8 8 14 8c8.66699 0 13 -5 13 -15c0 -1.33301 -1.33301 -4.16602 -4 -8.49902l-10 -16.5c-32 -49.333 -59.333 -87 -82 -113s-46.667 -39 -72 -39h-6.5c-2.33301 -0 -4.5 0.333008 -6.5 1
c-13.333 2.66699 -22.5 10 -27.5 22s-7.5 24.333 -7.5 37c0 6 0.5 12.5 1.5 19.5s2.83301 16.5 5.5 28.5l-42 -49.5c-15.333 -17.667 -30.5 -33.167 -45.5 -46.5s-28.167 -21.333 -39.5 -24c-6.66699 -2 -14 -3 -22 -3zM60.999 16.002c10 0 21.8311 5.16797 35.498 15.501
s27.667 23.5 42 39.5s28 33 41 51s24.333 34.5 34 49.5s16.5 26.5 20.5 34.5l38 75c-5.33301 7.33301 -11.166 13.666 -17.499 18.999s-14.833 8 -25.5 8c-20.667 0 -40.667 -6.16699 -60 -18.5s-37.166 -28.333 -53.499 -48s-30.5 -41 -42.5 -64s-21.333 -45.333 -28 -67
s-10 -40.5 -10 -56.5c0 -7.33301 1.5 -15.5 4.5 -24.5s10.167 -13.5 21.5 -13.5z" />
    <glyph glyph-name="e" unicode="e" horiz-adv-x="269" 
d="M109 -10c-34.667 0 -58.833 10.1689 -72.5 30.502s-20.5 44.166 -20.5 71.499c0 20 5 43.833 15 71.5s23.833 54.834 41.5 81.501s38.167 48.834 61.5 66.501s48.333 26.5 75 26.5c17.333 0 31.166 -4.83301 41.499 -14.5s15.5 -21.834 15.5 -36.501
c0 -28 -9 -55 -27 -81s-41.333 -47.333 -70 -64s-59.334 -25 -92.001 -25c-4 0 -8 0.166992 -12 0.5s-8 0.833008 -12 1.5c-2 -8.66699 -3 -18.667 -3 -30c0 -17.333 4.16699 -33.333 12.5 -48s24.5 -22 48.5 -22c20 0 39.333 5 58 15s34.334 21.333 47.001 34
s23.334 24 32.001 34s17.667 21.5 27 34.5s21 30.167 35 51.5c2.66699 4.66699 6.66699 7 12 7c9.33301 0 14 -5 14 -15c0 -3.33301 -0.666992 -6 -2 -8c-18 -30.667 -38 -59.834 -60 -87.501s-46.5 -50.334 -73.5 -68.001s-57.5 -26.5 -91.5 -26.5zM84.001 148.002
c25.333 0 49.1689 6.83301 71.502 20.5s40.666 30.834 54.999 51.501s21.5 41.667 21.5 63c0 7.33301 -1.83301 13.333 -5.5 18s-9.83398 7 -18.501 7c-17.333 0 -34 -5.83301 -50 -17.5s-30.5 -26.334 -43.5 -44.001s-24 -35.167 -33 -52.5s-15.5 -32 -19.5 -44
c3.33301 -0.666992 6.83301 -1.16699 10.5 -1.5s7.5 -0.5 11.5 -0.5z" />
    <glyph glyph-name="f" unicode="f" horiz-adv-x="268" 
d="M54 -114c-11.333 0 -17.0029 5.33301 -17.0029 16c0 6 1 12.333 3 19s3.33301 13 4 19c6.66699 33.333 15.5 70.833 26.5 112.5s23.5 83 37.5 124s28.667 76.833 44 107.5c-6 -0.666992 -14.667 -2.16699 -26 -4.5s-21.666 -5.66602 -30.999 -9.99902
s-14 -10.166 -14 -17.499c0 -4.66699 -3.66699 -8.5 -11 -11.5s-13.666 -4.5 -18.999 -4.5c-10 0 -15 5 -15 15s4.83301 18.667 14.5 26s21.667 13.833 36 19.5s28.666 10.167 42.999 13.5s25.833 5.66602 34.5 6.99902l40.5 82.5c15.667 31 33.834 62 54.501 93
s43.5 58.667 68.5 83s52.5 41.5 82.5 51.5c11.333 4 23.333 6 36 6c25.333 0 42.833 -5.5 52.5 -16.5s14.5 -23.167 14.5 -36.5c0 -12.667 -3.33301 -24.167 -10 -34.5s-14 -15.5 -22 -15.5c-4.66699 0 -8.66699 1.83301 -12 5.5s-4 7.16699 -2 10.5
c7.33301 11.333 11 22.333 11 33c0 7.33301 -2.5 13.333 -7.5 18s-13.167 7 -24.5 7c-8.66699 0 -16.667 -1.33301 -24 -4c-26 -8.66699 -50.167 -24 -72.5 -46s-42.666 -46.833 -60.999 -74.5s-34.5 -55.334 -48.5 -83.001s-25.667 -52.167 -35 -73.5
c19.333 3.33301 35.333 5.5 48 6.5s25.667 2.16699 39 3.5l51 5h3c8 0 12 -4 12 -12c0 -4 -1 -7.66699 -3 -11s-5 -5.33301 -9 -6l-89.5 -9.5c-23 -2.33301 -45.167 -5.16602 -66.5 -8.49902c-23.333 -58.667 -45 -117.334 -65 -176.001s-36 -118.667 -48 -180
c-0.666992 -6 -1.66699 -12 -3 -18l-4 -18c-2 -8.66699 -7.33301 -13 -16 -13z" />
    <glyph glyph-name="g" unicode="g" horiz-adv-x="386" 
d="M-76 -373c-19.333 0 -35.499 4.5 -48.499 13.5s-21.167 22.833 -24.5 41.5c-2.66699 19.333 4.66602 39.666 21.999 60.999s39 42.333 65 63c20.667 16.667 42.334 32.167 65.001 46.5l63.5 39l47.5 27.5l78 47.5l77 47.5c8 24 13.167 48.167 15.5 72.5
s3.16602 48.166 2.49902 71.499c-7.33301 -11.333 -17.833 -26.333 -31.5 -45s-29.667 -37.334 -48 -56.001s-38.166 -34.5 -59.499 -47.5s-43.333 -19.5 -66 -19.5c-28.667 0 -48.334 8.33301 -59.001 25s-16 36.334 -16 59.001c0 20 2.83301 40.333 8.5 61
s11.834 37.334 18.501 50.001c13.333 27.333 30.166 54 50.499 80s43.333 47.333 69 64s51.834 25 78.501 25c19.333 0 33.5 -5.66699 42.5 -17s13.5 -24.333 13.5 -39c0 -4.66699 -1.33301 -12 -4 -22s-6.16699 -20.333 -10.5 -31s-9.5 -19.834 -15.5 -27.501
s-12.667 -11.5 -20 -11.5c-4.66699 0 -8.66699 1.5 -12 4.5s-5 6.16699 -5 9.5c0 2 2.66699 6.66699 8 14s10.666 16.333 15.999 27s8 22 8 34c0 7.33301 -1.83301 14 -5.5 20s-10.5 9 -20.5 9c-20.667 0 -41.167 -7.33301 -61.5 -22s-38.833 -33 -55.5 -55
s-30.667 -44.667 -42 -68c-4.66699 -10 -10 -25 -16 -45s-9 -39.333 -9 -58c0 -16 3.33301 -29.5 10 -40.5s18.334 -16.5 35.001 -16.5c14.667 0 30.5 5.66699 47.5 17s34.167 25.833 51.5 43.5s33.166 36 47.499 55s26 36.167 35 51.5s13.833 26.333 14.5 33
c0.666992 3.33301 2.66699 7 6 11s7.33301 6 12 6c5.33301 0 9 -1.66699 11 -5s3.33301 -6.66602 4 -9.99902c4.66699 -18 7 -39 7 -63c0 -19.333 -1.16699 -39 -3.5 -59s-4.83301 -38 -7.5 -54c22.667 18.667 43.5 41.167 62.5 67.5s36.167 51.166 51.5 74.499
c3.33301 5.33301 7.33301 8 12 8c3.33301 0 6.5 -1.33301 9.5 -4s4.5 -6 4.5 -10c0 -2.66699 -1 -6 -3 -10c-20.667 -33.333 -42.5 -65.166 -65.5 -95.499s-52.167 -57.166 -87.5 -80.499c-18.667 -53.333 -44.167 -103.833 -76.5 -151.5s-68 -89 -107 -124
s-78.167 -60.5 -117.5 -76.5c-12.667 -5.33301 -25.167 -9.33301 -37.5 -12s-23.833 -4 -34.5 -4zM-75.999 -348c8 0 16.667 1.33203 26 3.99902s19 6 29 10c40 18 76.5 41.5 109.5 70.5s62 61.167 87 96.5s45.167 70.666 60.5 105.999c1.33301 4 3 8 5 12l6 12
c-19.333 -10.667 -38 -22.167 -56 -34.5s-36.667 -23.833 -56 -34.5l-47 -27l-67 -40.5c-24 -15 -46.333 -30.833 -67 -47.5c-20 -15.333 -36.667 -30.666 -50 -45.999s-20 -29.666 -20 -42.999s3.83301 -23 11.5 -29s17.167 -9 28.5 -9z" />
    <glyph glyph-name="h" unicode="h" horiz-adv-x="370" 
d="M246 -7c-16.667 0 -31.167 4.67188 -43.5 14.0049s-18.5 23.333 -18.5 42c0 26 7 53.333 21 82s31 56.5 51 83.5s38.667 50.833 56 71.5c10.667 11.333 16 21 16 29c0 6 -3 9.33301 -9 10c-2 0.666992 -4.66699 1 -8 1c-14.667 0 -29.334 -5.33301 -44.001 -16l-36 -27
c-30.667 -24 -60.334 -52 -89.001 -84s-52.334 -61.333 -71.001 -88c-6.66699 -10 -12.334 -22.167 -17.001 -36.5s-8.83398 -27.833 -12.501 -40.5s-7.83398 -21.667 -12.501 -27c-6.66699 -8 -14 -12 -22 -12c-6 0 -11 2.16699 -15 6.5s-6 9.83301 -6 16.5
c0 4 0.333008 7 1 9c8 31.333 18.5 65.833 31.5 103.5s27 75 42 112s29.5 70.167 43.5 99.5l35.5 72.5c13.667 27 29.334 54 47.001 81s37.334 51.167 59.001 72.5s45.5 37 71.5 47c10 4 20 6 30 6c13.333 0 24.833 -3.33301 34.5 -10s14.5 -17.667 14.5 -33
c0 -14.667 -5.33301 -31.5 -16 -50.5s-24 -38.167 -40 -57.5s-32.333 -37.333 -49 -54s-31.334 -30.334 -44.001 -41.001l-83.5 -67c-26.333 -20.667 -48.5 -42 -66.5 -64c-12 -33.333 -20.333 -61 -25 -83c18.667 25.333 41.334 51.166 68.001 77.499s51.667 48.5 75 66.5
c12.667 10 28.334 21 47.001 33s37.334 18 56.001 18c13.333 0 24 -3.33301 32 -10s12 -15.667 12 -27c0 -15.333 -7.66699 -32 -23 -50s-32.166 -40 -50.499 -66s-34 -52.333 -47 -79s-19.5 -51 -19.5 -73c0 -10.667 3 -18.334 9 -23.001s13 -7 21 -7c12 0 23 4 33 12
c16.667 12.667 32.167 27.667 46.5 45s27.5 34.666 39.5 51.999l31 45c6.66699 10.667 14.334 16 23.001 16c6.66699 0 10 -3.66699 10 -11c0 -2 -0.333008 -4.33301 -1 -7s-2 -5.66699 -4 -9c-9.33301 -16.667 -21.5 -35 -36.5 -55s-30.167 -38.833 -45.5 -56.5
s-29.333 -30.834 -42 -39.501c-17.333 -13.333 -37.333 -20 -60 -20zM330 592.005c-20.667 -8 -40.833 -22 -60.5 -42s-38.667 -44 -57 -72s-35.5 -57.5 -51.5 -88.5s-30.333 -61.5 -43 -91.5c22 20 41.833 37 59.5 51s35.167 28.667 52.5 44
c15.333 13.333 31.833 29.833 49.5 49.5s34 40.167 49 61.5s25.5 41 31.5 59c1.33301 3.33301 2.33301 6.5 3 9.5s1 5.5 1 7.5c0 10.667 -5.33301 16 -16 16c-2.66699 0 -5.5 -0.333008 -8.5 -1s-6.16699 -1.66699 -9.5 -3z" />
    <glyph glyph-name="i" unicode="i" horiz-adv-x="208" 
d="M193 408c-3.33301 0 -6.99805 0.666992 -10.998 2s-6 4.33301 -6 9c0 3.33301 1 6.33301 3 9c5.33301 10 15.166 18.667 29.499 26s25.166 11 32.499 11c3.33301 0 7 -0.833008 11 -2.5s6 -4.83398 6 -9.50098c0 -11.333 -6.83301 -21.666 -20.5 -30.999
s-28.5 -14 -44.5 -14zM81.002 -1c-22.667 0 -40.6689 6.33203 -54.002 18.999s-20 30.334 -20 53.001c0 13.333 1.33301 26.5 4 39.5s6.33398 25.833 11.001 38.5c2.66699 7.33301 8.16699 19.5 16.5 36.5s18.166 35 29.499 54s22.333 35.167 33 48.5s20 20 28 20
c3.33301 0 7.83301 -1.16699 13.5 -3.5s8.5 -5.83301 8.5 -10.5c0 -2.66699 -1.33301 -6 -4 -10c-15.333 -17.333 -31.333 -38 -48 -62s-30.667 -49 -42 -75s-17 -51 -17 -75c0 -30.667 14.667 -46 44 -46c20 0 40.167 9.66699 60.5 29s42.833 45.333 67.5 78
c7.33301 9.33301 13.833 18.5 19.5 27.5s10.834 16.833 15.501 23.5c4.66699 4.66699 9.66699 7 15 7c8 0 12 -3 12 -9c0 -7.33301 -5.33301 -19 -16 -35s-22.667 -32.667 -36 -50c-26 -32 -48.667 -56.333 -68 -73s-43.666 -25 -72.999 -25z" />
    <glyph glyph-name="j" unicode="j" horiz-adv-x="201" 
d="M154 408c-4 0 -7.83301 0.833984 -11.5 2.50098s-5.5 4.5 -5.5 8.5c0 3.33301 1 6.33301 3 9c5.33301 10.667 10 17.167 14 19.5s8.33301 3.66602 13 3.99902s10 2.5 16 6.5c4 2 7.16699 3.66699 9.5 5s5.83301 2 10.5 2h16c0 -16 -6.16699 -29.5 -18.5 -40.5
s-27.833 -16.5 -46.5 -16.5zM-262 -372.999c-18.667 0 -34.6689 4.49805 -48.002 13.498s-21.666 22.833 -24.999 41.5c-2.66699 19.333 4.66602 39.666 21.999 60.999s39 42.333 65 63c20.667 16.667 42.334 32.167 65.001 46.5l64 39l48 27.5l77.5 47.5l76.5 47.5
c6 12 11.5 28.167 16.5 48.5s9.33301 42 13 65s6.66699 44.667 9 65l5.5 47.5c4 15.333 8.5 25.5 13.5 30.5s9.83301 7.5 14.5 7.5c5.33301 0 8.83301 -1.66699 10.5 -5s2.83398 -6.66602 3.50098 -9.99902c1.33301 -12.667 0.333008 -28.667 -3 -48
s-7.66602 -39.666 -12.999 -60.999l-15.5 -61c-5 -19.333 -8.5 -35.333 -10.5 -48c22.667 18.667 43.5 41.167 62.5 67.5s36.167 51.166 51.5 74.499c3.33301 5.33301 7.66602 8 12.999 8c8.66699 0 13 -4.66699 13 -14c0 -2.66699 -1 -6 -3 -10
c-20.667 -33.333 -42.5 -65.166 -65.5 -95.499s-52.167 -57.166 -87.5 -80.499c-18.667 -53.333 -44.167 -103.833 -76.5 -151.5s-68 -89 -107 -124s-78.167 -60.5 -117.5 -76.5c-25.333 -10.667 -49.333 -16 -72 -16zM-262.002 -348.001c8 0 16.666 1.33496 25.999 4.00195
s19 6 29 10c40 18 76.5 41.5 109.5 70.5s62 61.167 87 96.5s45.167 70.666 60.5 105.999c2 4 3.83301 8 5.5 12s3.83398 8 6.50098 12c-20 -10.667 -39 -22.167 -57 -34.5s-36.667 -23.833 -56 -34.5l-47 -27l-67 -40.5c-24 -15 -46.333 -30.833 -67 -47.5
s-38 -33.334 -52 -50.001s-19.667 -31.667 -17 -45c2 -11.333 6.5 -19.5 13.5 -24.5s15.5 -7.5 25.5 -7.5z" />
    <glyph glyph-name="k" unicode="k" horiz-adv-x="372" 
d="M32 -1c-10.667 0 -16.0059 4.6709 -16.0059 14.0039c0 1.33301 2.83301 8.66602 8.5 21.999l20.5 46l22 48.5c6.66699 15 11 24.5 13 28.5c-0.666992 3.33301 -2.5 10.166 -5.5 20.499s-4.5 20.166 -4.5 29.499c0 7.33301 1.33301 13.5 4 18.5s7.33398 7.5 14.001 7.5
c3.33301 0 7.16602 -2 11.499 -6s7.5 -6.66699 9.5 -8c5.33301 10 10 20 14 30s8.33301 20 13 30l65 153.5c20.667 49.667 43.334 100.5 68.001 152.5c3.33301 6 7.83301 10.667 13.5 14s10.834 5 15.501 5c10 0 15 -4.33301 15 -13c0 -5.33301 -3.5 -17.166 -10.5 -35.499
s-16.333 -40.166 -28 -65.499l-37.5 -79.5l-39 -80l-33 -66.5l-19 -38l5 -2c20 27.333 42.167 52.833 66.5 76.5s53.166 43.167 86.499 58.5c20.667 9.33301 39.334 14 56.001 14c14.667 0 26.5 -3.33301 35.5 -10s13.5 -15.667 13.5 -27
c0 -13.333 -6.66699 -28.666 -20 -45.999c-10.667 -13.333 -24.5 -26 -41.5 -38s-34.167 -22.333 -51.5 -31s-33 -15.334 -47 -20.001c-14.667 -4.66699 -29.167 -8.33398 -43.5 -11.001l-44.5 -8c-7.33301 -0.666992 -14.166 -3.83398 -20.499 -9.50098
s-10.166 -11.167 -11.499 -16.5c4 -16 11.333 -34 22 -54s24.334 -37.167 41.001 -51.5s36 -21.5 58 -21.5s41.833 7.66699 59.5 23s34.667 34.833 51 58.5l51.5 72.5c3.33301 4 7.66602 6 12.999 6h2c6.66699 0 10 -5 10 -15c0 -2.66699 -1 -5.66699 -3 -9l-29 -44
c-12 -18 -25.833 -36.167 -41.5 -54.5s-33.167 -33.833 -52.5 -46.5s-39.666 -19 -60.999 -19c-25.333 0 -47.833 5.66699 -67.5 17s-36 26.166 -49 44.499s-22.5 37.166 -28.5 56.499c-10 -18.667 -19.167 -37.667 -27.5 -57s-18.166 -37.666 -29.499 -54.999
c-1.33301 -2 -3.5 -4 -6.5 -6s-6.16699 -3 -9.5 -3zM186.994 217.004c14.667 2 31.832 5.83203 51.499 11.499s39.167 13.167 58.5 22.5s35.333 20.333 48 33c6.66699 6.66699 12.334 14.167 17.001 22.5s7 15.833 7 22.5c0 10 -5 15 -15 15s-26.333 -6.33301 -49 -19
c-24 -14 -45.833 -30.167 -65.5 -48.5s-37.167 -38.166 -52.5 -59.499z" />
    <glyph glyph-name="l" unicode="l" horiz-adv-x="228" 
d="M97 -1c-26.667 0 -45 8.00098 -55 24.001s-15 35.333 -15 58c0 25.333 4.16699 54.333 12.5 87s19.333 66.667 33 102s29.167 70 46.5 104s35 65 53 93s35 51 51 69c14 15.333 27.5 27.166 40.5 35.499s26.833 15.166 41.5 20.499c10 4 20 6 30 6
c13.333 0 24.833 -3.33301 34.5 -10s14.5 -17.667 14.5 -33c0 -14.667 -5.33301 -31.5 -16 -50.5s-24 -38.167 -40 -57.5s-32.333 -37.333 -49 -54s-31.334 -30.334 -44.001 -41.001l-81 -65.5c-26 -20.333 -47.667 -40.833 -65 -61.5
c-9.33301 -26 -16.666 -51.167 -21.999 -75.5s-8 -46.166 -8 -65.499c0 -17.333 3.16699 -31.666 9.5 -42.999s17.5 -17 33.5 -17s31.333 5.16699 46 15.5s28.834 23.5 42.501 39.5s26.167 32 37.5 48l23.5 33.5l18.5 26.5c2.66699 4.66699 7 7 13 7
c7.33301 0 11 -3.66699 11 -11c0 -4.66699 -2 -10.667 -6 -18c-8 -13.333 -18.333 -29.333 -31 -48s-27 -37 -43 -55s-33.833 -33 -53.5 -45s-40.834 -18 -63.501 -18zM247 516.001c-14.667 -16 -30.165 -36.666 -46.498 -61.999s-32.5 -53.333 -48.5 -84
s-30.667 -61.667 -44 -93c21.333 19.333 40.666 35.833 57.999 49.5s34.666 28.167 51.999 43.5c15.333 13.333 31.833 29.833 49.5 49.5s34.167 40.167 49.5 61.5s26 41 32 59c2 7.33301 3 13 3 17c0 10.667 -5.33301 16 -16 16c-2.66699 0 -5.5 -0.333008 -8.5 -1
s-6.16699 -1.66699 -9.5 -3c-12 -4.66699 -23.833 -11.334 -35.5 -20.001s-23.5 -19.667 -35.5 -33z" />
    <glyph glyph-name="m" unicode="m" horiz-adv-x="648" 
d="M98 -18c-3.33301 0 -6.99609 0.999023 -10.9961 2.99902s-6 4.66699 -6 8c0 2 0.333008 4.33301 1 7s1.33398 5 2.00098 7c7.33301 16.667 17.666 38 30.999 64l42 82.5c14.667 29 27 55.833 37 80.5s15 43.667 15 57c0 4 -0.833008 7.83301 -2.5 11.5
s-5.16699 5.5 -10.5 5.5c-8.66699 0 -18.834 -4.16699 -30.501 -12.5s-23.5 -19.5 -35.5 -33.5c-6.66699 -8 -15.334 -19.5 -26.001 -34.5l-33 -48l-31.5 -47.5c-9.66699 -14.667 -17.167 -25 -22.5 -31c-4.66699 -6.66699 -10.334 -10 -17.001 -10
c-4.66699 0 -8.16699 1.66699 -10.5 5s-2.16602 7.33301 0.500977 12c5.33301 10 13.5 23.333 24.5 40l34.5 52l33 48c10 14 16.333 23 19 27c11.333 14.667 25.166 28.667 41.499 42s35.166 20 56.499 20c30.667 0 46 -13.667 46 -41c0 -12.667 -3 -27.334 -9 -44.001
s-14.667 -36 -26 -58c21.333 22 39.833 40 55.5 54s31.167 27 46.5 39c15.333 12.667 31.333 19 48 19c14 0 25.833 -5 35.5 -15s14.5 -24.667 14.5 -44c0 -6 -0.5 -12.833 -1.5 -20.5s-3.16699 -18.167 -6.5 -31.5c22.667 24.667 46.834 46.334 72.501 65.001
s49.667 34.167 72 46.5s39.833 20.166 52.5 23.499c6.66699 2 13.167 3.66699 19.5 5s12.166 2 17.499 2c6.66699 0 12 -1.66699 16 -5s6 -9.66602 6 -18.999s-6 -22.5 -18 -39.5s-26.5 -36.333 -43.5 -58s-33.167 -43.5 -48.5 -65.5s-26.333 -42.667 -33 -62
c-3.33301 -11.333 -5 -19.666 -5 -24.999c0 -18 8.33301 -27 25 -27c11.333 0 25 5.33301 41 16c17.333 11.333 36 29.666 56 54.999s38.667 51.333 56 78c4 6 9.33301 9 16 9c4.66699 0 7.66699 -1.16699 9 -3.5s2 -4.5 2 -6.5c0 -3.33301 -3.16699 -11.333 -9.5 -24
s-16.833 -28.667 -31.5 -48c-18.667 -24.667 -35.5 -44.167 -50.5 -58.5s-27.167 -24.166 -36.5 -29.499c-8.66699 -5.33301 -17.667 -9.16602 -27 -11.499s-18.666 -3.5 -27.999 -3.5c-21.333 0 -36.666 4.5 -45.999 13.5s-14 19.833 -14 32.5c0 17.333 5.83301 37 17.5 59
s25.5 44.167 41.5 66.5s31.167 42.5 45.5 60.5s24.166 31 29.499 39c2.66699 3.33301 4 6.66602 4 9.99902c0 5.33301 -3.66699 8 -11 8c-4 0 -8.66699 -1 -14 -3c-27.333 -11.333 -54.333 -26.833 -81 -46.5s-50.5 -39.5 -71.5 -59.5s-37.167 -36.667 -48.5 -50l-11 -37.5
c-4.66699 -15.667 -11 -29.5 -19 -41.5s-18.333 -18 -31 -18c-6 0 -10.833 2.16699 -14.5 6.5s-5.5 8.83301 -5.5 13.5c0 17.333 5.33301 33.333 16 48s23 28.334 37 41.001c3.33301 11.333 8 26.166 14 44.499s9 33.833 9 46.5c0 10.667 -2.5 19 -7.5 25s-11.167 9 -18.5 9
c-8.66699 0 -17.334 -3.33301 -26.001 -10c-32.667 -22.667 -61.667 -50.5 -87 -83.5s-48 -65.167 -68 -96.5c-10.667 -15.333 -20.5 -31.333 -29.5 -48s-18.833 -32.667 -29.5 -48c-2 -2.66699 -4 -4.66699 -6 -6s-5 -2 -9 -2z" />
    <glyph glyph-name="n" unicode="n" horiz-adv-x="461" 
d="M94 -3c-3.33301 0 -6.99707 1.00684 -10.9971 3.00684s-6 4.66699 -6 8c0 5.33301 1 10 3 14c7.33301 16 16.833 35.667 28.5 59l35 72.5c11.667 25 21.667 48.5 30 70.5s12.5 39.667 12.5 53c0 4 -0.833008 7.83301 -2.5 11.5s-5.16699 5.5 -10.5 5.5
c-8 0 -15.833 -3.33301 -23.5 -10s-14.5 -14.167 -20.5 -22.5l-15 -20.5c-13.333 -18 -24.666 -34.5 -33.999 -49.5l-28.5 -44c-9.66699 -14.333 -21.5 -30.166 -35.5 -47.499c-2 -2.66699 -4.16699 -4.83398 -6.5 -6.50098s-5.5 -2.5 -9.5 -2.5s-7.5 2 -10.5 6
s-3.5 7.66699 -1.5 11l43 66.5l37 54.5c10.667 15.333 18 25.666 22 30.999c11.333 14.667 23.166 28.667 35.499 42s29.166 20 50.499 20c18 0 30.5 -5 37.5 -15s10.5 -21.667 10.5 -35c0 -24 -10 -55 -30 -93c24.667 26 51.167 49.667 79.5 71s54.833 39.166 79.5 53.499
s43.334 23.166 56.001 26.499c6 2 12.167 3.66699 18.5 5s12.166 2 17.499 2c6.66699 0 12.167 -1.66699 16.5 -5s6.5 -9.66602 6.5 -18.999s-6 -22.5 -18 -39.5s-26.5 -36.333 -43.5 -58s-33.167 -43.5 -48.5 -65.5s-26.333 -42.667 -33 -62
c-2 -4.66699 -3.33301 -9.16699 -4 -13.5s-1 -8.16602 -1 -11.499c0 -18 8.33301 -27 25 -27c10.667 0 24 5.33301 40 16c9.33301 6 18.5 12.833 27.5 20.5s15.833 14.5 20.5 20.5c10 11.333 18.167 21 24.5 29s12.666 16.833 18.999 26.5l24.5 36.5
c2 3.33301 4 5.66602 6 6.99902s5.33301 2 10 2c7.33301 0 11 -4.66699 11 -14c0 -4 -3 -10.833 -9 -20.5s-13.167 -20.334 -21.5 -32.001s-16.333 -22.334 -24 -32.001l-16.5 -20.5c-7.33301 -8.66699 -16.5 -17.667 -27.5 -27s-22.167 -17.333 -33.5 -24
c-10.667 -6 -21.667 -10.333 -33 -13s-22.333 -4 -33 -4c-17.333 0 -29.833 5 -37.5 15s-11.5 20.667 -11.5 32c0 17.333 5.83301 37.166 17.5 59.499s25.667 44.666 42 66.999l46 60.5c14.333 18 24.166 31 29.499 39c1.33301 2 2.33301 3.83301 3 5.5s1 3.16699 1 4.5
c0 5.33301 -4 8 -12 8c-4 0 -8.66699 -1 -14 -3c-27.333 -11.333 -55.833 -28 -85.5 -50s-57 -45.833 -82 -71.5s-44.833 -49.834 -59.5 -72.501l-40 -63c-3.33301 -5.33301 -6.33301 -10.833 -9 -16.5s-5.66699 -11.167 -9 -16.5c-4 -5.33301 -9 -8 -15 -8z" />
    <glyph glyph-name="o" unicode="o" horiz-adv-x="342" 
d="M94 -23c-18 0 -32.334 4.66309 -43.001 13.9961s-18.5 20.833 -23.5 34.5s-7.5 26.5 -7.5 38.5c0 16 3 33.833 9 53.5s11.333 33.167 16 40.5c0 2 -0.166992 4.16699 -0.5 6.5s-0.5 4.5 -0.5 6.5c0 18 2.66699 36.667 8 56c6 22.667 16.667 43.5 32 62.5
s34.5 34.5 57.5 46.5s48.167 18 75.5 18c32 0 56.667 -8.5 74 -25.5s26 -39.167 26 -66.5c0 -38 -6.83301 -70.667 -20.5 -98s-28.167 -53.666 -43.5 -78.999c-2.66699 -5.33301 -5 -9.66602 -7 -12.999s0 -5 6 -5c19.333 0 38.333 8 57 24s42.334 46.333 71.001 91
c2 3.33301 4 6 6 8s5 3 9 3h2c7.33301 0 11.666 -4.33301 12.999 -13c0 -2 -0.666992 -4.33301 -2 -7c-16.667 -29.333 -33.5 -54.666 -50.5 -75.999s-37.167 -37.5 -60.5 -48.5s-52.666 -16.833 -87.999 -17.5c-14 -13.333 -31.167 -25.666 -51.5 -36.999
s-41.5 -17 -63.5 -17zM189.999 68.9961l10.001 0.000976562c14 16.667 27.5 35.667 40.5 57s23.5 43.5 31.5 66.5s12 44.833 12 65.5c0 19.333 -5 35.833 -15 49.5s-27.333 20.5 -52 20.5c-16.667 0 -32.834 -3.5 -48.501 -10.5s-29.167 -15.5 -40.5 -25.5l3 -4
c1.33301 0.666992 3.33301 1 6 1c4 0 7.66699 -1.5 11 -4.5s5 -6.16699 5 -9.5c0 -2 -0.333008 -3.66699 -1 -5s-1.66699 -2.66602 -3 -3.99902l-33 -47c-10.667 -14.667 -20.667 -31.334 -30 -50.001c-2 -4.66699 -4.33301 -9.33398 -7 -14.001
c5.33301 -24.667 17.833 -45.167 37.5 -61.5s44.167 -24.5 73.5 -24.5zM100 4.99707c13.333 0 26.668 4.16699 40.001 12.5s24.666 16.166 33.999 23.499c-50.667 5.33301 -88 27.666 -112 66.999c-0.666992 -4.66699 -2 -11.667 -4 -21s-3 -18.666 -3 -27.999
c0 -13.333 3 -25.666 9 -36.999s18 -17 36 -17z" />
    <glyph glyph-name="p" unicode="p" horiz-adv-x="438" 
d="M-153 -341c-12.667 0 -21.8359 3.50488 -27.5029 10.5049s-8.5 15.833 -8.5 26.5c0 13.333 2.83301 28.166 8.5 44.499s12.334 32.833 20.001 49.5s15.167 31.334 22.5 44.001l16 28c16.667 28.667 34.334 56.667 53.001 84s38.334 54.333 59.001 81l59 73.5
c20 24.333 41 47.833 63 70.5c2 12 3.33301 24.333 4 37s1 25.334 1 38.001v21c0 6.66699 -0.333008 13 -1 19c-0.666992 5.33301 -2 10.666 -4 15.999s-4 10.333 -6 15c0 1.33301 -0.166992 2.66602 -0.5 3.99902s-0.5 2.33301 -0.5 3c0 4 4 7.33301 12 10s14.333 4 19 4
c10.667 0 17 -5.83301 19 -17.5s3 -21.167 3 -28.5c0 -14 -0.833008 -27.833 -2.5 -41.5s-3.16699 -27.167 -4.5 -40.5c7.33301 7.33301 17.5 16.833 30.5 28.5s27 23.5 42 35.5s30 22 45 30s28.5 12 40.5 12c19.333 0 34.166 -6.83301 44.499 -20.5
s17.333 -29.167 21 -46.5s5.16699 -32.333 4.5 -45c6 1.33301 17.5 2.5 34.5 3.5s30.833 1.5 41.5 1.5c8.66699 0 14.167 -1.16699 16.5 -3.5s3.5 -5.16602 3.5 -8.49902c0 -2 -1 -4.33301 -3 -7s-5.66699 -4.33398 -11 -5.00098
c-8 -0.666992 -17.833 -1.83398 -29.5 -3.50098l-33.5 -5c-10.667 -1.66699 -18.667 -3.5 -24 -5.5c-5.33301 -22.667 -16 -45.834 -32 -69.501s-35.667 -45.667 -59 -66s-48.666 -36.666 -75.999 -48.999s-55 -18.5 -83 -18.5c-8 0 -16.667 1 -26 3l-6 -15
c-10 -22.667 -23.167 -49.834 -39.5 -81.501s-35.166 -62.5 -56.499 -92.5l-25 -32.5c-10.667 -13.667 -22.834 -27.334 -36.501 -41.001s-28.167 -25.334 -43.5 -35.001s-30 -14.5 -44 -14.5zM135.998 109.005c32.667 22 66.001 40 100.001 54s70.667 25.333 110 34
c2 11.333 3 22.333 3 33c0 6.66699 -0.833008 14.5 -2.5 23.5s-5 17.167 -10 24.5s-12.5 11 -22.5 11c-10.667 0 -24.167 -5.5 -40.5 -16.5s-33.333 -24.167 -51 -39.5s-33.834 -30 -48.501 -44s-25 -24.333 -31 -31zM131.999 -3.99512
c26.667 0 52.832 7.50195 78.499 22.502s48.667 33.167 69 54.5s35.5 41.333 45.5 60c2.66699 5.33301 5 10.666 7 15.999s4.33301 10.333 7 15c-42 -10.667 -80.167 -23.834 -114.5 -39.501s-67.833 -36.167 -100.5 -61.5c-2.66699 -10.667 -5.16699 -21.167 -7.5 -31.5
s-5.16602 -20.833 -8.49902 -31.5c6 -2.66699 14 -4 24 -4zM-144.003 -307.993c9.33301 0 20.1709 5.16797 32.5039 15.501s25 22.833 38 37.5s24.5 28.667 34.5 42s17 23 21 29c20.667 31.333 38.667 63.166 54 95.499s25.666 58.833 30.999 79.5
c-2 3.33301 -3.33301 7 -4 11s-1 8 -1 12c0 12 3 23.667 9 35s13.667 21.333 23 30c1.33301 4.66699 2.66602 9.66699 3.99902 15s2.33301 10.666 3 15.999l-47.5 -55l-36.5 -45c-20.667 -26.667 -40.334 -53.667 -59.001 -81s-36.334 -55.666 -53.001 -84.999l-15 -27
c-6.66699 -12 -13.5 -25.167 -20.5 -39.5s-12.833 -28 -17.5 -41s-7 -23.5 -7 -31.5c0 -8.66699 3.66699 -13 11 -13z" />
    <glyph glyph-name="q" unicode="q" horiz-adv-x="319" 
d="M207 -287c-22.667 0 -40.6611 5.49707 -53.9941 16.4971s-23 24.833 -29 41.5s-9 33.334 -9 50.001c0 18 2.66699 38.667 8 62s11.666 46.666 18.999 69.999s14 43.666 20 60.999c4.66699 11.333 8.83398 22 12.501 32l10.5 28
c-22.667 -20.667 -45.667 -38.834 -69 -54.501s-43.333 -23.5 -60 -23.5c-22 0 -37.167 5.83301 -45.5 17.5s-12.5 25.834 -12.5 42.501c0 16 2.66699 32.667 8 50s11.166 33.5 17.499 48.5s11.5 26.167 15.5 33.5c12 20.667 25.5 40.667 40.5 60s31.167 36.333 48.5 51
c17.333 15.333 35.166 27.166 53.499 35.499s36.833 12.5 55.5 12.5c32 0 54.667 -8.5 68 -25.5s20 -35.167 20 -54.5c0 -6.66699 -1 -13.667 -3 -21c-2.66699 -10 -5.83398 -18.667 -9.50098 -26s-8.16699 -11 -13.5 -11c-4.66699 0 -9 2.33301 -13 7
s-5.33301 9.33398 -4 14.001s3.16602 9.33398 5.49902 14.001s3.83301 9.33398 4.5 14.001c0.666992 3.33301 1.16699 6.33301 1.5 9s0.5 5.33398 0.5 8.00098c0 18 -5.83301 30.5 -17.5 37.5s-24.167 10.5 -37.5 10.5c-15.333 0 -31.166 -4.33301 -47.499 -13
s-30.5 -18.667 -42.5 -30c-14.667 -14.667 -29.334 -31.667 -44.001 -51s-27.334 -39 -38.001 -59c-1.33301 -3.33301 -4.83301 -11.333 -10.5 -24s-11 -26.834 -16 -42.501s-7.5 -30.167 -7.5 -43.5c0 -9.33301 2.16699 -17.333 6.5 -24s11.833 -10 22.5 -10
s23.5 5 38.5 15s30.333 22.333 46 37s30.167 29.167 43.5 43.5s23.333 25.833 30 34.5c4 8 8.66699 18.167 14 30.5s14.333 18.5 27 18.5c13.333 0 20 -6.33301 20 -19c0 -8.66699 -2.5 -17.5 -7.5 -26.5s-10.167 -17.167 -15.5 -24.5c-11.333 -16 -23.333 -37.667 -36 -65
s-24.667 -56.666 -36 -87.999s-20.5 -61.5 -27.5 -90.5s-10.5 -52.833 -10.5 -71.5c0 -11.333 1.83301 -23.166 5.5 -35.499s10.167 -22.5 19.5 -30.5s22 -12 38 -12c5.33301 0 10.666 0.833008 15.999 2.5s10.666 2.5 15.999 2.5c4.66699 0 8.33398 -1.5 11.001 -4.5
s4 -6.16699 4 -9.5c0 -5.33301 -3.33301 -9.5 -10 -12.5s-14 -5 -22 -6s-14.333 -1.5 -19 -1.5z" />
    <glyph glyph-name="r" unicode="r" horiz-adv-x="281" 
d="M152 -14c-12.667 0 -23.5 3.99805 -32.5 11.998s-13.5 20.667 -13.5 38c0 14 2.66699 28.5 8 43.5s10.333 26.833 15 35.5c10.667 21.333 22 41.166 34 59.499s21 31.5 27 39.5c-12 -0.666992 -26.167 2.33301 -42.5 9s-27.833 15.334 -34.5 26.001
c-8.66699 -12.667 -21 -33.167 -37 -61.5s-36.333 -58.166 -61 -89.499c-4 -5.33301 -8.66699 -8 -14 -8c-10 0 -15 4.33301 -15 13c0 3.33301 1 6.33301 3 9l37.5 54.5c15 22.333 29.667 45.666 44 69.999s25.833 46.166 34.5 65.499l8.5 19l8.5 19
c2.66699 4.66699 6.33398 8.83398 11.001 12.501s10 5.5 16 5.5c5.33301 0 10.666 -2.16699 15.999 -6.5s8 -9.16602 8 -14.499c0 -6 -2.16699 -13.5 -6.5 -22.5l-13.5 -27.5c-4.66699 -9.33301 -7 -17.666 -7 -24.999c0 -6 5 -10 15 -12s17.333 -3 22 -3
c18 0 33 3.66699 45 11s20.333 11 25 11c4 0 7.5 -1.5 10.5 -4.5s4.5 -6.16699 4.5 -9.5c0 -4.66699 -2 -8.66699 -6 -12c-9.33301 -8.66699 -20.333 -21 -33 -37s-25.334 -33.333 -38.001 -52s-23.667 -37 -33 -55l-11.5 -28c-5 -12 -7.5 -23.333 -7.5 -34
c0 -18 6.33301 -27 19 -27c5.33301 0 11.5 2 18.5 6s13.833 8.66699 20.5 14c16 14.667 30.167 29.167 42.5 43.5s24.833 30.5 37.5 48.5l44 65c2.66699 4.66699 7.33398 7 14.001 7c8.66699 0 13 -4 13 -12c0 -4 -2 -9.66699 -6 -17c-9.33301 -16.667 -21.5 -35 -36.5 -55
s-30.333 -38.833 -46 -56.5s-29.5 -31.167 -41.5 -40.5c-21.333 -18 -43.333 -27 -66 -27z" />
    <glyph glyph-name="s" unicode="s" horiz-adv-x="283" 
d="M62 -10c-32.667 0 -57.667 6.66309 -75 19.9961s-26 27.333 -26 42c0 10.667 4.5 20.167 13.5 28.5s24.167 12.5 45.5 12.5c13.333 0 29.333 -2 48 -6c14 -3.33301 28.833 -7.66602 44.5 -12.999s31.834 -7.66602 48.501 -6.99902
c4.66699 7.33301 7.33398 13.333 8.00098 18s1 10.334 1 17.001c0 22 -3.5 40.333 -10.5 55s-15 29 -24 43s-16.5 31 -22.5 51l-33 -57.5c-13.333 -23.667 -35.333 -55.834 -66 -96.501c-2 -3.33301 -6 -5 -12 -5c-10 0 -15 4.33301 -15 13c0 2 1.5 5 4.5 9
s9.83301 14.333 20.5 31l42 65.5c16 24.333 31.333 51.166 46 80.499c0.666992 11.333 3 22.333 7 33s8.66699 20.334 14 29.001c7.33301 12 15 20.833 23 26.5s15.333 8.5 22 8.5c12.667 0 19 -7.33301 19 -22c0 -10 -4 -23 -12 -39c-4.66699 -10 -10.667 -18.5 -18 -25.5
l-19 -18.5c1.33301 -16.667 5.33301 -31.667 12 -45s14.167 -26.333 22.5 -39s15.5 -26.334 21.5 -41.001s9 -32.334 9 -53.001c0 -13.333 -2.33301 -25.666 -7 -36.999c14.667 -0.666992 29.834 4.83301 45.501 16.5s30.667 26.834 45 45.501s27.166 37.667 38.499 57
c3.33301 4.66699 7.66602 7 12.999 7c3.33301 0 6.66602 -1 9.99902 -3s5 -5.33301 5 -10c0 -2.66699 -1 -6 -3 -10c-19.333 -34.667 -37.833 -61.5 -55.5 -80.5s-35.5 -32.167 -53.5 -39.5s-38 -11.666 -60 -12.999c-16.667 -15.333 -34.5 -27.166 -53.5 -35.499
s-40.167 -12.5 -63.5 -12.5zM57 13.9961c15.333 0 28.6689 2.33105 40.002 6.99805s23.666 11.334 36.999 20.001c-14 2 -25.667 4.5 -35 7.5s-21.333 6.16699 -36 9.5c-18.667 4 -33.334 6 -44.001 6c-19.333 0 -29 -4.66699 -29 -14
c0 -7.33301 6.33301 -15.166 19 -23.499s28.667 -12.5 48 -12.5z" />
    <glyph glyph-name="t" unicode="t" horiz-adv-x="200" 
d="M73 -36c-13.333 0 -23.333 4.1709 -30 12.5039s-11 18.166 -13 29.499s-3 21.333 -3 30c0 27.333 5 58 15 92s21.833 68 35.5 102l37.5 91c-12 -0.666992 -25.167 -2.66699 -39.5 -6s-27.166 -5 -38.499 -5c-9.33301 0 -14 4 -14 12c0 11.333 6 18 18 20
c14.667 3.33301 29.667 6 45 8s30.333 3.66699 45 5c4 7.33301 9.66699 18.666 17 33.999s15.666 31.833 24.999 49.5s18.5 33.667 27.5 48s16.5 24.5 22.5 30.5c4 4 8.33301 6 13 6s8.66699 -1.33301 12 -4s5 -6 5 -10c0 -2 -1 -4.66699 -3 -8
c-16.667 -20.667 -30.667 -43.334 -42 -68.001l-34 -72c12 1.33301 24.667 2.66602 38 3.99902s26.333 2 39 2c4 0 7.83301 -0.666992 11.5 -2s5.5 -4.33301 5.5 -9c0 -4 -1.83301 -7.33301 -5.5 -10s-7.83398 -4.66699 -12.501 -6
c-14.667 -2.66699 -29.834 -4.83398 -45.501 -6.50098s-31.167 -3.5 -46.5 -5.5l-30 -67c-11.333 -24.667 -22.166 -50.167 -32.499 -76.5s-18.833 -51.833 -25.5 -76.5s-10 -47 -10 -67c0 -3.33301 0.166992 -8.83301 0.5 -16.5s1.83301 -14.5 4.5 -20.5s6.66699 -9 12 -9
c11.333 0 19.333 3 24 9s10 9 16 9c4.66699 0 8.83398 -1.33301 12.501 -4s5.5 -6 5.5 -10c0 -6 -3.83301 -11.667 -11.5 -17s-16.5 -9.66602 -26.5 -12.999s-18 -5 -24 -5z" />
    <glyph glyph-name="u" unicode="u" horiz-adv-x="337" 
d="M216 -22c-11.333 0 -21.665 3.33008 -30.998 9.99707s-14 18.334 -14 35.001c0 21.333 5.5 44 16.5 68s24.833 50.333 41.5 79l-71.5 -80c-26.333 -28.667 -52.5 -51.667 -78.5 -69c-22.667 -14.667 -41.334 -22 -56.001 -22c-12 0 -21.167 4 -27.5 12
s-9.5 18.333 -9.5 31c0 14.667 3.33301 29 10 43l50 113.5c18.667 41 38.334 77.167 59.001 108.5c2 2.66699 4.16699 4.83398 6.5 6.50098s5.16602 2.5 8.49902 2.5c4.66699 0 8.83398 -1.33301 12.501 -4s5.5 -6 5.5 -10c0 -1.33301 -0.666992 -3.33301 -2 -6
c-4 -9.33301 -11.167 -24.166 -21.5 -44.499l-35.5 -69.5l-41 -80c-10.667 -20.667 -16 -38.667 -16 -54c0 -12 4.33301 -18 13 -18c4 0 8.33301 1.33301 13 4c20 11.333 37.667 24.666 53 39.999l45 47l27.5 30c9 10 17.833 20.333 26.5 31
c3.33301 3.33301 9.83301 11.333 19.5 24l32.5 42.5l32.5 42l17.5 22.5c5.33301 5.33301 13.333 8 24 8c5.33301 0 10.166 -1.16699 14.499 -3.5s6.5 -6.16602 6.5 -11.499c0 -4.66699 -3.16699 -12.5 -9.5 -23.5s-13.833 -23 -22.5 -36s-17 -24.833 -25 -35.5
s-13.667 -18.667 -17 -24l-15 -26.5c-7.33301 -13 -15.166 -28 -23.499 -45s-15.5 -33.5 -21.5 -49.5s-9 -29.333 -9 -40c0 -12 5 -18 15 -18c10.667 0 23 6.66699 37 20s28.667 29.833 44 49.5s29.666 39.334 42.999 59.001l34 49.5
c2.66699 3.33301 5.33398 5.33301 8.00098 6s4.66699 1 6 1c6.66699 0 10.667 -4 12 -12c0 -2 -2.33301 -7.66699 -7 -17s-9.33398 -17 -14.001 -23l-27.5 -39.5c-12.333 -17.667 -26.333 -36.334 -42 -56.001s-32.834 -37.167 -51.501 -52.5c-12 -10 -27 -15 -45 -15z" />
    <glyph glyph-name="v" unicode="v" horiz-adv-x="319" 
d="M72 -11c-12.667 0 -20.998 5.66797 -24.998 17.001s-6 21.333 -6 30c0 15.333 2 35 6 59s9.33301 49 16 75c-8 -12.667 -16.5 -25.334 -25.5 -38.001l-24.5 -35c-2.66699 -4.66699 -6.66699 -7 -12 -7c-4.66699 0 -8.83398 2 -12.501 6s-3.83398 8.33301 -0.500977 13
l34.5 51l43.5 67c14.667 23.333 27 43.666 37 60.999l9.5 16.5c3 5 5.83301 9.5 8.5 13.5c4.66699 4.66699 11 7 19 7c4.66699 0 8.83398 -1.33301 12.501 -4s5.5 -6.33398 5.5 -11.001c0 -1.33301 -0.333008 -2.66602 -1 -3.99902l-2 -4
c-6.66699 -10.667 -12.667 -21.667 -18 -33s-10 -22.666 -14 -33.999c-10 -30.667 -19.5 -62.5 -28.5 -95.5s-14.167 -65.5 -15.5 -97.5l4 -1c15.333 24 34.166 50.167 56.499 78.5s46.833 56.666 73.5 84.999s54 54.333 82 78s55 42.834 81 57.501c4 2 7.66699 3 11 3
c4.66699 0 8.66699 -1.5 12 -4.5s5 -6.5 5 -10.5s-2.33301 -7.66699 -7 -11c-10.667 -6.66699 -21.167 -13.667 -31.5 -21l-30.5 -22c-38.667 -29.333 -74 -61.5 -106 -96.5s-61 -71.833 -87 -110.5c-6 -8.66699 -11.667 -17.667 -17 -27l-16 -28
c-4 -5.33301 -9.16699 -10.5 -15.5 -15.5s-13.5 -7.5 -21.5 -7.5z" />
    <glyph glyph-name="w" unicode="w" horiz-adv-x="522" 
d="M248 -16c-12 0 -22.1631 3.66309 -30.4961 10.9961s-12.5 19.333 -12.5 36c0 22 4.33301 44.167 13 66.5s18.334 43.166 29.001 62.499l-5 1l-28.5 -35.5c-12.333 -15 -26.333 -30.333 -42 -46s-31.834 -30.167 -48.501 -43.5c-13.333 -10.667 -26.5 -19.5 -39.5 -26.5
s-24.833 -10.5 -35.5 -10.5c-11.333 0 -19.333 3.16699 -24 9.5s-7 14.166 -7 23.499c0 15.333 2.16699 32 6.5 50s9.5 35 15.5 51l-13.5 -19l-12.5 -17c-2.66699 -4.66699 -6.66699 -7 -12 -7c-4.66699 0 -8.83398 2 -12.501 6s-3.83398 8.33301 -0.500977 13l34.5 51
l43.5 67c14.667 23.333 27 43.666 37 60.999l9.5 16.5c3 5 5.83301 9.5 8.5 13.5c4.66699 4.66699 11 7 19 7c6 0 11 -2 15 -6c2 -2 3 -4.66699 3 -8v-1c0 -1.33301 -0.333008 -2.66602 -1 -3.99902l-2 -4l-2 -2l-39.5 -81.5c-13.667 -27 -24.167 -50.167 -31.5 -69.5
l-10 -28c-4.66699 -13.333 -9 -27.166 -13 -41.499s-6 -25.833 -6 -34.5s3 -13 9 -13c4 0 9.83301 2.16699 17.5 6.5s17.5 11.833 29.5 22.5c21.333 18.667 41.666 38.334 60.999 59.001s37.666 41.667 54.999 63c2 2.66699 7.16699 9.16699 15.5 19.5l29 36l32 40
l25.5 31.5c6.66699 8 16 12 28 12c4.66699 0 8.66699 -1.33301 12 -4s5 -6.66699 5 -12c0 -4 -0.333008 -6.66699 -1 -8c-5.33301 -19.333 -15.5 -39.166 -30.5 -59.499l-48 -66c-17 -23.667 -31.833 -50.5 -44.5 -80.5
c-0.666992 -2.66699 -2.33398 -8.83398 -5.00098 -18.501s-4 -19.167 -4 -28.5c0 -8 1.5 -14.833 4.5 -20.5s7.83301 -8.5 14.5 -8.5c12 0 27.167 6 45.5 18s36.833 26.833 55.5 44.5s35.834 35 51.501 52s27.167 30.5 34.5 40.5c19.333 26.667 35.666 54.334 48.999 83.001
s20 54.667 20 78c0 22.667 -16.333 34.334 -49 35.001c-9.33301 0 -14 4 -14 12c0 3.33301 1.33301 6.33301 4 9s6.33398 4 11.001 4c24 -0.666992 42.833 -6 56.5 -16s20.5 -24.667 20.5 -44c0 -26 -7 -54 -21 -84s-30.667 -58.667 -50 -86
c-24 -33.333 -49.5 -62.666 -76.5 -87.999s-58.833 -49.666 -95.5 -72.999c-8 -4.66699 -16.5 -8.66699 -25.5 -12s-17.833 -5 -26.5 -5z" />
    <glyph glyph-name="x" unicode="x" horiz-adv-x="344" 
d="M-111 -122c-4.66699 0 -8.82617 1.50098 -12.4932 4.50098s-5.5 6.5 -5.5 10.5c0 2.66699 1 5 3 7c42.667 52.667 87.667 104.167 135 154.5s96.333 98.833 147 145.5c-0.666992 8 -2.16699 20 -4.5 36s-5.5 31.5 -9.5 46.5s-9.33301 25.5 -16 31.5
c-3.33301 3.33301 -5 6.66602 -5 9.99902c0 9.33301 5.33301 14 16 14c7.33301 0 14 -4.83301 20 -14.5s11 -21.334 15 -35.001s7.16699 -26.5 9.5 -38.5s3.83301 -20.333 4.5 -25l26.5 22.5l45 37l51 40.5c17 13.333 31.667 24.333 44 33s20.166 13 23.499 13
c4.66699 0 8.5 -1.5 11.5 -4.5s4.5 -6.16699 4.5 -9.5c0 -4 -2.33301 -7.66699 -7 -11c-10.667 -8.66699 -21.667 -17.167 -33 -25.5l-34 -25.5l-126 -105c0 -12 0.833008 -29.333 2.5 -52s3.83398 -44 6.50098 -64c5.33301 -32 16.666 -48 33.999 -48
c9.33301 0 19.833 4.5 31.5 13.5s23.5 20.5 35.5 34.5c13.333 15.333 24.5 29.666 33.5 42.999s15.5 22.666 19.5 27.999c5.33301 6.66699 10.333 13.5 15 20.5l14 20.5c3.33301 4.66699 7.33301 7.33398 12 8.00098h2c7.33301 0 11.666 -4 12.999 -12
c1.33301 -3.33301 0.666016 -6.33301 -2.00098 -9c-14.667 -28 -41.334 -65 -80.001 -111c-16.667 -19.333 -34.334 -35.666 -53.001 -48.999s-36 -20 -52 -20c-13.333 0 -25 5.66699 -35 17s-17 30.333 -21 57c-2.66699 16.667 -4.33398 33.5 -5.00098 50.5
s-1.33398 31.833 -2.00098 44.5c-32.667 -29.333 -64 -59.666 -94 -90.999l-88 -96l-39.5 -45.5l-39.5 -46.5c-3.33301 -3.33301 -7 -5 -11 -5z" />
    <glyph glyph-name="y" unicode="y" horiz-adv-x="354" 
d="M-110 -373c-22.667 0 -40.498 5.83301 -53.498 17.5s-19.5 26.5 -19.5 44.5c0 16 7 33.667 21 53s36 40.666 66 63.999c10 8 26.167 19.167 48.5 33.5l76 47.5l84 51l74.5 44.5c22 13 37.667 22.5 47 28.5c6 16 10.333 33.5 13 52.5s4.16699 36.333 4.5 52
s0.166016 27.167 -0.500977 34.5c-8 -18.667 -20.167 -38.834 -36.5 -60.501s-35.166 -43.167 -56.499 -64.5c-12.667 -12.667 -27.167 -23.167 -43.5 -31.5s-32.166 -12.5 -47.499 -12.5c-14.667 0 -26.834 5 -36.501 15s-14.5 26.667 -14.5 50
c0 15.333 1.66699 30.666 5 45.999s7.16602 28.666 11.499 39.999s7.5 18.333 9.5 21c-3.33301 4.66699 -5 9.66699 -5 15c0 12 4.5 26 13.5 42s18.667 30.667 29 44s16.833 22.333 19.5 27c1.33301 2.66699 4.16602 4.83398 8.49902 6.50098s8.16602 2.5 11.499 2.5
c4.66699 0 8.83398 -1.33301 12.501 -4s5.5 -6 5.5 -10c0 -1.33301 -0.666992 -3.33301 -2 -6c-22.667 -38.667 -42.834 -77.5 -60.501 -116.5s-26.5 -74.833 -26.5 -107.5c0 -12.667 2.33301 -21.5 7 -26.5s10.334 -7.5 17.001 -7.5c11.333 0 23.666 4.33301 36.999 13
s23.666 17 30.999 25c24.667 25.333 46.334 53 65.001 83s32 53.333 40 70c2 5.33301 5.5 11.5 10.5 18.5s11.5 10.5 19.5 10.5c7.33301 0 11.833 -3.16699 13.5 -9.5s2.5 -16.166 2.5 -29.499c0 -30.667 -1.16699 -58.667 -3.5 -84s-5.16602 -46.666 -8.49902 -63.999
c22.667 18.667 43.5 41.167 62.5 67.5s36.167 51.166 51.5 74.499c3.33301 5.33301 7.66602 8 12.999 8c3.33301 0 6.5 -1.33301 9.5 -4s4.5 -6 4.5 -10c0 -2.66699 -1 -6 -3 -10c-20.667 -33.333 -42.667 -65.166 -66 -95.499s-52.666 -57.166 -87.999 -80.499
c-18.667 -53.333 -44.167 -103.833 -76.5 -151.5s-68 -89 -107 -124s-78.167 -60.5 -117.5 -76.5c-25.333 -10.667 -49.333 -16 -72 -16zM-109.998 -348c8 0 16.6641 1.33301 25.9971 4s19 6 29 10c39.333 17.333 75.5 40.666 108.5 69.999s61.833 61 86.5 95
c16.667 23.333 31.334 47.5 44.001 72.5s22.667 44.167 30 57.5l-48.5 -28l-67 -40l-72 -44l-64 -40.5c-19 -12.333 -33.167 -22.166 -42.5 -29.499c-21.333 -16.667 -38.166 -32.5 -50.499 -47.5s-18.5 -29.167 -18.5 -42.5c0 -10.667 3.33301 -19.5 10 -26.5
s16.334 -10.5 29.001 -10.5z" />
    <glyph glyph-name="z" unicode="z" horiz-adv-x="386" 
d="M-113 -342c-22 0 -39.8301 5.00098 -53.4971 15.001s-20.5 25 -20.5 45c0 19.333 10.5 38.833 31.5 58.5s45.833 38.834 74.5 57.501c23.333 14.667 47.333 28.167 72 40.5s47.667 23.333 69 33l52 23.5c27.333 12.667 54.333 25.834 81 39.501
s52.334 28.167 77.001 43.5c3.33301 7.33301 6.83301 17.166 10.5 29.499s5.5 24.833 5.5 37.5c0 13.333 -3.16699 25.166 -9.5 35.499s-17.833 15.5 -34.5 15.5c-4 0 -8.66699 -0.666992 -14 -2c-4.66699 -5.33301 -12.834 -13.5 -24.501 -24.5
s-24.334 -22.333 -38.001 -34s-26.667 -21.5 -39 -29.5s-22.166 -12 -29.499 -12c-9.33301 0 -14 5 -14 15c0 8.66699 2.66699 17 8 25s11 15 17 21c14 13.333 27.833 25.333 41.5 36s30.834 18.334 51.501 23.001c8 10 17.833 23.167 29.5 39.5s21.834 32.5 30.501 48.5
c8.66699 17.333 13 31.333 13 42c0 20 -13.333 30 -40 30c-24 0 -46.5 -7.66699 -67.5 -23s-40.333 -34.333 -58 -57s-34.167 -45.334 -49.5 -68.001l-33 -47.5c-7.33301 -10.333 -12.5 -17 -15.5 -20s-5.83301 -4.5 -8.5 -4.5c-9.33301 0 -14 4.33301 -14 13
c0 1.33301 0.833008 3.5 2.5 6.5s5.83398 9.83301 12.501 20.5c20.667 32.667 42.167 64.667 64.5 96s47.166 57.5 74.499 78.5s58.333 31.5 93 31.5c22.667 0 40.334 -4.66699 53.001 -14s19 -23.333 19 -42c0 -15.333 -5 -33.666 -15 -54.999
c-6 -12.667 -13 -24.667 -21 -36l-23 -32c25.333 -0.666992 43.5 -9.33398 54.5 -26.001s16.5 -34.667 16.5 -54c0 -10 -1.66699 -20.667 -5 -32c19.333 16 39.166 37.667 59.499 65s38.166 52.666 53.499 75.999c3.33301 5.33301 7.66602 8 12.999 8
c8.66699 0 13 -4.66699 13 -14c0 -2.66699 -1 -6 -3 -10c-20.667 -33.333 -42.334 -65 -65.001 -95s-51.667 -56.667 -87 -80c-14 -40 -34.167 -77.667 -60.5 -113s-56 -67.5 -89 -96.5s-66.833 -53.5 -101.5 -73.5s-67.334 -34.667 -98.001 -44
c-20.667 -6.66699 -41.334 -10 -62.001 -10zM-113.997 -316.999c7.33301 0 15.333 1.00098 24 3.00098s17.334 4.33301 26.001 7c42 14 81.833 34 119.5 60s71.667 55.333 102 88s56.166 65.667 77.499 99c2 4 4.16699 7.83301 6.5 11.5s4.5 7.5 6.5 11.5
c-19.333 -10.667 -39 -20.834 -59 -30.501l-61 -28.5l-51.5 -23c-22.333 -10 -46.333 -21.333 -72 -34s-50.167 -26.334 -73.5 -41.001c-24 -14.667 -44.167 -29.667 -60.5 -45s-24.5 -29.666 -24.5 -42.999c0 -12.667 3.66699 -21.667 11 -27s17 -8 29 -8z" />
    <glyph glyph-name="braceleft" unicode="{" horiz-adv-x="370" 
d="M236 -63c-32.667 0 -59.3291 7.49512 -79.9961 22.4951s-31 39.5 -31 73.5c0 23.333 3.5 46.333 10.5 69l21 67c7 22 10.5 43.667 10.5 65c0 17.333 -6.33301 35.333 -19 54s-27.334 31.334 -44.001 38.001c0.666992 2 5.5 6.33301 14.5 13l33 24.5
c13 9.66699 25.833 20.334 38.5 32.001s23 23.834 31 36.501c13.333 20 25.833 40 37.5 60l35.5 61c17.333 28.667 33.166 52.334 47.499 71.001s31.666 32.834 51.999 42.501s48.166 14.834 83.499 15.501c-4 -10 -11.833 -17.333 -23.5 -22s-22.167 -8 -31.5 -10
c-30 -6 -54 -20 -72 -42s-32.333 -47.167 -43 -75.5l-30 -81.5c-10 -28 -26.167 -50.833 -48.5 -68.5s-45.833 -33.5 -70.5 -47.5c11.333 -6.66699 22.833 -16.5 34.5 -29.5s17.5 -26.833 17.5 -41.5c0 -24.667 -4.5 -48.834 -13.5 -72.501l-27.5 -71
c-9.33301 -23.667 -14 -48.167 -14 -73.5c0 -20 4.66699 -35.667 14 -47s21.5 -20 36.5 -26s30.833 -11 47.5 -15c2 -0.666992 5.83301 -1.66699 11.5 -3s8.5 -4 8.5 -8c0 -3.33301 -2.66699 -5.83301 -8 -7.5s-11 -2.66699 -17 -3s-10 -0.5 -12 -0.5z" />
    <glyph glyph-name="bar" unicode="|" horiz-adv-x="237" 
d="M79 -2c-8 0 -11.001 4 -9.00098 12l161 658c0.666992 3.33301 2.83398 6 6.50098 8s7.16699 3 10.5 3c6.66699 0 9.66699 -3.66699 9 -11l-161 -658c-2 -8 -7.66699 -12 -17 -12z" />
    <glyph glyph-name="braceright" unicode="}" horiz-adv-x="370" 
d="M74 -99c2 10.667 8.32715 19.4961 18.9941 26.4961s20.334 12.167 29.001 15.5c21.333 8.66699 38.333 21.334 51 38.001s22.334 35.667 29.001 57s11.834 43.166 15.501 65.499s6.83398 43.166 9.50098 62.499c4 29.333 15.5 54.833 34.5 76.5
s38.833 41.834 59.5 60.501c-21.333 8 -37.833 18.833 -49.5 32.5s-17.5 32.167 -17.5 55.5c0 28 3 55.667 9 83s9 55 9 83c0 26.667 -4.66699 46.834 -14 60.501s-22.666 22.834 -39.999 27.501s-38 7.33398 -62 8.00098c-1.33301 0.666992 -5.16602 1.16699 -11.499 1.5
s-9.5 2.5 -9.5 6.5c0 5.33301 4.83301 9.5 14.5 12.5s20 5 31 6s18.5 1.5 22.5 1.5c26.667 0 47 -5.66699 61 -17s23.5 -26.5 28.5 -45.5s7.5 -40.167 7.5 -63.5c0 -22 -1.16699 -44.167 -3.5 -66.5s-3.5 -44.5 -3.5 -66.5c0 -22.667 7.5 -43.834 22.5 -63.501
s33.833 -31.834 56.5 -36.501c0 -2.66699 -3.83301 -8 -11.5 -16l-27.5 -30c-10.667 -12 -21.167 -25 -31.5 -39s-18.166 -28 -23.499 -42l-25 -66l-24 -66c-10.667 -31.333 -21.334 -57.666 -32.001 -78.999s-25.167 -38.666 -43.5 -51.999s-44.833 -23.666 -79.5 -30.999z
" />
    <glyph glyph-name="asciitilde" unicode="~" horiz-adv-x="473" 
d="M386 379c-20 0 -36.835 3.83105 -50.502 11.498s-26.5 15.334 -38.5 23.001s-25.667 11.5 -41 11.5c-16.667 0 -29.5 -4 -38.5 -12s-17.167 -18 -24.5 -30c-0.666992 -2 -3.66699 -3 -9 -3c-3.33301 0 -6.5 0.833008 -9.5 2.5s-3.16699 4.83398 -0.5 9.50098
c8.66699 16 19.334 29.667 32.001 41s28.334 17 47.001 17c20 0 36.833 -3.83301 50.5 -11.5s26.5 -15.334 38.5 -23.001s25.667 -11.5 41 -11.5c17.333 0 30.5 4 39.5 12s16.833 18 23.5 30c1.33301 2 4 3 8 3s7.5 -1 10.5 -3s3.16699 -5.33301 0.5 -10
c-8.66699 -15.333 -19.5 -28.666 -32.5 -39.999s-28.5 -17 -46.5 -17z" />
    <glyph glyph-name="uni00A0" unicode="&#xa0;" horiz-adv-x="215" 
 />
    <glyph glyph-name="exclamdown" unicode="&#xa1;" horiz-adv-x="243" 
d="M211 299c-9.33301 0 -17.5 3.66699 -24.5 11s-10.167 15.666 -9.5 24.999s4.5 17.333 11.5 24s15.167 10 24.5 10s17.5 -3.33301 24.5 -10s10.167 -14.667 9.5 -24s-4.5 -17.666 -11.5 -24.999s-15.167 -11 -24.5 -11zM17 -211c-4 0 -7.66699 1.16602 -11 3.49902
s-4.66602 5.83301 -3.99902 10.5c0.666992 2.66699 5.33398 14.167 14.001 34.5l33 76.5c13.333 30.667 26.333 63 39 97l31.5 83.5l24 66.5c6.33301 18 10.166 28.667 11.499 32c3.33301 6.66699 9 10 17 10c2.66699 0 5.66699 -1.16699 9 -3.5
s4.66602 -5.83301 3.99902 -10.5c0 -2 -3.5 -13 -10.5 -33l-27 -75l-36.5 -95c-11.333 -29.333 -22.833 -57.666 -34.5 -84.999l-29.5 -68.5c-8 -18.333 -13 -29.5 -15 -33.5c-3.33301 -6.66699 -8.33301 -10 -15 -10z" />
    <glyph glyph-name="cent" unicode="&#xa2;" horiz-adv-x="389" 
d="M95 -25c-6.66699 0 -10.666 1.66895 -11.999 5.00195s-1.66602 7.33301 -0.999023 12c0.666992 8 4 21 10 39s13.5 38.5 22.5 61.5l28.5 71.5c-16.667 10 -29 23.667 -37 41s-12 35.333 -12 54c0 17.333 2.66699 34.166 8 50.499s12.333 31.833 21 46.5
c10 18.667 24 39.5 42 62.5s38.833 43.5 62.5 61.5s49.167 29 76.5 33c17.333 37.333 32.5 67.833 45.5 91.5s22.5 35.5 28.5 35.5c2.66699 0 6.5 -1.5 11.5 -4.5s7.16699 -6.16699 6.5 -9.5c-0.666992 -2 -7 -13.833 -19 -35.5s-25.333 -47.834 -40 -78.501
c12.667 -3.33301 22.167 -10.166 28.5 -20.499s9.5 -21.5 9.5 -33.5c0 -4.66699 -1.33301 -12 -4 -22s-6.16699 -20.333 -10.5 -31s-9.5 -19.834 -15.5 -27.501s-12.667 -11.5 -20 -11.5c-4 0 -7.66699 1.5 -11 4.5s-5 6.16699 -5 9.5c0 2 2.66699 6.66699 8 14
s10.666 16.333 15.999 27s8 22 8 34c0 6.66699 -1.33301 12.667 -4 18s-7.33398 8.66602 -14.001 9.99902l-77.5 -161.5c-21.667 -46.333 -42.5 -93.166 -62.5 -140.499c5.33301 -1.33301 11 -2 17 -2c20 0 39.333 5 58 15s34.334 21.333 47.001 34
c13.333 12.667 24.166 24 32.499 34s17 21.5 26 34.5l34.5 51.5c2.66699 4.66699 6.66699 7 12 7c9.33301 0 14 -5 14 -15c0 -3.33301 -0.666992 -6 -2 -8c-18 -28.667 -37.833 -57 -59.5 -85s-46 -51.167 -73 -69.5s-57.5 -27.5 -91.5 -27.5c-9.33301 0 -18 1 -26 3
l-32 -79.5l-34 -90.5c-2 -5.33301 -5.66699 -8 -11 -8zM131.001 265.002c0 -13.333 1.66895 -26.5 5.00195 -39.5s10 -23.5 20 -31.5l32.5 77c10.333 23.333 18.166 40 23.499 50l39.5 81.5l36.5 76.5c-20 -6.66699 -39 -18.5 -57 -35.5s-33.833 -35 -47.5 -54
s-24.167 -34.833 -31.5 -47.5c-6.66699 -12 -11.834 -24.5 -15.501 -37.5s-5.5 -26.167 -5.5 -39.5z" />
    <glyph glyph-name="sterling" unicode="&#xa3;" horiz-adv-x="553" 
d="M53 -34c-16 0 -22.333 8.33105 -19 24.998c2 5.33301 6.83301 11.333 14.5 18s15.834 13.167 24.501 19.5s15.334 10.5 20.001 12.5l17 36c26.667 54.667 54.667 105 84 151c-22.667 -3.33301 -39.667 -8 -51 -14s-20 -9 -26 -9c-4 0 -7.33301 1 -10 3s-4 6.33301 -4 13
c0 9.33301 6.16699 16.666 18.5 21.999s27.166 9.33301 44.499 12s33.666 4.33398 48.999 5.00098c31.333 47.333 66.333 92.333 105 135s82.334 86 131.001 130c20 19.333 45.167 34.333 75.5 45s57.5 16 81.5 16c23.333 0 40 -4.5 50 -13.5s15 -20.833 15 -35.5
c0 -18.667 -6.5 -39.667 -19.5 -63s-29.333 -45.666 -49 -66.999s-39.5 -38.333 -59.5 -51c-8 -4.66699 -13.833 -7.5 -17.5 -8.5s-6.16699 0.166992 -7.5 3.5c-0.666992 1.33301 -1.16699 1.83301 -1.5 1.5s-2.5 -0.833008 -6.5 -1.5
c2.66699 3.33301 4.16699 5.33301 4.5 6s0.166016 1.33398 -0.500977 2.00098s-1 1.66699 -1 3c0 4 5.66699 9.66699 17 17c17.333 11.333 34 26.5 50 45.5s29.167 38.667 39.5 59s15.5 37.5 15.5 51.5c0 18 -9.66699 27 -29 27c-23.333 0 -49.5 -8.33301 -78.5 -25
s-59.167 -39.167 -90.5 -67.5s-62.5 -60.5 -93.5 -96.5s-60.167 -73.333 -87.5 -112c18 -1.33301 36.333 -4 55 -8s36.667 -9 54 -15c0.666992 0 2.33398 -0.5 5.00098 -1.5s4 -2.16699 4 -3.5c0 -8.66699 -7 -13 -21 -13c-4 0 -9.33301 0.833008 -16 2.5
s-17.667 3.5 -33 5.5s-38.333 3 -69 3c-19.333 -28.667 -37 -57 -53 -85s-29.667 -54.667 -41 -80c43.333 22 86 37.167 128 45.5s84.333 12.5 127 12.5c12 0 25.5 -1.66699 40.5 -5s28 -9.66602 39 -18.999s16.5 -23 16.5 -41c0 -4 -1.83301 -8.16699 -5.5 -12.5
s-7.16699 -6.5 -10.5 -6.5c-8.66699 0 -13.667 4.66699 -15 14c-2.66699 17.333 -10.334 28.166 -23.001 32.499s-27.667 6.5 -45 6.5c-47.333 0 -89.5 -4 -126.5 -12s-68 -17 -93 -27s-43.5 -18 -55.5 -24c-6 -12.667 -14.5 -26.5 -25.5 -41.5s-24.833 -22.5 -41.5 -22.5z
" />
    <glyph glyph-name="currency" unicode="&#xa4;" horiz-adv-x="458" 
d="M130 120c-2.66699 0 -4.67188 0.5 -6.00488 1.5s-3 2.16699 -5 3.5c-1.33301 2.66699 -2 4.66699 -2 6c0 8 7.66699 18.667 23 32l33 30c-12.667 13.333 -19 31 -19 53c0 30.667 12.667 59.667 38 87l-12.5 15c-4.33301 5.33301 -8.16602 9.33301 -11.499 12
c-12 12 -17 23.333 -15 34c0 4.66699 2 8.33398 6 11.001c2.66699 2.66699 5.33398 4 8.00098 4c4.66699 0 9.33398 -2.83301 14.001 -8.5l14 -17.5c3.33301 -3.33301 7.33301 -7.83301 12 -13.5s8.33398 -10.5 11.001 -14.5c12 8 24.833 14.167 38.5 18.5
s28.5 6.5 44.5 6.5c12 0 22.833 -1.5 32.5 -4.5s17.834 -7.16699 24.501 -12.5l3 2c6 6 14.333 13 25 21s19.334 14 26.001 18c3.33301 2.66699 7 4 11 4c4.66699 0 8.66699 -2 12 -6c2.66699 -2.66699 3.66699 -6.33398 3 -11.001c0 -4 -2 -7.66699 -6 -11
c-6.66699 -5.33301 -15.334 -11.833 -26.001 -19.5s-19.667 -14.834 -27 -21.501c6 -12 9 -26 9 -42c0 -29.333 -12 -57.666 -36 -84.999l17 -18c5.33301 -5.33301 10.333 -11 15 -17s8.66699 -12.333 12 -19c3.33301 -2 4 -5 2 -9c0 -5.33301 -2 -10 -6 -14
c-2.66699 -2.66699 -6.66699 -4 -12 -4c-4 0 -7.66699 1.33301 -11 4c-5.33301 6 -10.333 12.667 -15 20s-10 14.333 -16 21l-13 14c-22 -14.667 -49.667 -22 -83 -22c-16.667 0 -30.667 2.33301 -42 7c-4.66699 -4.66699 -11.5 -11.167 -20.5 -19.5
s-15.5 -14.5 -19.5 -18.5c-13.333 -11.333 -23.333 -17 -30 -17zM249.995 194c20.667 0 38.832 5.33008 54.499 15.9971s27.834 23.834 36.501 39.501s13 31.167 13 46.5s-5 28.5 -15 39.5s-25.667 16.5 -47 16.5c-20.667 0 -38.667 -5.33301 -54 -16
s-27.166 -23.667 -35.499 -39s-12.5 -30.666 -12.5 -45.999s4.66699 -28.666 14 -39.999s24.666 -17 45.999 -17z" />
    <glyph glyph-name="yen" unicode="&#xa5;" horiz-adv-x="452" 
d="M248 3c-22 3.33301 -41.6631 14.168 -58.9961 32.501s-26 38.833 -26 61.5c0 13.333 1.33301 26.5 4 39.5s6.33398 25.833 11.001 38.5c1.33301 4.66699 4.33301 11.667 9 21l15 30c-6 -0.666992 -12.167 -1 -18.5 -1h-18.5c-7.33301 0 -16 2.5 -26 7.5
s-15 12.5 -15 22.5c0 4 1.66699 7.83301 5 11.5s7.33301 5.5 12 5.5c5.33301 0 9.5 -2 12.5 -6s7.5 -6 13.5 -6c18.667 0 37 1 55 3l21.5 32.5c7 10.333 13.833 18.833 20.5 25.5l-3 5c-8 -0.666992 -16.167 -1.16699 -24.5 -1.5s-16.5 -0.5 -24.5 -0.5
c-6.66699 0 -15.167 2.33301 -25.5 7s-15.5 12 -15.5 22c0 4.66699 1.66699 8.83398 5 12.501s7.33301 5.5 12 5.5c6 0 10.333 -2 13 -6s7.33398 -6 14.001 -6h18c6 0 12 0.333008 18 1c-3.33301 14 -5.83301 28.667 -7.5 44s-2.5 30.333 -2.5 45
c0 33.333 3.5 65.5 10.5 96.5s16.833 56.5 29.5 76.5c5.33301 8.66699 12.666 13 21.999 13c4.66699 0 8.16699 -1.5 10.5 -4.5s2.5 -7.5 0.5 -13.5c-4.66699 -13.333 -9 -27 -13 -41s-8.66699 -34.667 -14 -62c-4 -22.667 -6 -43.334 -6 -62.001
c0 -13.333 0.833008 -27 2.5 -41s3.83398 -29.667 6.50098 -47c4 0 7.33301 0.333008 10 1c13.333 22.667 30.666 47.167 51.999 73.5s45.166 52.666 71.499 78.999s53.833 50.333 82.5 72s57.334 39.5 86.001 53.5c4 2 8.33301 3 13 3c5.33301 0 10.5 -1.33301 15.5 -4
s7.83301 -6 8.5 -10c0 -0.666992 0.166992 -1.16699 0.5 -1.5l0.5 -0.5c0 -2 -0.833008 -3.5 -2.5 -4.5s-3.16699 -2.16699 -4.5 -3.5l-34 -20.5c-11.333 -7 -22.333 -14.167 -33 -21.5c-16.667 -11.333 -36.834 -27.666 -60.501 -48.999s-48.5 -45.833 -74.5 -73.5
s-51.333 -57.167 -76 -88.5c6 0.666992 12 1.16699 18 1.5s12.333 0.5 19 0.5c15.333 0 30 -1 44 -3c10.667 -2 16 -8.33301 16 -19c0 -3.33301 -1.33301 -6.83301 -4 -10.5s-6.66699 -5.5 -12 -5.5c-8.66699 0 -16.834 0.666992 -24.501 2s-15.834 2 -24.501 2
c-10 0 -20.167 -0.333008 -30.5 -1s-20.5 -1.66699 -30.5 -3l-22 -32l-21 -32c10.667 1.33301 21 2.33301 31 3s20.333 1 31 1c7.33301 0 14.666 -0.333008 21.999 -1s14.333 -1.66699 21 -3c10.667 -2 16 -8 16 -18c0 -3.33301 -1.33301 -6.83301 -4 -10.5
s-7 -5.5 -13 -5.5c-7.33301 0 -14.833 0.666992 -22.5 2s-15.834 2 -24.501 2c-13.333 0 -26.333 -0.666992 -39 -2s-25.667 -3 -39 -5c-16 -29.333 -28.333 -58 -37 -86s-11.667 -53.667 -9 -77c2 -20.667 17.667 -31 47 -31c9.33301 -6.66699 14 -13.334 14 -20.001
c0 -4.66699 -1.83301 -8.5 -5.5 -11.5s-8.16699 -4.16699 -13.5 -3.5z" />
    <glyph glyph-name="brokenbar" unicode="&#xa6;" horiz-adv-x="237" 
d="M167 405l63.999 263c0.666992 3.33301 2.83398 6 6.50098 8s7.16699 3 10.5 3c6.66699 0 9.66699 -3.66699 9 -11l-64 -263h-26zM78.999 -2c-8 0 -11 4 -9 12l71 288h26l-71 -288c-2 -8 -7.66699 -12 -17 -12z" />
    <glyph glyph-name="section" unicode="&#xa7;" horiz-adv-x="644" 
d="M30 -209c-2.66699 0 -5.50684 -0.166016 -8.50684 -0.499023s-6.16699 -0.5 -9.5 -0.5c-20.667 0 -40 3 -58 9s-32.667 15.167 -44 27.5s-17 28.5 -17 48.5c0 8 1 16 3 24c1.33301 5.33301 4.16602 14.166 8.49902 26.499s9.83301 23.833 16.5 34.5
s13.334 16.334 20.001 17.001c4 0 5.33301 -2 4 -6c-1.33301 -8.66699 -4.66602 -17.334 -9.99902 -26.001s-9 -17.667 -11 -27c-0.666992 -3.33301 -1.16699 -6.83301 -1.5 -10.5s-0.5 -7.16699 -0.5 -10.5c0 -18.667 5.66699 -33.834 17 -45.501s26 -19.834 44 -24.501
s36.333 -6.66699 55 -6c42.667 2 85.334 11.333 128.001 28s83.5 37.5 122.5 62.5s73.5 51.667 103.5 80s53.833 56 71.5 83s26.5 50.167 26.5 69.5c0 14.667 -5.5 26.167 -16.5 34.5s-28.833 12.5 -53.5 12.5c-30.667 0 -61.834 -2.5 -93.501 -7.5
s-63.334 -10.333 -95.001 -16s-62.834 -9.5 -93.501 -11.5c-17.333 -0.666992 -33.666 1.5 -48.999 6.5s-23 16.167 -23 33.5v6c0 2 0.333008 4.33301 1 7c5.33301 24 17.833 48.5 37.5 73.5s43.5 49.167 71.5 72.5c0 3.33301 0.5 7.16602 1.5 11.499s1.83301 8.5 2.5 12.5
c6.66699 23.333 19.167 47 37.5 71s40.5 47 66.5 69s53.5 42.5 82.5 61.5s57.5 35.5 85.5 49.5s52.667 25 74 33c25.333 9.33301 50.5 16.833 75.5 22.5s49.833 8.83398 74.5 9.50098l14 1c21.333 0.666992 42 -1.83301 62 -7.5s36.333 -15 49 -28s19 -30.167 19 -51.5
c0 -10 -1.33301 -20 -4 -30c-1.33301 -4.66699 -4.5 -13.167 -9.5 -25.5s-11 -23.833 -18 -34.5s-14.167 -16 -21.5 -16c-4 0 -5.33301 2 -4 6c2.66699 8.66699 6.83398 17.334 12.501 26.001s9.83398 17.667 12.501 27c2 9.33301 3 17.333 3 24c0 18 -5.5 33 -16.5 45
s-24.833 20.833 -41.5 26.5s-34.334 8.5 -53.001 8.5c-26.667 0 -58 -5.16699 -94 -15.5s-73.167 -24.5 -111.5 -42.5s-75 -39 -110 -63s-64.833 -50.167 -89.5 -78.5s-41 -57.5 -49 -87.5c-0.666992 -2.66699 -1.16699 -5.16699 -1.5 -7.5s-0.5 -4.83301 -0.5 -7.5
c0 -17.333 7.5 -30.666 22.5 -39.999s30.833 -14 47.5 -14c44.667 0 89.834 3.66699 135.501 11s90.5 11 134.5 11c16.667 0 32.167 -2.66699 46.5 -8s21.5 -16.666 21.5 -33.999c0 -2 -0.166992 -4.16699 -0.5 -6.5s-0.833008 -5.16602 -1.5 -8.49902
c-6 -22 -17.667 -43.833 -35 -65.5s-38.666 -42.834 -63.999 -63.501c0 -2.66699 -0.166992 -5.33398 -0.5 -8.00098s-0.833008 -5.66699 -1.5 -9c-5.33301 -23.333 -16.666 -47.166 -33.999 -71.499s-38.666 -48 -63.999 -71s-52.166 -44.5 -80.499 -64.5
s-56.166 -37.833 -83.499 -53.5s-51.666 -27.834 -72.999 -36.501c-24.667 -10.667 -49.334 -19.5 -74.001 -26.5s-49.667 -11.5 -75 -13.5zM523.993 182.001c10.667 9.33301 20.333 18.832 29 28.499s16.334 18.834 23.001 27.501c3.33301 4.66699 6.33301 9.16699 9 13.5
s4.33398 8.83301 5.00098 13.5c0.666992 2 1 4.66699 1 8c0 10.667 -5.33301 17.5 -16 20.5s-20.667 4.5 -30 4.5c-40.667 0 -84 -2.5 -130 -7.5s-91.333 -7.5 -136 -7.5c-20 0 -38.667 2.83301 -56 8.5s-30 15.167 -38 28.5c-26.667 -24 -48.334 -48.333 -65.001 -73
c-3.33301 -4.66699 -6.5 -10 -9.5 -16s-4.5 -11.667 -4.5 -17c0 -10.667 5.66699 -17.334 17 -20.001s22 -3.66699 32 -3c41.333 2 85.166 6.5 131.499 13.5s91.833 11.833 136.5 14.5c21.333 1.33301 41.5 -0.666992 60.5 -6s32.5 -15.666 40.5 -30.999z" />
    <glyph glyph-name="dieresis" unicode="&#xa8;" horiz-adv-x="500" 
d="M239 409c-6.66699 0 -12.333 1.83301 -17 5.5s-7 9.83398 -7 18.501c0 8 3 14.833 9 20.5s12.333 8.5 19 8.5c6 0 11 -2.5 15 -7.5s6 -10.167 6 -15.5c0 -6.66699 -2.33301 -13.334 -7 -20.001s-10.667 -10 -18 -10zM309.001 409c-6.66699 0 -12.333 1.83301 -17 5.5
s-7 9.83398 -7 18.501c0 8 3 14.833 9 20.5s12.333 8.5 19 8.5c6 0 11 -2.5 15 -7.5s6 -10.167 6 -15.5c0 -6.66699 -2.33301 -13.334 -7 -20.001s-10.667 -10 -18 -10z" />
    <glyph glyph-name="copyright" unicode="&#xa9;" horiz-adv-x="573" 
d="M237 13c-51.333 0 -91.998 14.8311 -121.998 44.498s-45 67.167 -45 112.5c0 24 4.33301 48.667 13 74c11.333 33.333 28.166 64.833 50.499 94.5s48.5 55.834 78.5 78.501s62 40.334 96 53.001s68 19 102 19c50.667 0 91 -14.667 121 -44s45 -66.666 45 -111.999
c0 -24 -4.33301 -48.667 -13 -74c-10.667 -33.333 -27.334 -64.833 -50.001 -94.5s-49 -55.834 -79 -78.501s-61.833 -40.5 -95.5 -53.5s-67.5 -19.5 -101.5 -19.5zM243.002 36.998c30.667 0 61.3369 6.00391 92.0039 18.0039s59.667 28.333 87 49s51.333 44.5 72 71.5
s36 55.5 46 85.5c4 11.333 6.83301 22.666 8.5 33.999s2.5 22.333 2.5 33c0 40 -13 72.833 -39 98.5s-61.667 38.5 -107 38.5c-30.667 0 -61.334 -5.83301 -92.001 -17.5s-59.834 -27.834 -87.501 -48.501s-51.834 -44.334 -72.501 -71.001s-36 -55.334 -46 -86.001
c-4 -11.333 -6.83301 -22.666 -8.5 -33.999s-2.5 -22.333 -2.5 -33c0 -40.667 13.167 -73.834 39.5 -99.501s62.166 -38.5 107.499 -38.5zM241.005 114.002c-54 0 -81 21.6641 -81 64.9971c0 4.66699 0.333008 9.66699 1 15s1.66699 10.666 3 15.999
c6.66699 26 20.334 50.667 41.001 74c11.333 14.667 27.833 30.834 49.5 48.501s45.5 33 71.5 46s50.333 19.5 73 19.5c15.333 0 27.333 -3.33301 36 -10s13 -15.667 13 -27c0 -13.333 -6.66699 -28.5 -20 -45.5s-30 -31.833 -50 -44.5s-40.667 -19 -62 -19
c-19.333 0 -29 7 -29 21c0 4 0.333008 7 1 9c0.666992 3.33301 3 8.33301 7 15s8.66699 13 14 19s10 9 14 9c6.66699 0 10 -4 10 -12v-1c-0.666992 -3.33301 -2.16699 -6.5 -4.5 -9.5s-4.16602 -5.5 -5.49902 -7.5l-5.5 -7.5
c-1.66699 -2.33301 -2.83398 -5.16602 -3.50098 -8.49902c-2 -4 0 -6 6 -6c14 0 28.167 4.33301 42.5 13s26.666 19.167 36.999 31.5s16.833 23.166 19.5 32.499c2 7.33301 0.833008 13 -3.5 17s-11.166 6 -20.499 6c-19.333 0 -40 -6 -62 -18s-42.5 -26 -61.5 -42
s-33.833 -30.333 -44.5 -43c-17.333 -22.667 -28.333 -43.667 -33 -63c-2.66699 -8.66699 -4 -17.667 -4 -27c0 -27.333 19.667 -40.666 59 -39.999c18 0.666992 37 6.16699 57 16.5s39.167 22.5 57.5 36.5s33.166 26.667 44.499 38l10.5 10.5
c3.66699 3.66699 6.83398 7.16699 9.50098 10.5l10 12l3 1c-0.666992 0 -0.333984 0.333008 0.999023 1s3.16602 1.5 5.49902 2.5s4.83301 1.5 7.5 1.5c3.33301 -5.33301 4.33301 -9.66602 3 -12.999c-0.666992 -0.666992 -1 -1.66699 -1 -3l-2 -4
c-8 -12 -20.167 -25.667 -36.5 -41s-34.666 -30.166 -54.999 -44.499s-41.333 -26.333 -63 -36s-41.5 -14.5 -59.5 -14.5z" />
    <glyph glyph-name="ordfeminine" unicode="&#xaa;" horiz-adv-x="297" 
d="M241 489c-15.333 0 -25.8359 3.99805 -31.5029 11.998s-8.5 17.667 -8.5 29c0 16 3.33301 32.833 10 50.5s12 30.167 16 37.5c8 13.333 17 26.5 27 39.5s20.667 24.167 32 33.5c24.667 21.333 49 32 73 32c22 0 37.5 -5.83301 46.5 -17.5s13.5 -24.167 13.5 -37.5
c0 -2.66699 -0.166992 -5.16699 -0.5 -7.5s-0.833008 -4.83301 -1.5 -7.5c-4 -17.333 -10 -26 -18 -26c-4 0 -7.5 1.83301 -10.5 5.5s-4.16699 7.83398 -3.5 12.501c1.33301 4 2.66602 7 3.99902 9l3 9c0.666992 2.66699 1 6 1 10c0 18.667 -11 28 -33 28
c-19.333 0 -38 -9 -56 -27c-21.333 -20.667 -38.666 -44 -51.999 -70c-1.33301 -2 -3.83301 -7.16699 -7.5 -15.5s-7.16699 -17.5 -10.5 -27.5s-5 -19 -5 -27c0 -13.333 5.33301 -20 16 -20c7.33301 0 15.833 3.5 25.5 10.5s19.5 15.5 29.5 25.5s19 19.667 27 29
s14 16.666 18 21.999c1.33301 1.33301 2.33301 2.83301 3 4.5s1.33398 3.16699 2.00098 4.5c1.33301 2.66699 2.83301 5.16699 4.5 7.5s3.5 4.5 5.5 6.5c2 2.66699 5 4 9 4c4.66699 0 9.16699 -1.5 13.5 -4.5s5.83301 -6.83301 4.5 -11.5
c-1.33301 -2.66699 -4.33301 -9 -9 -19s-9 -21 -13 -33s-6 -22.333 -6 -31c0 -10 3 -15.667 9 -17c4 -0.666992 9.66699 2.33301 17 9s14 14.334 20 23.001l28 40c3.33301 6 6.83301 11.833 10.5 17.5s7.5 10.834 11.5 15.501c2.66699 4.66699 6.33398 7 11.001 7
c8 0 12 -4.33301 12 -13c0 -3.33301 -4.83301 -12.5 -14.5 -27.5s-22.167 -32.5 -37.5 -52.5c-6.66699 -8.66699 -14.667 -17.5 -24 -26.5s-21 -13.5 -35 -13.5c-23.333 0 -35 10 -35 30c0 4.66699 0.5 10 1.5 16s1.83301 11.333 2.5 16
c-6 -6.66699 -14.833 -15.167 -26.5 -25.5s-23.667 -19.333 -36 -27s-23.166 -11.5 -32.499 -11.5z" />
    <glyph glyph-name="guillemotleft" unicode="&#xab;" horiz-adv-x="450" 
d="M322 9c-6.66699 0 -12.001 3.66504 -16.001 10.998c-10.667 23.333 -22.167 46.833 -34.5 70.5s-25.5 47.167 -39.5 70.5c-2 3.33301 -3 6.66602 -3 9.99902c0 6.66699 4 13.334 12 20.001c56 48.667 106.667 97.334 152 146.001c3.33301 3.33301 7.33301 5 12 5
s9 -1.5 13 -4.5s6 -6.5 6 -10.5c0 -3.33301 -1.66699 -6.66602 -5 -9.99902c-23.333 -24.667 -47.833 -49.167 -73.5 -73.5s-52.834 -48.833 -81.501 -73.5c28 -46 53 -92 75 -138c2.66699 -5.33301 1.83398 -10.5 -2.49902 -15.5s-9.16602 -7.5 -14.499 -7.5z
M201.999 8.99805c-6.66699 0 -12.001 3.66504 -16.001 10.998c-10.667 23.333 -22.167 46.833 -34.5 70.5s-25.5 47.167 -39.5 70.5c-2 3.33301 -3 6.66602 -3 9.99902c0 6.66699 4 13.334 12 20.001c56 48.667 106.667 97.334 152 146.001c3.33301 3.33301 7.33301 5 12 5
s9 -1.5 13 -4.5s6 -6.5 6 -10.5c0 -3.33301 -1.66699 -6.66602 -5 -9.99902c-23.333 -24.667 -47.833 -49.167 -73.5 -73.5s-52.834 -48.833 -81.501 -73.5c28 -46 53 -92 75 -138c2.66699 -5.33301 1.83398 -10.5 -2.49902 -15.5s-9.16602 -7.5 -14.499 -7.5z" />
    <glyph glyph-name="logicalnot" unicode="&#xac;" horiz-adv-x="639" 
d="M531 62c-4.66699 0 -7.49902 1.83203 -8.49902 5.49902s-1.5 7.83398 -1.5 12.501l36 174l-441 1c-10.667 0 -16 3.66699 -16 11c-0.666992 -0.666992 -0.333984 -0.166992 0.999023 1.5l6 7.5c6 8 11.333 12 16 12h473l-43 -206c-2 -12.667 -9.33301 -19 -22 -19z" />
    <glyph glyph-name="uni00AD" unicode="&#xad;" horiz-adv-x="419" 
d="M130 226c-4 0 -7.33301 0.999023 -10 2.99902s-4 6.33301 -4 13c0 8.66699 5.33301 15.667 16 21s24 9.33301 40 12s31.667 4.5 47 5.5s27.333 1.5 36 1.5c20.667 0 41.667 -2 63 -6s42 -9.66699 62 -17c0.666992 0 2.33398 -0.5 5.00098 -1.5s4 -2.16699 4 -3.5
c0 -8.66699 -7 -13 -21 -13c-4 0 -9.33301 1 -16 3s-17.834 3.83301 -33.501 5.5s-39.5 2.5 -71.5 2.5c-24.667 0 -44.667 -2.16699 -60 -6.5s-27.333 -8.66602 -36 -12.999s-15.667 -6.5 -21 -6.5z" />
    <glyph glyph-name="registered" unicode="&#xae;" horiz-adv-x="444" 
d="M258 307c-38.667 0 -69.5 11.166 -92.5 33.499s-34.5 50.833 -34.5 85.5c0 18 3.33301 36.667 10 56c11.333 34 30 64.833 56 92.5s55.667 49.834 89 66.501s67 25 101 25c38 0 68.5 -11 91.5 -33s34.5 -50.667 34.5 -86c0 -18 -3.33301 -36.667 -10 -56
c-11.333 -33.333 -29.833 -64 -55.5 -92s-55.167 -50.333 -88.5 -67s-67 -25 -101 -25zM263 331.999c30.667 0 61.668 8.66895 93.001 26.002c-11.333 5.33301 -20.833 14.666 -28.5 27.999s-14.5 26.333 -20.5 39l-5.5 12.5c-1.66699 3.66699 -3.5 7.16699 -5.5 10.5
c-4 0.666992 -7.66699 2.66699 -11 6c-2 2 -3.5 4 -4.5 6s-2.16699 4 -3.5 6c-11.333 -20 -20 -38.667 -26 -56l-2.5 -10.5c-1 -4.33301 -1.5 -8.16602 -1.5 -11.499c0 -5.33301 1.66699 -8 5 -8c4 -0.666992 7.5 -2.66699 10.5 -6s3.83301 -7 2.5 -11
c-2.66699 -3.33301 -6.66699 -5 -12 -5h-1c-11.333 0 -19.166 3 -23.499 9s-6.5 13.333 -6.5 22c0 4 0.5 8.33301 1.5 13s1.83301 9 2.5 13c7.33301 26 18.833 50.667 34.5 74s32.5 46 50.5 68l3 1c0 6 3.5 11.333 10.5 16s11.5 7 13.5 7c4.66699 0 8.5 -1.83301 11.5 -5.5
s3.83301 -7.5 2.5 -11.5c-0.666992 -2 -3 -5.5 -7 -10.5s-6.66699 -8.16699 -8 -9.5c-7.33301 -8 -14.833 -16.667 -22.5 -26s-15.167 -19 -22.5 -29h4c9.33301 0 16.333 -4 21 -12c11.333 3.33301 25.166 9.16602 41.499 17.499s31.333 17.666 45 27.999
s21.5 19.833 23.5 28.5c3.33301 11.333 0.833008 19.833 -7.5 25.5s-18.833 9.5 -31.5 11.5s-24 3 -34 3c-30 0 -55.667 -8 -77 -24c-2.66699 -2.66699 -6.33398 -4 -11.001 -4c-6.66699 0 -10 3.66699 -10 11c0 4 3.66699 8.33301 11 13
c11.333 9.33301 25.333 16.666 42 21.999s32.334 8 47.001 8c12 0 25.667 -1.83301 41 -5.5s28.666 -9.5 39.999 -17.5s17 -19.333 17 -34c0 -2 -0.166992 -4.16699 -0.5 -6.5s-0.833008 -4.83301 -1.5 -7.5c-3.33301 -14.667 -12.666 -28 -27.999 -40
s-32.166 -22 -50.499 -30s-34.5 -14 -48.5 -18c3.33301 -8 7.33301 -18.167 12 -30.5s10.5 -23.333 17.5 -33s14.833 -14.5 23.5 -14.5s16 2.33301 22 7c38.667 30 64.667 66 78 108c3.33301 8.66699 5.5 17 6.5 25s1.5 15.667 1.5 23c0 29.333 -9.33301 53 -28 71
s-44.334 27 -77.001 27c-29.333 0 -58.833 -7.33301 -88.5 -22s-55.834 -34.167 -78.501 -58.5s-38.667 -51.5 -48 -81.5c-2.66699 -8.66699 -4.66699 -17 -6 -25s-2 -15.667 -2 -23c0 -29.333 9.5 -53.166 28.5 -71.499s44.5 -27.5 76.5 -27.5z" />
    <glyph glyph-name="macron" unicode="&#xaf;" horiz-adv-x="500" 
d="M195 427c-8 0 -11.999 2.66699 -11.999 8c0 4 1.83301 7.5 5.5 10.5s10.167 4.5 19.5 4.5c27.333 0 54.166 -0.166992 80.499 -0.5s46.5 -0.5 60.5 -0.5c8 0 12 -2.66699 12 -8c0 -3.33301 -1.66699 -6.5 -5 -9.5s-8 -4.5 -14 -4.5h-147z" />
    <glyph glyph-name="degree" unicode="&#xb0;" horiz-adv-x="242" 
d="M177 366c-24 0 -43.499 7.50098 -58.499 22.501s-22.5 33.833 -22.5 56.5s6.83301 43.834 20.5 63.501s31 35.667 52 48s41.833 18.5 62.5 18.5c24 0 43.5 -7.16699 58.5 -21.5s22.5 -32.833 22.5 -55.5c0 -4.66699 -0.166992 -9.33398 -0.5 -14.001
s-1.5 -9.66699 -3.5 -15c-4.66699 -18.667 -13.834 -35.834 -27.501 -51.501s-29.5 -28.167 -47.5 -37.5s-36.667 -14 -56 -14zM183.001 397.001c19.333 0 38.167 7.33301 56.5 22s29.833 32 34.5 52c2 7.33301 3 13.666 3 18.999c0 15.333 -5 27.833 -15 37.5
s-23.333 14.5 -40 14.5c-15.333 0 -30.333 -4.33301 -45 -13s-26.5 -20 -35.5 -34s-13.5 -28.667 -13.5 -44s5.16699 -28.166 15.5 -38.499s23.5 -15.5 39.5 -15.5z" />
    <glyph glyph-name="plusminus" unicode="&#xb1;" horiz-adv-x="486" 
d="M246 148c-0.666992 0 -1.17188 1.16895 -1.50488 3.50195s-0.5 3.83301 -0.5 4.5c0 7.33301 1 16.666 3 27.999s4.5 23 7.5 35s5.5 21.667 7.5 29c2.66699 8 5.16699 16.167 7.5 24.5s4.5 16.5 6.5 24.5l1 3c-23.333 -0.666992 -46.666 -1.66699 -69.999 -3
s-46.666 -2 -69.999 -2c-4.66699 0 -8.33398 2.5 -11.001 7.5s-3.66699 9.5 -3 13.5l7 5c15.333 2 30.833 3.16699 46.5 3.5s30.834 0.5 45.501 0.5h61c5.33301 23.333 10.333 46.5 15 69.5s10.334 45.833 17.001 68.5c1.33301 4 5 8 11 12s11 6 15 6l4 -5
c-3.33301 -24.667 -8.33301 -49.667 -15 -75l-21 -76c5.33301 0 15.666 -0.166992 30.999 -0.5s31.833 -0.833008 49.5 -1.5s33.334 -1.33398 47.001 -2.00098s21.834 -1.66699 24.501 -3c3.33301 -2 4.66602 -4 3.99902 -6l-1 -4l-11 -6
c-24.667 0 -49.667 -0.166992 -75 -0.5s-50.666 -0.5 -75.999 -0.5c-1.33301 -5.33301 -4.16602 -15.333 -8.49902 -30l-14.5 -47.5l-14.5 -45.5c-4.33301 -13.333 -7.5 -21.333 -9.5 -24c-2.66699 -4 -5.66699 -6 -9 -6zM129.995 75.002
c-2.66699 0 -5.83301 3.16895 -9.5 9.50195s-5.16699 11.166 -4.5 14.499l2 1c6.66699 2 16.5 3.5 29.5 4.5s26.167 1.66699 39.5 2s23.333 0.5 30 0.5c7.33301 0 18.166 -0.333008 32.499 -1s28.333 -1.83398 42 -3.50098s22.834 -4.16699 27.501 -7.5
c2 0 3 -0.666992 3 -2c0 -4 -2.66699 -6 -8 -6c-30 0 -60.5 -2 -91.5 -6s-61.833 -6 -92.5 -6z" />
    <glyph glyph-name="uni00B2" unicode="&#xb2;" horiz-adv-x="522" 
d="M383 311c-26 0 -51.667 2.33398 -77 7.00098s-48.666 11 -69.999 19c-28 -14 -51.333 -21 -70 -21c-12.667 0 -24 2.66699 -34 8s-15 14 -15 26c0 8.66699 3.83301 15.834 11.5 21.501s16.834 8.5 27.501 8.5c4.66699 0 12.167 -1.16699 22.5 -3.5s20.5 -5 30.5 -8
s16.667 -5.16699 20 -6.5c14 5.33301 30.667 14.666 50 27.999s39.666 29 60.999 47s41.833 36.5 61.5 55.5s36.834 36.667 51.501 53s24.667 29.5 30 39.5c17.333 27.333 26 50.666 26 69.999c0 11.333 -4.5 20.333 -13.5 27s-21.5 10 -37.5 10
c-24.667 0 -49.5 -6.33301 -74.5 -19s-46.167 -27.667 -63.5 -45c-10.667 -10.667 -20.667 -22.667 -30 -36c-2.66699 -3.33301 -6.33398 -5 -11.001 -5c-3.33301 0 -6.5 1.33301 -9.5 4s-4.5 6 -4.5 10c0 3.33301 1 6 3 8c13.333 19.333 30.333 37.5 51 54.5
s43.167 30.667 67.5 41s48.5 15.5 72.5 15.5c23.333 0 41.833 -5.66699 55.5 -17s20.5 -27.333 20.5 -48c0 -14 -2.83301 -28.833 -8.5 -44.5s-12.167 -29.5 -19.5 -41.5c-16 -26.667 -38 -53.334 -66 -80.001s-57.833 -51.667 -89.5 -75s-61.167 -43.666 -88.5 -60.999
c19.333 -4 38.833 -7.66699 58.5 -11s39.167 -5 58.5 -5c29.333 0 52.166 3 68.499 9s24.5 14.333 24.5 25v4c0 4 1.16699 7.66699 3.5 11s5.83301 5 10.5 5c6.66699 0 10.667 -2.33301 12 -7s2 -8.66699 2 -12c0 -20 -10.333 -35.167 -31 -45.5s-49.667 -15.5 -87 -15.5z
M163 338.001c5.33301 0 11.499 0.666992 18.499 2s13.833 3.33301 20.5 6c-18 8 -33 12 -45 12c-2 0 -5 -0.5 -9 -1.5s-6 -3.5 -6 -7.5s2.83301 -6.83301 8.5 -8.5s9.83398 -2.5 12.501 -2.5z" />
    <glyph glyph-name="uni00B3" unicode="&#xb3;" horiz-adv-x="490" 
d="M227 310c-28.667 0 -51.666 4.66797 -68.999 14.001s-26 24.333 -26 45c0 6 2.33301 13.833 7 23.5s11 14.5 19 14.5c2.66699 0 5.16699 -0.666992 7.5 -2s3.5 -3.33301 3.5 -6c0 -4 -1.83301 -8 -5.5 -12s-5.5 -10.333 -5.5 -19c0 -23.333 24 -35 72 -35
c35.333 0 69.166 6.16699 101.499 18.5s58.833 28.833 79.5 49.5s31 43.334 31 68.001c0 11.333 -2.16699 21 -6.5 29s-11.833 13.333 -22.5 16c-10 -4.66699 -22.5 -10.167 -37.5 -16.5s-28.167 -9.5 -39.5 -9.5c-2.66699 0 -7.5 0.5 -14.5 1.5s-10.5 4.16699 -10.5 9.5
c0 10 6 17.833 18 23.5s25.667 9.66699 41 12s28 3.16602 38 2.49902c13.333 9.33301 27.333 19.833 42 31.5s27.167 25 37.5 40s15.5 31.167 15.5 48.5s-5.16699 28.333 -15.5 33s-23.166 7 -38.499 7c-20.667 0 -40.5 -4.5 -59.5 -13.5s-35.833 -20.833 -50.5 -35.5
c-2.66699 -3.33301 -4.66699 -6.33301 -6 -9s-2.66602 -5.66699 -3.99902 -9c-2 -2.66699 -4.5 -5.66699 -7.5 -9s-8.16699 -7 -15.5 -11c-2.66699 -1.33301 -5.33398 -2 -8.00098 -2s-5.66699 1 -9 3s-5 5 -5 9c0 2 0.666992 4.33301 2 7c19.333 26 42.833 47.333 70.5 64
s58.167 25 91.5 25c12.667 0 25.5 -1.33301 38.5 -4s23.833 -8.33398 32.5 -17.001s13 -21.667 13 -39c0 -18.667 -5.5 -36 -16.5 -52s-24 -30.333 -39 -43s-29.167 -24 -42.5 -34c23.333 -12 35 -31.667 35 -59c0 -28 -8.16699 -51.833 -24.5 -71.5s-37.333 -36 -63 -49
s-52.334 -22.5 -80.001 -28.5s-52.5 -9 -74.5 -9z" />
    <glyph glyph-name="acute" unicode="&#xb4;" horiz-adv-x="500" 
d="M358 479l-33.999 -29.502l-40 -35.5c-4.66699 -3.33301 -8.66699 -5 -12 -5c-6 0 -9 2.33301 -9 7c0 2.66699 1.33301 5.33398 4 8.00098l67 78c5.33301 6 10.666 9 15.999 9c4.66699 0 8.66699 -1.5 12 -4.5s5 -6.83301 5 -11.5c0 -5.33301 -3 -10.666 -9 -15.999z" />
    <glyph glyph-name="uni00B5" unicode="&#xb5;" horiz-adv-x="316" 
d="M-23 -241c-22.667 0 -40.6689 6.33301 -54.002 19s-20 30.334 -20 53.001c0 13.333 1.33301 26.5 4 39.5s6.33398 25.833 11.001 38.5l17 40l34 80.5l41 95.5c14 31.333 29.333 62.666 46 93.999s34 60.666 52 87.999c4 4.66699 10 7 18 7c6 0 11.333 -1.16699 16 -3.5
s7.33398 -5.16602 8.00098 -8.49902c0 -2.66699 -1.33301 -6 -4 -10c-4.66699 -4.66699 -17.334 -22.334 -38.001 -53.001s-43.667 -74.667 -69 -132c-9.33301 -22 -14 -40.333 -14 -55s4.33301 -22 13 -22c4 0 8.33301 1.33301 13 4c20 11.333 37.667 24.666 53 39.999
l45 47l27.5 30c9 10 17.833 20.333 26.5 31c3.33301 3.33301 9.83301 11.333 19.5 24l32.5 42.5l32.5 42l17.5 22.5c5.33301 5.33301 13.333 8 24 8c5.33301 0 10.166 -1.16699 14.499 -3.5s6.5 -6.16602 6.5 -11.499c0 -4.66699 -3.16699 -12.5 -9.5 -23.5
s-13.833 -23 -22.5 -36s-17 -24.833 -25 -35.5s-13.667 -18.667 -17 -24l-15 -26.5c-7.33301 -13 -15.166 -28 -23.499 -45s-15.5 -33.5 -21.5 -49.5s-9 -29.333 -9 -40c0 -12 5 -18 15 -18c2 -4 3 -7.66699 3 -11c0 -5.33301 -1.83301 -9.5 -5.5 -12.5
s-8.16699 -4.5 -13.5 -4.5c-6.66699 0 -13.667 3.5 -21 10.5s-11 17.833 -11 32.5c0 23.333 5.83301 47 17.5 71s23.167 46 34.5 66l-5 1l-34.5 -41.5c-15 -17.667 -31.5 -35.5 -49.5 -53.5s-36.333 -33 -55 -45c-22.667 -14.667 -41.667 -22 -57 -22
c-11.333 0 -20.333 4 -27 12c-17.333 -39.333 -32 -75.666 -44 -108.999s-18 -57.333 -18 -72s4.66699 -25.167 14 -31.5s21.333 -9.83301 36 -10.5c10 0 15 -3.66699 15 -11c0 -4 -2.16699 -8 -6.5 -12s-10.166 -6 -17.499 -6z" />
    <glyph glyph-name="paragraph" unicode="&#xb6;" horiz-adv-x="444" 
d="M262 -142c-11.333 0 -15.999 6.66602 -13.999 19.999l47 416h-19c-45.333 2 -82 13.333 -110 34c-31.333 22 -47 54.667 -47 98v13c0 4.66699 0.333008 9.33398 1 14.001c7.33301 49.333 33 87 77 113c35.333 21.333 73.333 32 114 32c34 0 50 -6.66699 48 -20l-83 -705
c-0.666992 -10 -5.33398 -15 -14.001 -15zM342.001 -246.001c-21.333 0 -32 28.666 -32 85.999c0 9.33301 0.666992 22.333 2 39s3.33301 36.667 6 60l76 644c1.33301 10 6 15 14 15c11.333 0 16 -6.66699 14 -20l-75 -644c-2.66699 -20.667 -4.66699 -39.5 -6 -56.5
s-2 -31.833 -2 -44.5c0 -27.333 2.66699 -42.666 8 -45.999c6 -2.66699 9 -7.66699 9 -15c0 -12 -4.66699 -18 -14 -18z" />
    <glyph glyph-name="periodcentered" unicode="&#xb7;" horiz-adv-x="267" 
d="M157 143c-10 0 -18.167 3.33301 -24.5 10s-9.5 15 -9.5 25s3.16699 18.333 9.5 25s14.5 10 24.5 10s18.333 -3.33301 25 -10s10 -15 10 -25s-3.33301 -18.333 -10 -25s-15 -10 -25 -10z" />
    <glyph glyph-name="cedilla" unicode="&#xb8;" horiz-adv-x="500" 
d="M128 -139c0 3.33301 0.833984 6.5 2.50098 9.5s4.83398 4.5 9.50098 4.5c5.33301 0 8.33301 -3.66699 9 -11c4 -26 26 -39 66 -39c23.333 0 42.666 6 57.999 18s23 29 23 51c0 13.333 -3.66699 22.833 -11 28.5s-17 8.5 -29 8.5c-8 0 -15.833 -1.5 -23.5 -4.5
s-13.834 -7.16699 -18.501 -12.5c-3.33301 -3.33301 -6.33301 -5 -9 -5c-4.66699 0 -7 3 -7 9c0 3.33301 0.666992 6 2 8l42 84h22l-29 -63c11.333 3.33301 21.333 5 30 5c18.667 0 33.667 -4.66699 45 -14s17 -23 17 -41c0 -27.333 -10.667 -50.333 -32 -69
s-48.333 -28 -81 -28c-26.667 0 -47.667 6.16699 -63 18.5s-23 26.5 -23 42.5z" />
    <glyph glyph-name="uni00B9" unicode="&#xb9;" horiz-adv-x="314" 
d="M174 319c-2.66699 0 -5.66797 1.33398 -9.00098 4.00098s-5 5.66699 -5 9c0 4 3.66699 13.333 11 28c10 23.333 22 49.833 36 79.5l43.5 88.5l40.5 77c-3.33301 -2.66699 -7 -5.83398 -11 -9.50098l-11 -10.5c-2 -2 -4.33301 -3 -7 -3
c-1.33301 0 -4.66602 1.16699 -9.99902 3.5s-8 5.5 -8 9.5s5.83301 11.167 17.5 21.5l42.5 36.5c6.66699 5.33301 14.167 12.5 22.5 21.5l24.5 27c8 9 14 16.167 18 21.5c2 2 4.33301 3 7 3c3.33301 0 7.16602 -2 11.499 -6s6.5 -8 6.5 -12l-29 -39l-5 -6
c-3.33301 -4 -6.5 -8 -9.5 -12s-4.5 -6.33301 -4.5 -7l-20 -33c-6.66699 -11.333 -13 -23 -19 -35c-30.667 -56 -54.667 -104.333 -72 -145s-28.333 -68 -33 -82c-7.33301 -20 -16.666 -30 -27.999 -30z" />
    <glyph glyph-name="ordmasculine" unicode="&#xba;" horiz-adv-x="278" 
d="M252 467c-18.667 0 -31.833 6.66699 -39.5 20s-11.5 26.333 -11.5 39c0 10.667 2 22.334 6 35.001s7.33301 21.667 10 27v8c0 11.333 1.66699 23.666 5 36.999c6.66699 24.667 20.334 45 41.001 61s43.667 24 69 24c20.667 0 37.167 -5.66699 49.5 -17
s18.5 -26.666 18.5 -45.999c0 -24.667 -4.66699 -46.167 -14 -64.5s-19.666 -36.833 -30.999 -55.5h2c24.667 0 50.667 23.667 78 71c1.33301 2 2.83301 3.66699 4.5 5s4.16699 2.33301 7.5 3c8 0 12.333 -4 13 -12c0 -1.33301 -0.666992 -3.33301 -2 -6
c-2.66699 -5.33301 -6.83398 -12.5 -12.501 -21.5s-11.834 -17.167 -18.501 -24.5c-16.667 -20 -34.667 -32.833 -54 -38.5s-34.333 -8.83398 -45 -9.50098c-24.667 -23.333 -50 -35 -76 -35zM314.001 532l6.00195 -0.00195312c13.333 16.667 25.5 35.834 36.5 57.501
s16.5 42.5 16.5 62.5c0 28.667 -13.667 43 -41 43c-20 0 -37.333 -6.66699 -52 -20v0c3.33301 0 6.33301 -1.16699 9 -3.5s4 -5.16602 4 -8.49902c0 -2.66699 -0.666992 -4.66699 -2 -6c0 -0.666992 -0.333008 -1 -1 -1c-4 -6.66699 -8 -12.667 -12 -18l-15 -21.5
c-4.66699 -7 -9 -14.833 -13 -23.5l-2 -4l-2 -4c3.33301 -16 11.166 -28.833 23.499 -38.5s27.166 -14.5 44.499 -14.5zM256.003 490.998c7.33301 0 14.5 1.83203 21.5 5.49902s13.5 7.83398 19.5 12.501c-28.667 5.33301 -50 18 -64 38c-2 -10 -3 -18.333 -3 -25
c0 -20.667 8.66699 -31 26 -31z" />
    <glyph glyph-name="guillemotright" unicode="&#xbb;" horiz-adv-x="450" 
d="M181 342c7.33301 0 12.668 -3.66406 16.001 -10.9971l35 -70.5c12 -23.667 25 -47.167 39 -70.5c2 -2.66699 3 -6 3 -10c0 -6.66699 -4 -13.334 -12 -20.001c-56 -48.667 -106.667 -97.334 -152 -146.001c-3.33301 -3.33301 -7.33301 -5 -12 -5s-9 1.5 -13 4.5
s-6 6.5 -6 10.5c0 3.33301 1.66699 6.66602 5 9.99902c23.333 24.667 47.833 49.167 73.5 73.5s52.834 48.833 81.501 73.5c-28 46 -53 92 -75 138c-2.66699 5.33301 -1.83398 10.5 2.49902 15.5s9.16602 7.5 14.499 7.5zM301.002 342.003
c7.33301 0 12.668 -3.66406 16.001 -10.9971l35 -70.5c12 -23.667 25 -47.167 39 -70.5c2 -2.66699 3 -6 3 -10c0 -6.66699 -4 -13.334 -12 -20.001c-56 -48.667 -106.667 -97.334 -152 -146.001c-3.33301 -3.33301 -7.33301 -5 -12 -5s-9 1.5 -13 4.5s-6 6.5 -6 10.5
c0 3.33301 1.66699 6.66602 5 9.99902c23.333 24.667 47.833 49.167 73.5 73.5s52.834 48.833 81.501 73.5c-28 46 -53 92 -75 138c-2.66699 5.33301 -1.83398 10.5 2.49902 15.5s9.16602 7.5 14.499 7.5z" />
    <glyph glyph-name="onequarter" unicode="&#xbc;" horiz-adv-x="769" 
d="M174 319c-2.66699 0 -5.66797 1.33398 -9.00098 4.00098s-5 5.66699 -5 9c0 4 3.66699 13.333 11 28c10 23.333 22 49.833 36 79.5l43.5 88.5l40.5 77c-3.33301 -2.66699 -7 -5.83398 -11 -9.50098l-11 -10.5c-2 -2 -4.33301 -3 -7 -3
c-1.33301 0 -4.66602 1.16699 -9.99902 3.5s-8 5.5 -8 9.5s5.83301 11.167 17.5 21.5l42.5 36.5c6.66699 5.33301 14.167 12.5 22.5 21.5l24.5 27c8 9 14 16.167 18 21.5c2 2 4.33301 3 7 3c3.33301 0 7.16602 -2 11.499 -6s6.5 -8 6.5 -12l-29 -39l-5 -6
c-3.33301 -4 -6.5 -8 -9.5 -12s-4.5 -6.33301 -4.5 -7l-20 -33c-6.66699 -11.333 -13 -23 -19 -35c-30.667 -56 -54.667 -104.333 -72 -145s-28.333 -68 -33 -82c-7.33301 -20 -16.666 -30 -27.999 -30zM586.999 76.001c-4.66699 0 -8.83691 1.16211 -12.5039 3.49512
s-5.5 5.16602 -5.5 8.49902c0 2 2.66699 9 8 21l18.5 42l20.5 45.5l14 30.5c-18 1.33301 -36.167 3.33301 -54.5 6s-37.166 6.33398 -56.499 11.001l-11.5 -3c-5 -1.33301 -9.5 -2 -13.5 -2c-5.33301 0 -9.66602 1.66699 -12.999 5s-5 7 -5 11c0 4.66699 2.16699 9 6.5 13
s11.166 6 20.499 6l54 42.5l54 41.5l63.5 48.5l62.5 49.5c4 3.33301 7.83301 6.83301 11.5 10.5l10.5 10.5l12.5 12.5c4.33301 4.33301 8.83301 8.16602 13.5 11.499h3c0.666992 0.666992 1.66699 1 3 1c4 0 8 -1.83301 12 -5.5s6 -7.5 6 -11.5
c0 -5.33301 -5.66699 -13.666 -17 -24.999c-1.33301 -2 -2.66602 -3.66699 -3.99902 -5l-4 -4c-2.66699 -2.66699 -5.5 -6.5 -8.5 -11.5l-9.5 -15.5l-8 -13.5l-7 -11.5c-1.33301 -1.33301 -2 -2.66602 -2 -3.99902c-13.333 -22.667 -26.166 -46.5 -38.499 -71.5
s-25.5 -49.5 -39.5 -73.5c25.333 0.666992 44.666 4.33398 57.999 11.001s20 14.334 20 23.001v2c-0.666992 0 -1 0.666992 -1 2c0 10 5 15 15 15c6 0 9.66699 -2.16699 11 -6.5s2 -8.5 2 -12.5c0 -17.333 -7 -30.166 -21 -38.499s-30.167 -13.666 -48.5 -15.999
s-34.5 -3.5 -48.5 -3.5l-19 -45.5l-20.5 -51l-14.5 -37.5c-1.33301 -3.33301 -3.66602 -6.83301 -6.99902 -10.5s-6.66602 -5.5 -9.99902 -5.5zM640.996 249.996l39.498 81.501c13.667 27.667 28.834 54.167 45.501 79.5c-13.333 -11.333 -27 -22.166 -41 -32.499l-43 -31.5
l-55 -39.5c-19.333 -13.667 -37.666 -27.834 -54.999 -42.501c16.667 -4 34.5 -7.33301 53.5 -10s37.5 -4.33398 55.5 -5.00098zM232.994 37.9971c-2.66699 1.33301 -4.83398 2.50098 -6.50098 3.50098s-2.5 3.16699 -2.5 6.5c0 6 5.66699 20.5 17 43.5s26.5 51.333 45.5 85
l63.5 109.5l72 119.5l70.5 113.5l59.5 92c17.333 26 30 44 38 54c5.33301 6 10.5 9.5 15.5 10.5s10.5 1.5 16.5 1.5c3.33301 0 6.83301 -0.666992 10.5 -2s5.5 -4 5.5 -8c0 -3.33301 -3 -8.83301 -9 -16.5s-10.667 -13.834 -14 -18.501
c-12 -15.333 -27.667 -36.833 -47 -64.5l-64 -94.5l-71.5 -110l-69.5 -112c-22 -36.667 -41.5 -70.5 -58.5 -101.5s-29.833 -56.5 -38.5 -76.5c-4 -10 -8.66699 -18 -14 -24s-11.666 -9.66699 -18.999 -11z" />
    </font>
</defs>
</svg>
