<svg xmlns="http://www.w3.org/2000/svg" viewBox="0 0 17 33.4"><path d="M4.2 29.4c-.8-.8-1.2-2-1.2-3.5 0-.7.1-1.5.3-2.5l2.6-12.1h5.4L8.6 24.2c-.1.3-.1.7-.1 1.2s.1.9.4 1.1c.2.2.6.3 1.2.3.4 0 .7-.1 1.1-.2.4-.2.7-.4 1-.7.6-.6 1.1-1.4 1.4-2.4H15c-.7 1.9-1.5 3.4-2.5 4.6-.9.9-1.8 1.6-2.9 2-.8.3-1.6.4-2.5.4-1.3-.1-2.2-.4-2.9-1.1zM8.4 9.1c-.4-.2-.7-.4-1-.6-.2-.3-.4-.6-.6-1-.1-.4-.2-.8-.2-1.2s.1-.8.2-1.2c.2-.4.4-.7.6-1 .3-.3.6-.5 1-.7.4-.2.8-.2 1.2-.2s.8.1 1.2.2c.4.2.7.4 1 .7s.5.6.7 1 .2.8.2 1.2-.1.8-.2 1.2c-.2.4-.4.7-.7.9-.3.3-.6.5-1 .6-.4.2-.8.3-1.2.3-.4 0-.8-.1-1.2-.2z" fill="#fff"/></svg>