<svg xmlns="http://www.w3.org/2000/svg" width="512" height="512" viewBox="0 0 64 64"><path fill="#fff" d="M.614 47.807l-.002.002-.006.01c-.172.195-.298.43-.399.678-.032.076-.053.148-.076.225a2.549 2.549 0 0 0-.106.596c-.006.076-.018.148-.016.226 0 .04-.01.076-.008.115.014.239.062.47.136.687.006.023.022.041.03.064.088.239.214.451.363.645.021.027.028.063.05.09l10.311 12.146c.789.93 2.084.948 2.894.037.808-.91.823-2.402.032-3.334l-5.558-6.549c8.121 1.076 16.104-.633 16.481-.717 24.646-4.467 42.087-27.227 38.88-50.736C63.461.828 62.592 0 61.601 0c-.106 0-.212.009-.32.027-1.116.203-1.878 1.409-1.704 2.696 2.857 20.94-13.056 41.282-35.537 45.358-.103.024-8.351 1.794-16.117.574l8.577-5.093c1.005-.598 1.398-2.02.881-3.177-.516-1.159-1.748-1.608-2.756-1.017l-13.52 8.028c-.183.111-.347.25-.491.411z" data-original="#1D1D1B" class="active-path" data-old_color="#ffffff"/></svg>